<svg xmlns="http://www.w3.org/2000/svg" xmlns:xlink="http://www.w3.org/1999/xlink" width="369.34" height="30.56" viewBox="0 0 369.34 30.56"><defs><style>.a{clip-path:url(#b);}</style><clipPath id="b"><rect width="369.34" height="30.56"/></clipPath></defs><g id="a" class="a"><path d="M-561.171-61.6a10.712,10.712,0,0,1-1.535-.039,3.358,3.358,0,0,0-1.69.272,26.473,26.473,0,0,1-4.2-.505,29.68,29.68,0,0,1-3.924-1.049q-.389-.427-.777-.8a2.23,2.23,0,0,0-1.049-.525,5.85,5.85,0,0,1-1.515-1.807,11.322,11.322,0,0,1-.933-2.273,13.174,13.174,0,0,1-.466-2.467,19.4,19.4,0,0,1-.078-2.429,9.019,9.019,0,0,1,1.651-3.011q1.069-1.263,2.2-2.506a2.64,2.64,0,0,0,.758-.486,4.689,4.689,0,0,1,.544-.466l.583-.427a2.518,2.518,0,0,0,.525-.525,4.845,4.845,0,0,0,1.418-.563q.6-.369,1.185-.777t1.2-.758a5.536,5.536,0,0,1,1.438-.544,2.434,2.434,0,0,1,.738-.563q.427-.214.874-.427t.855-.447a1.738,1.738,0,0,0,.641-.622.446.446,0,0,0,.544.214q.35-.1.661-.214a.37.37,0,0,1,.33.078q.136.117.253.233a.449.449,0,0,0,.214.136q.1.019.175-.175.194,0,.117.194t-.117.272a.663.663,0,0,1,.525.136,1.239,1.239,0,0,0,.68.214q.155.194.078.291a.538.538,0,0,0-.078.33,2.108,2.108,0,0,1,1.477,1.107,2.194,2.194,0,0,1,.039,1.574,3.88,3.88,0,0,1-.971,1.515,3.506,3.506,0,0,1-1.515.933q-1.865.505-3.516,1.107a6.6,6.6,0,0,0-2.7,1.768,6.626,6.626,0,0,0-1.651.719,10.274,10.274,0,0,0-1.36,1.01q-.641.563-1.2,1.166t-1.185,1.185a1.241,1.241,0,0,1-.175.835q-.214.291-.408.6a3.857,3.857,0,0,0,.272,1.03q.194.447.427.874a24.406,24.406,0,0,0,5.459.971q2.895.194,5.809.233a4.184,4.184,0,0,0,.641.719,6.914,6.914,0,0,1,.68.7,3.307,3.307,0,0,1,.505.816,1.923,1.923,0,0,1,.078,1.107,8.664,8.664,0,0,1-1.2,1.069Q-560.51-62.105-561.171-61.6Zm26.927-11.735a2.564,2.564,0,0,0,.078.894,6.376,6.376,0,0,0,.291.835q.175.408.33.835a5.244,5.244,0,0,1,.233.855,4.529,4.529,0,0,1,0,1.185,6.646,6.646,0,0,1-.272,1.243,4.662,4.662,0,0,1-.505,1.088,2.053,2.053,0,0,1-.738.719,3.82,3.82,0,0,1-1.321,1.088,7.6,7.6,0,0,0-1.438.933,2.948,2.948,0,0,1-.952.389q-.525.117-1.069.233-.427.233-1.01.486t-1.2.466a7.275,7.275,0,0,1-1.243.311,4.645,4.645,0,0,1-1.088.058,10.227,10.227,0,0,1-2.273.563,7.974,7.974,0,0,1-2.584-.175,6.56,6.56,0,0,1-2.584-.117,6.038,6.038,0,0,1-2.1-.991,7.333,7.333,0,0,1-1.593-1.632,9.793,9.793,0,0,1-1.107-2,10.3,10.3,0,0,1,.155-4.022,13.564,13.564,0,0,1,1.341-3.342,17.721,17.721,0,0,1,2-2.837q1.127-1.3,2.176-2.545a.4.4,0,0,0,.369-.019,1.032,1.032,0,0,0,.253-.272,3.172,3.172,0,0,1,.253-.33.581.581,0,0,1,.33-.194,1.873,1.873,0,0,1,.8-.874,2.157,2.157,0,0,0,.835-.835,1.714,1.714,0,0,0,.583-.233,3.782,3.782,0,0,0,.447-.35q.214-.194.447-.369a1.5,1.5,0,0,1,.544-.253v-.427a2.721,2.721,0,0,0,1.03-.719q.33-.408.8-.991a5.347,5.347,0,0,1,.563-.039,3.942,3.942,0,0,0,.641-.078,4.55,4.55,0,0,1,.563-.816,3.674,3.674,0,0,1,.758-.583,3.29,3.29,0,0,0,1.03.311,1.7,1.7,0,0,1,.991.505,1.022,1.022,0,0,0,.233.6,3.047,3.047,0,0,0,.427.389q.233.175.447.369a1.006,1.006,0,0,1,.291.544q.155.039.214-.039t.214-.039a1.709,1.709,0,0,0,.272.719,1.972,1.972,0,0,1,.311.68,3.686,3.686,0,0,0-.291.8.874.874,0,0,1-.486.6q-.039.272.155.291a.243.243,0,0,1,.233.214.6.6,0,0,1-.117.505,25.846,25.846,0,0,1,1.671,3.206A25.845,25.845,0,0,0-534.243-73.335Zm-4.857,3.691a2.036,2.036,0,0,1,.408-.7,1.3,1.3,0,0,0,.291-.816,1.74,1.74,0,0,1-.233-.486,2.883,2.883,0,0,1-.039-.563,15.352,15.352,0,0,1-1.477-2.584,19.657,19.657,0,0,0-1.4-2.584.976.976,0,0,1-.272.311q-.194.155-.427-.078a.737.737,0,0,1-.272.447.633.633,0,0,1-.427.117,1.763,1.763,0,0,1-.486-.117,1.668,1.668,0,0,1-.447-.253q-1.127.894-2.254,1.749a11.248,11.248,0,0,0-2.021,1.982q-.155.078-.194.058t-.233.058a6.42,6.42,0,0,1-.758,1.341q-.447.6-.874,1.224a8.218,8.218,0,0,0-.738,1.321,4.453,4.453,0,0,0-.35,1.632,3,3,0,0,0,1.554.661,8.74,8.74,0,0,0,1.846.039,17.466,17.466,0,0,0,1.865-.253,9.029,9.029,0,0,1,1.69-.175,11.175,11.175,0,0,0,2.8-1.03Q-540.383-68.983-539.1-69.644Zm13.483,3.924a21.291,21.291,0,0,1-.758,2.351,7.332,7.332,0,0,1-.991,1.651.8.8,0,0,0-.7.117,2.8,2.8,0,0,1-.427.35.811.811,0,0,1-.505,0,1.4,1.4,0,0,1-.272-.175,1.894,1.894,0,0,0-.291-.194,1.111,1.111,0,0,0-.525-.1q-.078-.311-.175-.583t-.525-.194a1.27,1.27,0,0,0,.039-.525,2.829,2.829,0,0,0-.1-.389,3.524,3.524,0,0,1-.1-.35.933.933,0,0,1,.039-.447q-.194,0-.311-.272a5.318,5.318,0,0,0-.272-.544q.117-.7.233-1.321a9.574,9.574,0,0,1,.291-1.166q.175-.544.291-1.088a1.907,1.907,0,0,0-.117-1.127q.155.117.233-.058a1.74,1.74,0,0,0,.117-.466,4.41,4.41,0,0,0,.039-.583,2.538,2.538,0,0,0-.039-.486,16.1,16.1,0,0,0,.641-2.079q.253-1.069.466-2.118t.447-2.059a9.847,9.847,0,0,1,.622-1.865,1.919,1.919,0,0,1,.952.1.986.986,0,0,1,.641.447,8.556,8.556,0,0,0,1.787-1.885q.777-1.107,1.593-2.157a11.749,11.749,0,0,1,1.807-1.865,4.576,4.576,0,0,1,2.506-.971q.777.583,1.729,1.185a5.069,5.069,0,0,1,1.574,1.574,2.816,2.816,0,0,1,.525.33,5.12,5.12,0,0,0,.525.369v.466a3.54,3.54,0,0,1,.758.991,10.222,10.222,0,0,1,.525,1.2l.466,1.282a9.492,9.492,0,0,0,.544,1.224.921.921,0,0,0-.078.33.832.832,0,0,0,.058.291,2.851,2.851,0,0,1,.1.311,1.162,1.162,0,0,1,0,.427,4.3,4.3,0,0,1-1.107,2.759,8.147,8.147,0,0,1-2.39,1.729,19.1,19.1,0,0,1-2.992,1.146,26.307,26.307,0,0,0-2.875,1.01q0,.155.136.155t.1.194q.933.583,1.477.933a9.615,9.615,0,0,0,1.03.583,7.688,7.688,0,0,0,1.049.408q.563.175,1.574.408t1.574.369q.563.136,1.03.233t.952.155q.486.058,1.379.136a3.368,3.368,0,0,1,.6.835,3.2,3.2,0,0,1,.33.971,3.806,3.806,0,0,1,.039.933,1.239,1.239,0,0,1-.272.719.141.141,0,0,0,.175.1.756.756,0,0,1,.291.019,1.387,1.387,0,0,0-.389.389l-.311.466a2.149,2.149,0,0,1-.35.408.948.948,0,0,1-.544.214,5.247,5.247,0,0,1-3.031.058,33.522,33.522,0,0,1-4.624-1.5q-1.4-.544-2.273-.952a13.369,13.369,0,0,1-1.515-.816,9.119,9.119,0,0,1-1.166-.874Q-524.879-65.059-525.617-65.719Zm5.556-13.328a7.3,7.3,0,0,1-.952,1.127q-.525.505-1.01,1.03a7.2,7.2,0,0,0-.874,1.166,4.366,4.366,0,0,0-.544,1.5,10.765,10.765,0,0,0,2.836-.758q1.477-.6,2.8-1.146a3.432,3.432,0,0,0-.835-1.943A3.327,3.327,0,0,0-520.061-79.047Zm15.97,13.328a21.3,21.3,0,0,1-.758,2.351,7.331,7.331,0,0,1-.991,1.651.8.8,0,0,0-.7.117,2.8,2.8,0,0,1-.427.35.811.811,0,0,1-.505,0,1.4,1.4,0,0,1-.272-.175,1.891,1.891,0,0,0-.291-.194,1.111,1.111,0,0,0-.525-.1q-.078-.311-.175-.583t-.525-.194a1.27,1.27,0,0,0,.039-.525,2.838,2.838,0,0,0-.1-.389,3.516,3.516,0,0,1-.1-.35.934.934,0,0,1,.039-.447q-.194,0-.311-.272a5.325,5.325,0,0,0-.272-.544q.117-.7.233-1.321a9.574,9.574,0,0,1,.291-1.166q.175-.544.291-1.088a1.907,1.907,0,0,0-.117-1.127q.155.117.233-.058a1.739,1.739,0,0,0,.117-.466,4.409,4.409,0,0,0,.039-.583,2.539,2.539,0,0,0-.039-.486,16.1,16.1,0,0,0,.641-2.079q.253-1.069.466-2.118t.447-2.059a9.849,9.849,0,0,1,.622-1.865,1.919,1.919,0,0,1,.952.1.986.986,0,0,1,.641.447,8.557,8.557,0,0,0,1.787-1.885q.777-1.107,1.593-2.157a11.75,11.75,0,0,1,1.807-1.865,4.576,4.576,0,0,1,2.506-.971q.777.583,1.729,1.185a5.069,5.069,0,0,1,1.574,1.574,2.815,2.815,0,0,1,.525.33,5.118,5.118,0,0,0,.525.369v.466a3.54,3.54,0,0,1,.758.991,10.221,10.221,0,0,1,.525,1.2l.466,1.282a9.488,9.488,0,0,0,.544,1.224.921.921,0,0,0-.078.33.832.832,0,0,0,.058.291,2.864,2.864,0,0,1,.1.311,1.163,1.163,0,0,1,0,.427,4.3,4.3,0,0,1-1.107,2.759,8.146,8.146,0,0,1-2.39,1.729,19.1,19.1,0,0,1-2.992,1.146,26.3,26.3,0,0,0-2.875,1.01q0,.155.136.155t.1.194q.933.583,1.477.933a9.612,9.612,0,0,0,1.03.583,7.689,7.689,0,0,0,1.049.408q.563.175,1.574.408t1.574.369q.563.136,1.03.233t.952.155q.486.058,1.379.136a3.368,3.368,0,0,1,.6.835,3.2,3.2,0,0,1,.33.971,3.807,3.807,0,0,1,.039.933,1.239,1.239,0,0,1-.272.719.141.141,0,0,0,.175.1.756.756,0,0,1,.291.019,1.387,1.387,0,0,0-.389.389l-.311.466a2.149,2.149,0,0,1-.35.408.948.948,0,0,1-.544.214,5.247,5.247,0,0,1-3.031.058,33.523,33.523,0,0,1-4.624-1.5q-1.4-.544-2.273-.952a13.367,13.367,0,0,1-1.515-.816,9.117,9.117,0,0,1-1.166-.874Q-503.352-65.059-504.091-65.719Zm5.556-13.328a7.3,7.3,0,0,1-.952,1.127q-.525.505-1.01,1.03a7.206,7.206,0,0,0-.874,1.166,4.366,4.366,0,0,0-.544,1.5,10.766,10.766,0,0,0,2.837-.758q1.477-.6,2.8-1.146a3.432,3.432,0,0,0-.835-1.943A3.327,3.327,0,0,0-498.534-79.047Zm31.4-4.507a1.573,1.573,0,0,1,.019.408q-.019.136-.039.253a1.54,1.54,0,0,0-.019.253,1.647,1.647,0,0,0,.078.408,4.455,4.455,0,0,1-1.885,1.807,9.417,9.417,0,0,1-2.312.7q-1.243.214-2.545.447a7.548,7.548,0,0,0-2.584,1.01,1.119,1.119,0,0,0-.913,0,2.3,2.3,0,0,1-1.185.117,1.3,1.3,0,0,1-.583.33q-.35.1-.7.214a1.547,1.547,0,0,1,.136.719,1.2,1.2,0,0,0,.1.6,16.9,16.9,0,0,0,3.011-.039q1.651-.155,3.245-.194.039.194-.039.253t-.039.214a3.672,3.672,0,0,1,.544.486q.272.291.544.563a2.941,2.941,0,0,0,.563.447,1.079,1.079,0,0,0,.68.136,2.319,2.319,0,0,1,.214.68,1.418,1.418,0,0,1-.1.758q-.622.427-1.243.874a10.29,10.29,0,0,1-1.3.8,7.711,7.711,0,0,1-1.438.563,5.386,5.386,0,0,1-1.69.175h-.291a.47.47,0,0,1-.253-.117,1.3,1.3,0,0,1-.874.117,1.3,1.3,0,0,0-.874.117,2.294,2.294,0,0,0-1.03-.175,3.059,3.059,0,0,1-1.069-.136,13.449,13.449,0,0,0-1.127,1.749,15.344,15.344,0,0,0-.894,1.982,11.941,11.941,0,0,0,2.2.155q.874-.039,1.651-.136t1.593-.194a14.2,14.2,0,0,1,2.059-.058,5.151,5.151,0,0,1,1.846-.563,9.69,9.69,0,0,0,1.962-.447,1.262,1.262,0,0,1,.544.408q.233.291.447.544a3.637,3.637,0,0,0,.447.447.743.743,0,0,0,.583.155.818.818,0,0,1,.214.369q.058.214.1.408a.846.846,0,0,0,.136.33.31.31,0,0,0,.33.1,5.853,5.853,0,0,1-1.341,1.962A5.2,5.2,0,0,1-472-62.533a12.192,12.192,0,0,1-2.157.544q-1.185.194-2.623.466a.966.966,0,0,1-.583-.019,1.407,1.407,0,0,0-.544-.1q-.894.194-2.137.35a16.344,16.344,0,0,1-2.526.117,11.5,11.5,0,0,1-2.448-.33,4,4,0,0,1-1.9-1.03,1.271,1.271,0,0,1-.408-.641.863.863,0,0,0-.525-.563A10.577,10.577,0,0,0-488-64.864q-.117-.622-.233-1.3t-.175-1.341a4.048,4.048,0,0,1,.058-1.2,2.437,2.437,0,0,1,.486-1.049,1.167,1.167,0,0,0,.253-1.01.269.269,0,0,0,.233-.214q.039-.175.311-.136.233-.7.505-1.321t.563-1.2q.291-.583.583-1.185t.563-1.341a3.205,3.205,0,0,1-.8-1.107,6.116,6.116,0,0,1-.369-1.2q-.117-.6-.194-1.243a8.038,8.038,0,0,0-.272-1.3,3.332,3.332,0,0,1,.952-.952,5.662,5.662,0,0,1,1.224-.6,10.522,10.522,0,0,1,1.438-.389q.777-.155,1.632-.35,1.554-.505,2.778-.777t2.409-.447q1.185-.175,2.467-.33t2.914-.466a.981.981,0,0,0,.661.35q.155-.35.369-.214t.175-.214a3.7,3.7,0,0,0,.991,1.107A6.419,6.419,0,0,0-467.138-83.554Zm5.323,17.835a21.309,21.309,0,0,1-.758,2.351,7.331,7.331,0,0,1-.991,1.651.8.8,0,0,0-.7.117,2.8,2.8,0,0,1-.427.35.811.811,0,0,1-.505,0,1.4,1.4,0,0,1-.272-.175,1.891,1.891,0,0,0-.291-.194,1.11,1.11,0,0,0-.525-.1q-.078-.311-.175-.583t-.525-.194a1.269,1.269,0,0,0,.039-.525,2.838,2.838,0,0,0-.1-.389,3.524,3.524,0,0,1-.1-.35.934.934,0,0,1,.039-.447q-.194,0-.311-.272a5.324,5.324,0,0,0-.272-.544q.117-.7.233-1.321a9.579,9.579,0,0,1,.291-1.166q.175-.544.291-1.088a1.907,1.907,0,0,0-.117-1.127q.155.117.233-.058a1.74,1.74,0,0,0,.117-.466,4.4,4.4,0,0,0,.039-.583,2.536,2.536,0,0,0-.039-.486,16.1,16.1,0,0,0,.641-2.079q.253-1.069.466-2.118t.447-2.059a9.847,9.847,0,0,1,.622-1.865,1.919,1.919,0,0,1,.952.1.986.986,0,0,1,.641.447,8.555,8.555,0,0,0,1.787-1.885q.777-1.107,1.593-2.157a11.751,11.751,0,0,1,1.807-1.865,4.576,4.576,0,0,1,2.506-.971q.777.583,1.729,1.185a5.069,5.069,0,0,1,1.574,1.574,2.815,2.815,0,0,1,.525.33,5.124,5.124,0,0,0,.525.369v.466a3.54,3.54,0,0,1,.758.991,10.221,10.221,0,0,1,.525,1.2l.466,1.282a9.483,9.483,0,0,0,.544,1.224.921.921,0,0,0-.078.33.833.833,0,0,0,.058.291,2.864,2.864,0,0,1,.1.311,1.163,1.163,0,0,1,0,.427,4.3,4.3,0,0,1-1.107,2.759,8.147,8.147,0,0,1-2.39,1.729,19.1,19.1,0,0,1-2.992,1.146,26.3,26.3,0,0,0-2.875,1.01q0,.155.136.155t.1.194q.933.583,1.477.933a9.609,9.609,0,0,0,1.03.583,7.687,7.687,0,0,0,1.049.408q.563.175,1.574.408t1.574.369q.563.136,1.03.233t.952.155q.486.058,1.379.136a3.366,3.366,0,0,1,.6.835,3.2,3.2,0,0,1,.33.971,3.8,3.8,0,0,1,.039.933,1.238,1.238,0,0,1-.272.719.141.141,0,0,0,.175.1.756.756,0,0,1,.291.019,1.387,1.387,0,0,0-.389.389l-.311.466a2.149,2.149,0,0,1-.35.408.948.948,0,0,1-.544.214,5.247,5.247,0,0,1-3.031.058,33.523,33.523,0,0,1-4.624-1.5q-1.4-.544-2.273-.952a13.366,13.366,0,0,1-1.515-.816,9.117,9.117,0,0,1-1.166-.874Q-461.077-65.059-461.815-65.719Zm5.556-13.328a7.3,7.3,0,0,1-.952,1.127q-.525.505-1.01,1.03a7.206,7.206,0,0,0-.874,1.166,4.366,4.366,0,0,0-.544,1.5,10.765,10.765,0,0,0,2.836-.758q1.477-.6,2.8-1.146a3.432,3.432,0,0,0-.835-1.943A3.327,3.327,0,0,0-456.259-79.047ZM-438.307-64.4a3.015,3.015,0,0,1-.136,1.826,2.233,2.233,0,0,1-.933.991,3.158,3.158,0,0,1-1.379.369,6.878,6.878,0,0,1-1.477-.078,6.04,6.04,0,0,1-.7-1.36q-.311-.816-.583-1.69T-444-66.069q-.214-.855-.369-1.515a3.7,3.7,0,0,0,.253-1.069q.058-.6.078-1.224T-444-71.14a12.015,12.015,0,0,1,.1-1.224,18.211,18.211,0,0,1,.8-3.109,21.39,21.39,0,0,0,.835-3.07,1.043,1.043,0,0,0-.058-.661.846.846,0,0,1-.058-.583.3.3,0,0,1,.233-.214.312.312,0,0,0,.233-.253,1.525,1.525,0,0,0,.058-.7,1.03,1.03,0,0,1,.136-.661,10.252,10.252,0,0,0,.486-.913,2.241,2.241,0,0,0,.214-1.263,4.331,4.331,0,0,0,.661-.544,6.443,6.443,0,0,1,.641-.563,4.142,4.142,0,0,1,.738-.447,2.291,2.291,0,0,1,.991-.194,2.01,2.01,0,0,1,.408.855l.194.933a3.855,3.855,0,0,0,.291.874,1.383,1.383,0,0,0,.661.641v.777q0,.466.039.913a3.14,3.14,0,0,0,.175.816.763.763,0,0,0,.447.486q-.7,1.865-1.3,3.691a34.243,34.243,0,0,0-.991,3.672,24.059,24.059,0,0,0-.486,3.711A16.152,16.152,0,0,0-438.307-64.4Zm25.062-.544a6.229,6.229,0,0,1-.68,1.341,5.846,5.846,0,0,1-1.049,1.2,5.829,5.829,0,0,1-1.341.874,4.045,4.045,0,0,1-1.554.389,1.907,1.907,0,0,1-.68-.253,3.708,3.708,0,0,0-.369-.253q-.117-.078-.214-.136t-.175-.1l-.466-.194.155-.505a.6.6,0,0,0-.039-.486,2.958,2.958,0,0,0-.466-.486l-.233-.233a1.542,1.542,0,0,1-.194-.233l-.661-.738,1.049-.272a2.469,2.469,0,0,0,1.3-.7,2.123,2.123,0,0,0,.253-1.438,3.21,3.21,0,0,0-1.3-.039q-.525.117-1.069.272-.7.194-1.418.33a8.48,8.48,0,0,1-1.574.136q-.311,0-.583-.019t-.583-.058l-.389-.078a1.036,1.036,0,0,0-.155-.486,1.459,1.459,0,0,1-.155-.136,3.223,3.223,0,0,1-.408-.525,1.053,1.053,0,0,1-.1-.835,1.859,1.859,0,0,1-.233-.7,4.353,4.353,0,0,0-.35.971l-.155.389-.389.078a.262.262,0,0,0-.117.175.833.833,0,0,0-.039.214l-.194.661a1.462,1.462,0,0,1-.155.136,1.457,1.457,0,0,0-.155.136,7.04,7.04,0,0,1-.194.7q-.117.35-.233.661-.194.505-.33.991a2.683,2.683,0,0,0-.1.952l-.155.427a1.624,1.624,0,0,1-.427.369q-.233.136-.466.253a.675.675,0,0,1-.214.136q-.136.058-.214.1l-.117.427-.466.078q-.427.078-.6.117a1.9,1.9,0,0,1-.408.039l-.389-.039q-.427-.35-.661-.563a3.722,3.722,0,0,0-.544-.408,1.942,1.942,0,0,1-.389-.7q-.039-.233-.078-.427a2.1,2.1,0,0,1-.1-.389.388.388,0,0,0-.1-.233l-.505-.466.427-.35.039-.661q.777-1.982,1.651-3.808t1.807-3.73q.311-.622.6-1.243t.6-1.243a.861.861,0,0,1-.039-.272.954.954,0,0,1,.078-.35q.427-.661.7-1.185t.544-1.069q.311-.661.641-1.282a9.345,9.345,0,0,1,.835-1.282l.622-.272q.117-.039.272-.1a.99.99,0,0,1,.35-.058l.583.078a5.817,5.817,0,0,0,1.9-1.418,19.715,19.715,0,0,0,1.671-2.2l.389-.544.505.311a2.258,2.258,0,0,0,.544.214q.35.1.738.214.7.155,1.321.35a2.419,2.419,0,0,1,1.01.583,4.6,4.6,0,0,1,.272.933,5.241,5.241,0,0,0,.117.622q.117.661.214,1.321t.136,1.477q.194.661.33,1.3t.253,1.3q.194.933.389,1.807a10.672,10.672,0,0,0,.505,1.651,1.136,1.136,0,0,1,.389.039A2.115,2.115,0,0,1-414-73.49q.214-.039.486-.078l.427-.039.155.389q.039.194.389.389a1.429,1.429,0,0,1,.738.214,3.98,3.98,0,0,1,.427.369,1.218,1.218,0,0,0,.311.233l.583.233-.311.583a5.206,5.206,0,0,1-1.107,1.341,6.845,6.845,0,0,1-1.613,1.069q.039.233.058.447a1.982,1.982,0,0,0,.1.447q.117.661.194,1.36a6.666,6.666,0,0,1,0,1.438Zm-11.229-6.722q1.166-.078,2.118-.175t2.118-.33q-.272-1.166-.583-2.429t-.661-2.506l-.233.389a16.582,16.582,0,0,0-1.5,1.826,21.914,21.914,0,0,0-1.224,1.9l-.466.7q-.233.35-.427.7a2.721,2.721,0,0,1,.447-.039A2.077,2.077,0,0,0-424.474-71.664Zm47.677-.505q-.039.194-.078.33t-.078.253a.933.933,0,0,0-.039.291v.447a11.707,11.707,0,0,1-2.934,3.458,22.772,22.772,0,0,1-3.886,2.467,46.8,46.8,0,0,1-4.41,1.943q-2.293.874-4.468,1.885a2.73,2.73,0,0,1-1.418-.777,3.731,3.731,0,0,1-.738-1.263,7.2,7.2,0,0,1-.35-1.593q-.1-.874-.175-1.807a2.17,2.17,0,0,1,.33-.719,1.4,1.4,0,0,0,.214-.835q.311-1.01.622-1.982a8.66,8.66,0,0,0,.389-1.982.7.7,0,0,1,.427-.427,19.471,19.471,0,0,0,.019-3.788,20.148,20.148,0,0,0-.641-3.594,2.859,2.859,0,0,1,.1-.563q.058-.175-.019-.253-.039-.311.214-.311h.525a3.367,3.367,0,0,0-.214-1.166q-.214-.583-.408-1.321a4.006,4.006,0,0,0,.35-1.146,2.442,2.442,0,0,1,.35-.991A29.525,29.525,0,0,1-389.1-84.02a17.819,17.819,0,0,0,3.788,1.36q1.4,1.01,2.875,2a18.536,18.536,0,0,1,2.681,2.176,11.238,11.238,0,0,1,2.021,2.7A8.543,8.543,0,0,1-376.8-72.169Zm-9.209,2.137q.816-.311,1.613-.661a10.008,10.008,0,0,0,1.477-.8,6.7,6.7,0,0,0,1.224-1.03,4.8,4.8,0,0,0,.894-1.4,2.991,2.991,0,0,0-.622-.835q-.389-.369-.777-.7t-.758-.68a2.748,2.748,0,0,1-.6-.855,2.688,2.688,0,0,1-.894-.291q-.389-.214-.758-.427t-.777-.408a2.637,2.637,0,0,0-.952-.233,9.081,9.081,0,0,0-1.535-.622,2.631,2.631,0,0,1-1.03-.505.7.7,0,0,0-.427.117,26.107,26.107,0,0,1,.583,2.778,19.6,19.6,0,0,1,.214,2.6,20.707,20.707,0,0,1-.136,2.662q-.155,1.36-.427,2.953a2.542,2.542,0,0,0,.719-.175q.33-.136.661-.291t.7-.291a3.262,3.262,0,0,1,.874-.175,1.061,1.061,0,0,1,.33-.389A3.433,3.433,0,0,0-386.006-70.032Zm31.513-13.522a1.573,1.573,0,0,1,.019.408q-.019.136-.039.253a1.537,1.537,0,0,0-.019.253,1.648,1.648,0,0,0,.078.408,4.455,4.455,0,0,1-1.885,1.807,9.417,9.417,0,0,1-2.312.7q-1.243.214-2.545.447a7.548,7.548,0,0,0-2.584,1.01,1.119,1.119,0,0,0-.913,0,2.3,2.3,0,0,1-1.185.117,1.3,1.3,0,0,1-.583.33q-.35.1-.7.214a1.547,1.547,0,0,1,.136.719,1.2,1.2,0,0,0,.1.6,16.9,16.9,0,0,0,3.011-.039q1.651-.155,3.245-.194.039.194-.039.253t-.039.214a3.673,3.673,0,0,1,.544.486q.272.291.544.563a2.94,2.94,0,0,0,.563.447,1.079,1.079,0,0,0,.68.136,2.318,2.318,0,0,1,.214.68,1.418,1.418,0,0,1-.1.758q-.622.427-1.243.874a10.29,10.29,0,0,1-1.3.8,7.711,7.711,0,0,1-1.438.563,5.386,5.386,0,0,1-1.69.175h-.291a.47.47,0,0,1-.253-.117,1.3,1.3,0,0,1-.874.117,1.3,1.3,0,0,0-.874.117,2.293,2.293,0,0,0-1.03-.175,3.059,3.059,0,0,1-1.069-.136,13.446,13.446,0,0,0-1.127,1.749,15.344,15.344,0,0,0-.894,1.982,11.941,11.941,0,0,0,2.2.155q.874-.039,1.651-.136t1.593-.194a14.2,14.2,0,0,1,2.059-.058,5.151,5.151,0,0,1,1.846-.563,9.69,9.69,0,0,0,1.962-.447,1.262,1.262,0,0,1,.544.408q.233.291.447.544a3.639,3.639,0,0,0,.447.447.743.743,0,0,0,.583.155.817.817,0,0,1,.214.369q.058.214.1.408a.846.846,0,0,0,.136.33.31.31,0,0,0,.33.1,5.853,5.853,0,0,1-1.341,1.962,5.2,5.2,0,0,1-1.729,1.03,12.192,12.192,0,0,1-2.157.544q-1.185.194-2.623.466a.966.966,0,0,1-.583-.019,1.407,1.407,0,0,0-.544-.1q-.894.194-2.137.35a16.343,16.343,0,0,1-2.526.117,11.5,11.5,0,0,1-2.448-.33,4,4,0,0,1-1.9-1.03,1.271,1.271,0,0,1-.408-.641.863.863,0,0,0-.525-.563,10.569,10.569,0,0,0-.155-1.127q-.117-.622-.233-1.3t-.175-1.341a4.049,4.049,0,0,1,.058-1.2,2.437,2.437,0,0,1,.486-1.049,1.167,1.167,0,0,0,.253-1.01.269.269,0,0,0,.233-.214q.039-.175.311-.136.233-.7.505-1.321t.563-1.2q.291-.583.583-1.185t.563-1.341a3.205,3.205,0,0,1-.8-1.107,6.116,6.116,0,0,1-.369-1.2q-.117-.6-.194-1.243a8.042,8.042,0,0,0-.272-1.3,3.332,3.332,0,0,1,.952-.952,5.662,5.662,0,0,1,1.224-.6,10.521,10.521,0,0,1,1.438-.389q.777-.155,1.632-.35,1.554-.505,2.778-.777t2.409-.447q1.185-.175,2.467-.33t2.914-.466a.981.981,0,0,0,.661.35q.155-.35.369-.214t.175-.214a3.7,3.7,0,0,0,.991,1.107A6.419,6.419,0,0,0-354.494-83.554Zm-.311,4.391a3.421,3.421,0,0,1,.874-1.4,6.525,6.525,0,0,1,1.321-.991,9.145,9.145,0,0,1,1.5-.68q.777-.272,1.477-.466,1.554-.661,3.322-1.263t3.614-1.069a21.592,21.592,0,0,1,3.789-.6,11.65,11.65,0,0,1,4.08.486,2.751,2.751,0,0,0,.35.738q.233.35.486.7t.447.68a1.7,1.7,0,0,1,.233.68,3.074,3.074,0,0,1,.622.758,1.451,1.451,0,0,1,.078,1.069q-.389.311-.758.563a5.266,5.266,0,0,1-.8.447,9.192,9.192,0,0,0-2.914-.233q-1.477.117-2.642.194a1.14,1.14,0,0,0-.835-.35,3.552,3.552,0,0,0-1.01.155l-1.049.311a2.193,2.193,0,0,1-.991.078,2.052,2.052,0,0,1-.952.408q-.563.1-1.224.175-.039.194.078.253t.039.253a1.282,1.282,0,0,0,.6.389q.369.117.777.233a3.328,3.328,0,0,1,.719.291.915.915,0,0,1,.427.563,1.841,1.841,0,0,1,1.01.272,2.44,2.44,0,0,1,.7.661,2.943,2.943,0,0,1,.408.835,2.774,2.774,0,0,1,.136.8q.117.311.272.272t.35.155a2.4,2.4,0,0,0,.583,1.03,4.33,4.33,0,0,1,.738,1.146q.078.971.117,1.729a3.6,3.6,0,0,1-.272,1.535,8.507,8.507,0,0,1-1.613,2.565,12.843,12.843,0,0,1-2.331,2,16.345,16.345,0,0,1-2.778,1.5,30.056,30.056,0,0,1-2.875,1.049.631.631,0,0,0-.311,0q-.155.039-.078-.194a1.49,1.49,0,0,1-.68.35,3.163,3.163,0,0,1-.8.058q-.427-.019-.874-.058a2.947,2.947,0,0,0-.835.039q-.272-.272-.486-.525a1.763,1.763,0,0,1-.33-.641q-.194,0-.175-.194t-.136-.194q.233-.389.214-.447a.182.182,0,0,0-.117-.1.76.76,0,0,1-.175-.1.142.142,0,0,1-.039-.175,1.3,1.3,0,0,0,.117-.719q-.039-.408-.078-.835a2.434,2.434,0,0,1,.058-.816.973.973,0,0,1,.563-.622,7.664,7.664,0,0,0,2.506-.1,11.266,11.266,0,0,0,2.234-.719,22.216,22.216,0,0,0,2-1.01q.952-.544,1.885-.971a1.6,1.6,0,0,1,.33-.583,4.609,4.609,0,0,1,.447-.427,3.331,3.331,0,0,0,.427-.427,1.352,1.352,0,0,0,.272-.583q.039-.272-.136-.33a.269.269,0,0,1-.175-.291l-.427-.117a8.217,8.217,0,0,0-1.671-.719,9.451,9.451,0,0,1-1.593-.641,1,1,0,0,1-.8.117,9.348,9.348,0,0,0-.952-.233q-1.321-.078-2.545-.272a9.277,9.277,0,0,1-2.351-.7,1.521,1.521,0,0,0-.194-.35q-.117-.155-.427-.078-.233-.311-.466-.6a4.6,4.6,0,0,1-.427-.641q.078-.466.117-.8a.813.813,0,0,0-.233-.641q.155-.505.233-.816A2.131,2.131,0,0,0-354.8-79.163Zm36.991,6.994q-.039.194-.078.33t-.078.253a.933.933,0,0,0-.039.291v.447a11.707,11.707,0,0,1-2.934,3.458,22.774,22.774,0,0,1-3.886,2.467,46.8,46.8,0,0,1-4.41,1.943q-2.293.874-4.468,1.885a2.73,2.73,0,0,1-1.418-.777,3.731,3.731,0,0,1-.738-1.263,7.2,7.2,0,0,1-.35-1.593q-.1-.874-.175-1.807a2.17,2.17,0,0,1,.33-.719,1.4,1.4,0,0,0,.214-.835q.311-1.01.622-1.982a8.658,8.658,0,0,0,.389-1.982.7.7,0,0,1,.427-.427,19.471,19.471,0,0,0,.019-3.788,20.148,20.148,0,0,0-.641-3.594,2.859,2.859,0,0,1,.1-.563q.058-.175-.019-.253-.039-.311.214-.311h.525a3.367,3.367,0,0,0-.214-1.166q-.214-.583-.408-1.321a4,4,0,0,0,.35-1.146,2.442,2.442,0,0,1,.35-.991,29.525,29.525,0,0,1,4.022,1.593,17.819,17.819,0,0,0,3.788,1.36q1.4,1.01,2.875,2a18.538,18.538,0,0,1,2.681,2.176,11.238,11.238,0,0,1,2.021,2.7A8.543,8.543,0,0,1-317.813-72.169Zm-9.209,2.137q.816-.311,1.613-.661a10.007,10.007,0,0,0,1.477-.8,6.7,6.7,0,0,0,1.224-1.03,4.8,4.8,0,0,0,.894-1.4,2.991,2.991,0,0,0-.622-.835q-.389-.369-.777-.7t-.758-.68a2.748,2.748,0,0,1-.6-.855,2.687,2.687,0,0,1-.894-.291q-.389-.214-.758-.427t-.777-.408a2.637,2.637,0,0,0-.952-.233,9.081,9.081,0,0,0-1.535-.622,2.631,2.631,0,0,1-1.03-.505.7.7,0,0,0-.427.117,26.107,26.107,0,0,1,.583,2.778,19.6,19.6,0,0,1,.214,2.6,20.707,20.707,0,0,1-.136,2.662q-.155,1.36-.427,2.953a2.543,2.543,0,0,0,.719-.175q.33-.136.661-.291t.7-.291a3.262,3.262,0,0,1,.874-.175,1.061,1.061,0,0,1,.33-.389A3.433,3.433,0,0,0-327.022-70.032Zm31.513-13.522a1.573,1.573,0,0,1,.019.408q-.019.136-.039.253a1.54,1.54,0,0,0-.019.253,1.647,1.647,0,0,0,.078.408,4.455,4.455,0,0,1-1.885,1.807,9.417,9.417,0,0,1-2.312.7q-1.243.214-2.545.447a7.548,7.548,0,0,0-2.584,1.01,1.119,1.119,0,0,0-.913,0,2.3,2.3,0,0,1-1.185.117,1.3,1.3,0,0,1-.583.33q-.35.1-.7.214a1.548,1.548,0,0,1,.136.719,1.2,1.2,0,0,0,.1.6,16.9,16.9,0,0,0,3.011-.039q1.651-.155,3.245-.194.039.194-.039.253t-.039.214a3.672,3.672,0,0,1,.544.486q.272.291.544.563a2.939,2.939,0,0,0,.563.447,1.079,1.079,0,0,0,.68.136,2.319,2.319,0,0,1,.214.68,1.417,1.417,0,0,1-.1.758q-.622.427-1.243.874a10.292,10.292,0,0,1-1.3.8,7.712,7.712,0,0,1-1.438.563,5.386,5.386,0,0,1-1.69.175h-.291a.47.47,0,0,1-.253-.117,1.3,1.3,0,0,1-.874.117,1.3,1.3,0,0,0-.874.117,2.294,2.294,0,0,0-1.03-.175,3.059,3.059,0,0,1-1.069-.136,13.449,13.449,0,0,0-1.127,1.749,15.344,15.344,0,0,0-.894,1.982,11.941,11.941,0,0,0,2.2.155q.874-.039,1.651-.136t1.593-.194a14.2,14.2,0,0,1,2.059-.058,5.151,5.151,0,0,1,1.846-.563,9.69,9.69,0,0,0,1.962-.447,1.262,1.262,0,0,1,.544.408q.233.291.447.544a3.637,3.637,0,0,0,.447.447.743.743,0,0,0,.583.155.818.818,0,0,1,.214.369q.058.214.1.408a.846.846,0,0,0,.136.33.31.31,0,0,0,.33.1,5.853,5.853,0,0,1-1.341,1.962,5.2,5.2,0,0,1-1.729,1.03,12.193,12.193,0,0,1-2.157.544q-1.185.194-2.623.466a.966.966,0,0,1-.583-.019,1.407,1.407,0,0,0-.544-.1q-.894.194-2.137.35a16.344,16.344,0,0,1-2.526.117,11.5,11.5,0,0,1-2.448-.33,4,4,0,0,1-1.9-1.03,1.271,1.271,0,0,1-.408-.641.863.863,0,0,0-.525-.563,10.569,10.569,0,0,0-.155-1.127q-.117-.622-.233-1.3t-.175-1.341a4.048,4.048,0,0,1,.058-1.2,2.438,2.438,0,0,1,.486-1.049,1.167,1.167,0,0,0,.253-1.01.269.269,0,0,0,.233-.214q.039-.175.311-.136.233-.7.505-1.321t.563-1.2q.291-.583.583-1.185t.563-1.341a3.205,3.205,0,0,1-.8-1.107,6.116,6.116,0,0,1-.369-1.2q-.117-.6-.194-1.243a8.042,8.042,0,0,0-.272-1.3,3.332,3.332,0,0,1,.952-.952,5.663,5.663,0,0,1,1.224-.6,10.522,10.522,0,0,1,1.438-.389q.777-.155,1.632-.35,1.554-.505,2.778-.777t2.409-.447q1.185-.175,2.467-.33t2.914-.466a.981.981,0,0,0,.661.35q.155-.35.369-.214t.175-.214a3.7,3.7,0,0,0,.991,1.107A6.42,6.42,0,0,0-295.51-83.554Zm20.749-6.256a3.923,3.923,0,0,0,1.107,1.379q.68.525,1.341,1.069a9.028,9.028,0,0,1,1.01,3.381q.194,1.865.427,4.08a22.959,22.959,0,0,1-.233,3.361q-.233,1.574-.6,3.07t-.835,2.973q-.466,1.477-.894,3.109a3.879,3.879,0,0,0-.835,1.651,4.2,4.2,0,0,0-.058,2.079q-.505.622-1.01,1.2a8.98,8.98,0,0,1-1.127,1.088.885.885,0,0,0-.6-.253,7.392,7.392,0,0,0-.758,0,5.82,5.82,0,0,0-.719.078,1.279,1.279,0,0,1-.486.019,4.309,4.309,0,0,0-.525-.661,5.211,5.211,0,0,1-.583-.738,3.826,3.826,0,0,1-.389-.758.828.828,0,0,1,.058-.719q0-.427-.466-.427a17.964,17.964,0,0,1,.583-3.517q.466-1.729,1.049-3.381t1.146-3.283a22.033,22.033,0,0,0,.855-3.225,11.972,11.972,0,0,0,.155-3.186,9.332,9.332,0,0,0-.913-3.225q0-.544-.019-.913t-.039-.661q-.019-.291-.058-.563a2.8,2.8,0,0,0-.155-.583,7.691,7.691,0,0,0,.291-1.01,1.721,1.721,0,0,0-.019-.855,1.071,1.071,0,0,1,.155-.447,3.2,3.2,0,0,1,.272-.35q.155-.175.291-.35a.928.928,0,0,0,.175-.447h.855q.427.35.738.641A1.49,1.49,0,0,0-274.76-89.81Zm25.645,5.051a1.506,1.506,0,0,0,0,.68q.078.33.155.622t.155.622a1.989,1.989,0,0,1,.039.68,2.679,2.679,0,0,0,.408.7q.253.311.466.6a2.786,2.786,0,0,1,.35.641,1.947,1.947,0,0,1,.1.855,4.861,4.861,0,0,0-.544.8,3.031,3.031,0,0,1-.466.661,3.506,3.506,0,0,1-.622.525,4.06,4.06,0,0,0-.622.505,11.391,11.391,0,0,1-.6,1.457,11.388,11.388,0,0,0-.6,1.457,17.453,17.453,0,0,1-.233,1.846q-.155.835-.35,1.632t-.389,1.613q-.194.816-.35,1.749a10.5,10.5,0,0,1-.525,3.089,11.348,11.348,0,0,1-1.379,2.778,4.517,4.517,0,0,0-1.263.019q-.563.1-1.263.214a7.361,7.361,0,0,1-.544-.6,2.991,2.991,0,0,0-.544-.525q.039-1.943.214-3.517t.466-3.089q.291-1.515.68-3.128t.816-3.633a6.237,6.237,0,0,0-1.263.058q-.719.1-1.515.233t-1.593.311q-.8.175-1.5.291-.427-.039-.874-.039t-.835-.039a2.542,2.542,0,0,1-.719-.175,1.334,1.334,0,0,1-.563-.447,1.493,1.493,0,0,1-1.049-.058,2.3,2.3,0,0,1-.738-.583,3.649,3.649,0,0,1-.525-.835,8.742,8.742,0,0,0-.447-.855,9.413,9.413,0,0,1-.1-2.293,8.2,8.2,0,0,1,.389-1.865,9.9,9.9,0,0,1,.738-1.651q.447-.8.913-1.651,1.01-1.01,2.234-2.059a16.884,16.884,0,0,1,2.662-1.865,13.968,13.968,0,0,1,3.07-1.282,9.705,9.705,0,0,1,3.5-.311,10.66,10.66,0,0,1,2.6,2.681Q-250.125-86.391-249.115-84.759Zm-5.129,2.021a1.082,1.082,0,0,0-.389-1.03,2.737,2.737,0,0,0-1.049-.408q-.971.389-1.885.758a4.675,4.675,0,0,0-1.574,1.03.58.58,0,0,1-.291.155,2.458,2.458,0,0,0-.33.1.418.418,0,0,0-.233.214.6.6,0,0,0,0,.427,8.564,8.564,0,0,0,2.992-.35Q-255.643-82.272-254.244-82.738Zm26.189-2.021a1.507,1.507,0,0,0,0,.68q.078.33.155.622t.155.622a1.989,1.989,0,0,1,.039.68,2.679,2.679,0,0,0,.408.7q.253.311.466.6a2.785,2.785,0,0,1,.35.641,1.947,1.947,0,0,1,.1.855,4.86,4.86,0,0,0-.544.8,3.03,3.03,0,0,1-.466.661,3.506,3.506,0,0,1-.622.525,4.06,4.06,0,0,0-.622.505,11.388,11.388,0,0,1-.6,1.457,11.388,11.388,0,0,0-.6,1.457,17.461,17.461,0,0,1-.233,1.846q-.155.835-.35,1.632t-.389,1.613q-.194.816-.35,1.749a10.5,10.5,0,0,1-.525,3.089,11.348,11.348,0,0,1-1.379,2.778,4.517,4.517,0,0,0-1.263.019q-.563.1-1.263.214a7.367,7.367,0,0,1-.544-.6,2.989,2.989,0,0,0-.544-.525q.039-1.943.214-3.517T-236-68.75q.291-1.515.68-3.128t.816-3.633a6.237,6.237,0,0,0-1.263.058q-.719.1-1.515.233t-1.593.311q-.8.175-1.5.291-.427-.039-.874-.039t-.835-.039a2.542,2.542,0,0,1-.719-.175,1.334,1.334,0,0,1-.563-.447,1.493,1.493,0,0,1-1.049-.058,2.3,2.3,0,0,1-.738-.583,3.649,3.649,0,0,1-.525-.835,8.739,8.739,0,0,0-.447-.855,9.413,9.413,0,0,1-.1-2.293,8.2,8.2,0,0,1,.389-1.865,9.9,9.9,0,0,1,.738-1.651q.447-.8.913-1.651,1.01-1.01,2.234-2.059a16.882,16.882,0,0,1,2.662-1.865,13.967,13.967,0,0,1,3.07-1.282,9.705,9.705,0,0,1,3.5-.311,10.66,10.66,0,0,1,2.6,2.681Q-229.065-86.391-228.055-84.759Zm-5.129,2.021a1.082,1.082,0,0,0-.389-1.03,2.737,2.737,0,0,0-1.049-.408q-.971.389-1.885.758a4.675,4.675,0,0,0-1.574,1.03.58.58,0,0,1-.291.155,2.458,2.458,0,0,0-.33.1.418.418,0,0,0-.233.214.6.6,0,0,0,0,.427,8.564,8.564,0,0,0,2.992-.35Q-234.583-82.272-233.184-82.738Zm23.858,9.248a1.921,1.921,0,0,1,.622.583,6.354,6.354,0,0,0,.505.661,12.515,12.515,0,0,0,.136,1.71,6.248,6.248,0,0,1-.019,1.9,19.263,19.263,0,0,1-1.71,2.331,7.492,7.492,0,0,1-2.293,1.787q-.194.039-.117.291t-.117.33a.592.592,0,0,0-.466.175q-.155.175-.427-.058a7.423,7.423,0,0,1-.894.486,3.267,3.267,0,0,0-.816.525,1.611,1.611,0,0,0-.622.039q-.272.078-.544.175t-.544.175a.971.971,0,0,1-.544,0,13.84,13.84,0,0,1-2.759,1.01,7.884,7.884,0,0,1-3.225.117,4.438,4.438,0,0,1-2.021-.855,4.828,4.828,0,0,1-1.36-1.651,6.164,6.164,0,0,1-.622-2.254,7.657,7.657,0,0,1,.233-2.623.678.678,0,0,1-.1-.311q-.019-.194-.019-.389v-.389a.3.3,0,0,0-.117-.272,6.6,6.6,0,0,0,.408-.8,1.277,1.277,0,0,0-.019-.952.357.357,0,0,0,.272-.214,2.506,2.506,0,0,0,.136-.408q.058-.233.117-.427a.589.589,0,0,1,.214-.311,8.146,8.146,0,0,1,.389-1.982,16.921,16.921,0,0,1,.719-1.807q.408-.874.874-1.729t.894-1.749q-.155-.311-.1-.408a1.349,1.349,0,0,0,.1-.447q.583-.971,1.166-2.079t1.243-2.215q.661-1.107,1.4-2.137a9.679,9.679,0,0,1,1.671-1.807,5.03,5.03,0,0,0,1.2-.389,10.933,10.933,0,0,1,1.166-.466,5.373,5.373,0,0,1,1.185-.253,2.59,2.59,0,0,1,1.3.253,1.682,1.682,0,0,1,.058.505.71.71,0,0,0,.058.35,1.259,1.259,0,0,1,.719,1.01q.1.7.175,1.36a1.338,1.338,0,0,1,.661.7,5.567,5.567,0,0,1,.311,1.049q-.466.466-.874.894a6.209,6.209,0,0,1-.835.738.833.833,0,0,1-.427.058,1.15,1.15,0,0,1-.35-.058,6.886,6.886,0,0,0-2.04,1.341,9.3,9.3,0,0,0-1.515,1.885,13.513,13.513,0,0,0-1.088,2.215,18.606,18.606,0,0,0-.719,2.293,17.737,17.737,0,0,0-1.826,3.458,25.3,25.3,0,0,0-1.166,4q.039.311.33.272a2.052,2.052,0,0,1,.563,0,4.982,4.982,0,0,0,.6-1.554,9.528,9.528,0,0,0,.136-1.71,13.124,13.124,0,0,1,.933-1.4,11.426,11.426,0,0,0,.933-1.438q.622-.466,1.166-.816a9.1,9.1,0,0,1,1.088-.6,11.3,11.3,0,0,1,1.185-.466,10.723,10.723,0,0,1,1.535-.369,4.833,4.833,0,0,1,1.613.389,4.1,4.1,0,0,1,1.146.758,3.714,3.714,0,0,1,.738.971A4.592,4.592,0,0,1-209.326-73.49Z" transform="translate(577.345 90.82)"/></g></svg>