<svg xmlns="http://www.w3.org/2000/svg" xmlns:xlink="http://www.w3.org/1999/xlink" width="258.69" height="58" viewBox="0 0 258.69 58"><defs><style>.a{clip-path:url(#b);}.b,.c{fill:#020202;}.c{stroke:rgba(0,0,0,0);stroke-miterlimit:10;}</style><clipPath id="b"><rect width="258.69" height="58"/></clipPath></defs><g id="a" class="a"><path class="b" d="M-105.783.48a2.827,2.827,0,0,1-.9-.921,6.173,6.173,0,0,1-.561-1.2,10.389,10.389,0,0,1-.36-1.341q-.14-.7-.3-1.341a1.183,1.183,0,0,1,.24-.821,6.185,6.185,0,0,1,.521-.5,15.177,15.177,0,0,0,1.722-.16q.761-.12,1.481-.24t1.441-.22a11.378,11.378,0,0,1,1.562-.1q.6-1.241,1.121-2.382t1-2.182a10.881,10.881,0,0,1,.621-1.862q.38-.861.741-1.642T-96.814-16a6.69,6.69,0,0,0,.36-1.662q.48-1.4.861-2.583a15.377,15.377,0,0,0,.581-2.823q-1.521.24-2.442.46a6.72,6.72,0,0,0-1.321.42,2.686,2.686,0,0,1-1.261-.32,2.43,2.43,0,0,1-.741-.681,4.273,4.273,0,0,1-.48-.921q-.2-.521-.48-1.081a2.121,2.121,0,0,0,.08-1.061,1.455,1.455,0,0,0-.48-1.021.739.739,0,0,0,.48-.541.931.931,0,0,0,.04-.7,7.068,7.068,0,0,1,1.441-.26l1.5-.12q.741-.06,1.421-.16a2.8,2.8,0,0,0,1.161-.42q2.082-.08,4.344-.16t4.184-.2a5.252,5.252,0,0,0,1.662.24,14.846,14.846,0,0,1,1.882.12,4.776,4.776,0,0,1,1.682.521,2.154,2.154,0,0,1,1.021,1.4,1.824,1.824,0,0,1,.9.32,1.037,1.037,0,0,1,.38.581,2.752,2.752,0,0,1,.06.761q-.02.42-.02.821a5.243,5.243,0,0,1-1.622.781,15.386,15.386,0,0,1-2.142.48,22.9,22.9,0,0,1-2.422.24q-1.261.06-2.462.1a26.273,26.273,0,0,1-.7,3.1q-.5,1.782-1.021,3.483t-.9,3.043a6.274,6.274,0,0,0-.34,1.742q-.4.921-.661,1.562t-.48,1.2q-.22.561-.44,1.1t-.541,1.221h2.723a.809.809,0,0,0,.36.6,4.133,4.133,0,0,0,.6.28,2.648,2.648,0,0,1,.581.3.656.656,0,0,1,.26.581,1.4,1.4,0,0,1,.961.6,1.268,1.268,0,0,1,.1.861,2.98,2.98,0,0,1-.4.941A10.059,10.059,0,0,1-89.127-2a.772.772,0,0,0-.681.18,4.922,4.922,0,0,0-.6.581,9.354,9.354,0,0,0-2.282-.04q-1.121.12-2.082.2-.2.04-.16.22a.225.225,0,0,1-.08.26,6.842,6.842,0,0,0-2.542-.32,16.814,16.814,0,0,0-2.643.38q-1.341.3-2.743.641A13.614,13.614,0,0,1-105.783.48Zm28.668-7.768a.723.723,0,0,0-.521.42q-.16.34-.3.7t-.28.661a.449.449,0,0,1-.42.3,1.155,1.155,0,0,1-.22.561q-.18.24-.34.5a2.092,2.092,0,0,0-.24.561,1.114,1.114,0,0,0,.08.7,1.048,1.048,0,0,0-.4.681q-.08.44-.18.841a1.638,1.638,0,0,1-.34.681,1.033,1.033,0,0,1-.881.24q-.12.16-.04.2t.12.28A.93.93,0,0,0-81.74.1a1.294,1.294,0,0,1-.541.18,2.642,2.642,0,0,1-1.261-.841A7.281,7.281,0,0,1-84.422-1.9q-.38-.741-.681-1.5t-.581-1.321a1.89,1.89,0,0,0,.04-.861,1.756,1.756,0,0,0-.28-.7q1.962-4.164,4.284-8.889t4.4-9.329q.921.36,1.822.821a9.359,9.359,0,0,1,1.642,1.061,6.193,6.193,0,0,1,1.261,1.381A4.408,4.408,0,0,1-71.83-19.5q-.08.24-.18.18t-.18.06a.982.982,0,0,1,.18.28.325.325,0,0,1,0,.16.95.95,0,0,0-.02.22.928.928,0,0,0,.12.38q-.16-.04-.22.04t-.26,0a1.353,1.353,0,0,1,.1.721,1.848,1.848,0,0,1-.18.5,2.593,2.593,0,0,0-.2.48,1.154,1.154,0,0,0,.04.661.245.245,0,0,0-.18.06.8.8,0,0,0-.1.12.8.8,0,0,1-.1.12.166.166,0,0,1-.18.02,9.739,9.739,0,0,1,.08,1.762q-.04.881-.06,1.782t.02,1.882a10.982,10.982,0,0,0,.28,2.022,6.763,6.763,0,0,0,2.3-2.162,12.64,12.64,0,0,0,1.4-2.963,21.276,21.276,0,0,0,.821-3.523q.28-1.882.6-3.844a2.491,2.491,0,0,0,.561-.881q.2-.521.36-1.1l.32-1.161a5.841,5.841,0,0,1,.4-1.061,2.234,2.234,0,0,1,1.021.38,7.394,7.394,0,0,1,.781.641,8.773,8.773,0,0,0,.761.641,2.1,2.1,0,0,0,1,.38q.48.681.881,1.321a3.693,3.693,0,0,1,.521,1.361,2.488,2.488,0,0,0-.3.721q-.1.4-.22.8a3.357,3.357,0,0,1-.32.741,1.785,1.785,0,0,1-.561.581q-.12,1.041-.3,1.9t-.36,1.7q-.18.841-.3,1.742a11.757,11.757,0,0,0-.08,1.982q-.32.921-.681,1.962t-.561,1.882a3.74,3.74,0,0,0-1,1.241q-.36.721-.761,1.441-.16.16-.2.08t-.28-.12a.361.361,0,0,1,0,.24.534.534,0,0,1-.1.14.323.323,0,0,0-.08.18.632.632,0,0,0,.06.32,3.172,3.172,0,0,0-1,.681,7.652,7.652,0,0,1-.941.8,2.847,2.847,0,0,1-1.2.48A3.761,3.761,0,0,1-72.15-.8a15.41,15.41,0,0,1-2.9-2.763A13.128,13.128,0,0,1-77.115-7.287Zm15.575-10.73a3.525,3.525,0,0,1,.9-1.441,6.723,6.723,0,0,1,1.361-1.021,9.424,9.424,0,0,1,1.542-.7q.8-.28,1.521-.48,1.6-.681,3.423-1.3t3.724-1.1a22.248,22.248,0,0,1,3.9-.621,12,12,0,0,1,4.2.5,2.834,2.834,0,0,0,.36.761q.24.36.5.721t.46.7a1.755,1.755,0,0,1,.24.7,3.168,3.168,0,0,1,.641.781,1.5,1.5,0,0,1,.08,1.1q-.4.32-.781.581a5.426,5.426,0,0,1-.821.46,9.472,9.472,0,0,0-3-.24q-1.521.12-2.723.2a1.175,1.175,0,0,0-.861-.36,3.66,3.66,0,0,0-1.041.16l-1.081.32a2.26,2.26,0,0,1-1.021.08,2.115,2.115,0,0,1-.981.42q-.581.1-1.261.18-.04.2.08.26t.04.26a1.321,1.321,0,0,0,.621.4q.38.12.8.24a3.43,3.43,0,0,1,.741.3.943.943,0,0,1,.44.581,1.9,1.9,0,0,1,1.041.28,2.514,2.514,0,0,1,.721.681,3.033,3.033,0,0,1,.42.861,2.858,2.858,0,0,1,.14.821q.12.32.28.28t.36.16a2.47,2.47,0,0,0,.6,1.061A4.463,4.463,0,0,1-45.2-10.25q.08,1,.12,1.782a3.713,3.713,0,0,1-.28,1.582,8.765,8.765,0,0,1-1.662,2.643,13.234,13.234,0,0,1-2.4,2.062A16.843,16.843,0,0,1-52.291-.641,30.97,30.97,0,0,1-55.254.44a.651.651,0,0,0-.32,0q-.16.04-.08-.2a1.535,1.535,0,0,1-.7.36,3.259,3.259,0,0,1-.821.06q-.44-.02-.9-.06a3.037,3.037,0,0,0-.861.04q-.28-.28-.5-.541a1.817,1.817,0,0,1-.34-.661q-.2,0-.18-.2t-.14-.2q.24-.4.22-.46a.188.188,0,0,0-.12-.1.783.783,0,0,1-.18-.1.146.146,0,0,1-.04-.18,1.342,1.342,0,0,0,.12-.741q-.04-.42-.08-.861a2.508,2.508,0,0,1,.06-.841,1,1,0,0,1,.581-.641,7.9,7.9,0,0,0,2.583-.1,11.609,11.609,0,0,0,2.3-.741,22.892,22.892,0,0,0,2.062-1.041q.981-.561,1.942-1a1.644,1.644,0,0,1,.34-.6,4.751,4.751,0,0,1,.46-.44,3.433,3.433,0,0,0,.44-.44,1.393,1.393,0,0,0,.28-.6q.04-.28-.14-.34a.277.277,0,0,1-.18-.3l-.44-.12a8.467,8.467,0,0,0-1.722-.741,9.74,9.74,0,0,1-1.642-.661,1.029,1.029,0,0,1-.821.12,9.634,9.634,0,0,0-.981-.24q-1.361-.08-2.623-.28a9.559,9.559,0,0,1-2.422-.721,1.567,1.567,0,0,0-.2-.36q-.12-.16-.44-.08-.24-.32-.48-.621a4.738,4.738,0,0,1-.44-.661q.08-.48.12-.821a.838.838,0,0,0-.24-.661q.16-.521.24-.841A2.2,2.2,0,0,0-61.54-18.018Zm41.16-1.241a18.116,18.116,0,0,0-2.162.14q-1.161.14-2.282.3-.8.12-1.542.2t-1.341.12q-.28.881-.561,1.562t-.6,1.321q-.32.681-.581,1.381t-.5,1.5a12.437,12.437,0,0,0-.661,1.181,5.955,5.955,0,0,0-.42,1.221,4.453,4.453,0,0,0-.721,1.261,11.8,11.8,0,0,0-.36,1.141l-.16.48a1.062,1.062,0,0,0-.28.38.512.512,0,0,1-.2.26,2.261,2.261,0,0,1-.28.881,2.474,2.474,0,0,0-.12.38,1.37,1.37,0,0,0-.04.26q0,.4-.2.521a1.113,1.113,0,0,1,0,.42q-.04.22-.08.42a2.091,2.091,0,0,0-.08.761q.12.16.22.28a.709.709,0,0,1,.14.32,1.756,1.756,0,0,0,.36.2,3.293,3.293,0,0,0,.48.28l.36.4A2.19,2.19,0,0,1-32.352.16a2.454,2.454,0,0,1-2.042.761h-.48a.972.972,0,0,1-.24-.32q-.32-.12-.521-.2A.808.808,0,0,1-36,.08q-.521-.24-.841-.4l-.36-.2V-1a2.556,2.556,0,0,1-.42-.8,7.081,7.081,0,0,1-.22-.881q-.08-.36-.18-.681a2.173,2.173,0,0,0-.26-.561,11.518,11.518,0,0,1,.44-3.924q.521-1.6,1.081-3.083.32-.8.641-1.622a16.931,16.931,0,0,0,.561-1.7l.36-.4q.28-.641.46-1.061t.38-.861q.12-.28.22-.541t.18-.46q-.24,0-.44.02t-.4.06q-.24.04-.44.06t-.4.02a1.4,1.4,0,0,1-.4-.04,2.3,2.3,0,0,1-.961.2h-.4a1.125,1.125,0,0,1-.22-.02.928.928,0,0,0-.18-.02,1.443,1.443,0,0,0-.641.12h-1.321a1.259,1.259,0,0,0-.2.02,1.258,1.258,0,0,1-.2.02,3.268,3.268,0,0,1-.6-.06,2.284,2.284,0,0,1-.681-.26q-.48-.641-.641-.681l-.36-.48a2.59,2.59,0,0,0-.12-.46q-.08-.22-.16-.5-.16-.4-.3-.861a3.808,3.808,0,0,1-.14-1.1,1.013,1.013,0,0,1,.16-.48q.12-.16.2-.28l.12-.6.521.04h1.121q1.281,0,2.6-.1t2.723-.22l1.622-.16q.821-.08,1.7-.16.16-.36.32-.681l.4-.2a1.624,1.624,0,0,1,1.021.18,4.341,4.341,0,0,1,.5.42q.881-.08,1.782-.18t1.822-.26q1.361-.2,2.743-.36a23.133,23.133,0,0,1,2.663-.16q.561,0,1.081.04a9.435,9.435,0,0,1,.961.12l.4.28a1.506,1.506,0,0,0,.34.44q.22.2.46.4a9.236,9.236,0,0,1,.961,1.041,2.364,2.364,0,0,1,.36,1.762,1.831,1.831,0,0,1-.48.561l-.36.48-.4-.04a1.528,1.528,0,0,0-.44.06q-.2.06-.4.14a3.334,3.334,0,0,1-.32.14,2.33,2.33,0,0,1-.36.1q-.36,0-.581-.02T-20.38-19.259Zm18.058,15.9a6.417,6.417,0,0,1-.7,1.381A6.023,6.023,0,0,1-4.1-.741a6.006,6.006,0,0,1-1.381.9,4.168,4.168,0,0,1-1.6.4,1.965,1.965,0,0,1-.7-.26,3.82,3.82,0,0,0-.38-.26q-.12-.08-.22-.14t-.18-.1l-.48-.2.16-.521a.616.616,0,0,0-.04-.5,3.049,3.049,0,0,0-.48-.5l-.24-.24a1.591,1.591,0,0,1-.2-.24l-.681-.761,1.081-.28a2.544,2.544,0,0,0,1.341-.721,2.188,2.188,0,0,0,.26-1.481,3.307,3.307,0,0,0-1.341-.04q-.541.12-1.1.28-.721.2-1.461.34a8.738,8.738,0,0,1-1.622.14q-.32,0-.6-.02t-.6-.06l-.4-.08a1.068,1.068,0,0,0-.16-.5,1.5,1.5,0,0,1-.16-.14,3.32,3.32,0,0,1-.42-.541,1.085,1.085,0,0,1-.1-.861,1.916,1.916,0,0,1-.24-.721,4.487,4.487,0,0,0-.36,1l-.16.4-.4.08a.27.27,0,0,0-.12.18.859.859,0,0,0-.04.22l-.2.681a1.5,1.5,0,0,1-.16.14,1.5,1.5,0,0,0-.16.14,7.256,7.256,0,0,1-.2.721q-.12.36-.24.681-.2.521-.34,1.021a2.764,2.764,0,0,0-.1.981l-.16.44a1.673,1.673,0,0,1-.44.38q-.24.14-.48.26a.7.7,0,0,1-.22.14q-.14.06-.22.1l-.12.44-.48.08q-.44.08-.621.12A1.955,1.955,0,0,1-21.7.4l-.4-.04q-.44-.36-.681-.581a3.835,3.835,0,0,0-.561-.42,2,2,0,0,1-.4-.721q-.04-.24-.08-.44a2.17,2.17,0,0,1-.1-.4.4.4,0,0,0-.1-.24l-.521-.48.44-.36.04-.681q.8-2.042,1.7-3.924t1.862-3.844q.32-.641.621-1.281t.621-1.281a.887.887,0,0,1-.04-.28.984.984,0,0,1,.08-.36q.44-.681.721-1.221t.561-1.1q.32-.681.661-1.321a9.631,9.631,0,0,1,.861-1.321l.641-.28q.12-.04.28-.1a1.02,1.02,0,0,1,.36-.06l.6.08a5.993,5.993,0,0,0,1.962-1.461,20.315,20.315,0,0,0,1.722-2.262l.4-.561.521.32a2.327,2.327,0,0,0,.561.22q.36.1.761.22.721.16,1.361.36a2.493,2.493,0,0,1,1.041.6,4.74,4.74,0,0,1,.28.961,5.4,5.4,0,0,0,.12.641q.12.681.22,1.361t.14,1.521q.2.681.34,1.341t.26,1.341q.2.961.4,1.862a11,11,0,0,0,.521,1.7,1.171,1.171,0,0,1,.4.04,2.178,2.178,0,0,1,.42-.12q.22-.04.5-.08l.44-.04.16.4q.04.2.4.4a1.472,1.472,0,0,1,.761.22,4.1,4.1,0,0,1,.44.38,1.255,1.255,0,0,0,.32.24l.6.24-.32.6A5.365,5.365,0,0,1-.941-8.428,7.053,7.053,0,0,1-2.6-7.327q.04.24.06.46a2.044,2.044,0,0,0,.1.46q.12.681.2,1.4a6.87,6.87,0,0,1,0,1.481ZM-13.894-10.29q1.2-.08,2.182-.18t2.182-.34q-.28-1.2-.6-2.5t-.681-2.583l-.24.4a17.083,17.083,0,0,0-1.542,1.882,22.577,22.577,0,0,0-1.261,1.962l-.48.721q-.24.36-.44.721a2.8,2.8,0,0,1,.46-.04A2.14,2.14,0,0,0-13.894-10.29Zm42.6,3.083a7.032,7.032,0,0,1-2.522,2.663,16.9,16.9,0,0,1-3.443,1.562q-1.882.621-3.944,1.1A28.188,28.188,0,0,0,14.814-.641q-.561,0-.981.04t-.8.1q-.38.06-.741.12t-.8.1q-.16-.04-.2.06a.533.533,0,0,1-.12.18A7.1,7.1,0,0,1,9.95.08h-.9a3.628,3.628,0,0,0-.981.14,2.456,2.456,0,0,1-.9.1,6.346,6.346,0,0,1-4.7-2.142,9.006,9.006,0,0,1-1.9-5.505q.04-.2-.06-.24a.533.533,0,0,1-.18-.12,2.034,2.034,0,0,1,.1-.681,1.416,1.416,0,0,0,.02-.721,28.594,28.594,0,0,1,2.362-4.1,15.336,15.336,0,0,1,3.163-3.343,4.077,4.077,0,0,0,.48-.48q.2-.24.38-.48a2.092,2.092,0,0,1,.42-.42,1.548,1.548,0,0,1,.6-.26,10.75,10.75,0,0,1,2-1.762q1.161-.8,2.442-1.542t2.542-1.481a14.69,14.69,0,0,0,2.3-1.662.906.906,0,0,0,.641.12.624.624,0,0,1,.44,0,1.666,1.666,0,0,0,.781.841q.5.24,1,.5a5.462,5.462,0,0,1,.941.621,2.329,2.329,0,0,1,.681.961q-.24,0-.22.18a1.215,1.215,0,0,0,.1.36.688.688,0,0,1,.06.36q-.02.18-.3.18a.26.26,0,0,0,.26.22q.22.02.22.22a.484.484,0,0,1-.1.32.438.438,0,0,0-.02.4,16.952,16.952,0,0,1-1.782,1q-.981.48-2.042,1.021t-2.2,1.161a18.915,18.915,0,0,0-2.222,1.421q-1.081.8-2.2,1.782T9.009-10.891Q7.968-9.81,7.047-8.668A17.238,17.238,0,0,0,5.485-6.406a.891.891,0,0,0,.18.3.891.891,0,0,1,.18.3,15.621,15.621,0,0,0,2.382-.02,7.367,7.367,0,0,1,2.222.14.389.389,0,0,0,.16-.24.358.358,0,0,1,.2-.24,29.808,29.808,0,0,0,4.244-.741q1.962-.5,4-1.061l-.581-.22q-.26-.1-.5-.18-.2-.2.02-.34a2.223,2.223,0,0,0,.38-.3,2.763,2.763,0,0,1-.9-.8,2.645,2.645,0,0,1-.42-1.281.606.606,0,0,0,.24-.48.5.5,0,0,0-.24-.44q-.16-.04-.2,0a.254.254,0,0,0-.06.12.445.445,0,0,1-.06.14q-.04.06-.2-.02a1.517,1.517,0,0,1,.18-.6,2.136,2.136,0,0,0,.22-.561L19.7-14.774q.44.32,1.081.7t1.341.761q.7.38,1.441.761t1.381.741a3.562,3.562,0,0,1,1,.641q.44.4.841.821t.821.821a4.012,4.012,0,0,0,.981.681,1.7,1.7,0,0,0,.04.841A1.855,1.855,0,0,1,28.708-7.207Zm4.8,3.043a21.953,21.953,0,0,1-.781,2.422,7.554,7.554,0,0,1-1.021,1.7.827.827,0,0,0-.721.12,2.881,2.881,0,0,1-.44.36.836.836,0,0,1-.521,0,1.445,1.445,0,0,1-.28-.18,1.95,1.95,0,0,0-.3-.2,1.144,1.144,0,0,0-.541-.1q-.08-.32-.18-.6t-.541-.2a1.308,1.308,0,0,0,.04-.541,2.922,2.922,0,0,0-.1-.4,3.628,3.628,0,0,1-.1-.36.963.963,0,0,1,.04-.46q-.2,0-.32-.28a5.487,5.487,0,0,0-.28-.561q.12-.721.24-1.361a9.87,9.87,0,0,1,.3-1.2q.18-.561.3-1.121a1.965,1.965,0,0,0-.12-1.161q.16.12.24-.06a1.792,1.792,0,0,0,.12-.48,4.539,4.539,0,0,0,.04-.6,2.613,2.613,0,0,0-.04-.5,16.59,16.59,0,0,0,.661-2.142q.26-1.1.48-2.182t.46-2.122A10.148,10.148,0,0,1,30.79-18.3a1.978,1.978,0,0,1,.981.1,1.016,1.016,0,0,1,.661.46,8.816,8.816,0,0,0,1.842-1.942q.8-1.141,1.642-2.222a12.108,12.108,0,0,1,1.862-1.922,4.715,4.715,0,0,1,2.583-1q.8.6,1.782,1.221a5.223,5.223,0,0,1,1.622,1.622,2.9,2.9,0,0,1,.541.34,5.276,5.276,0,0,0,.541.38v.48a3.647,3.647,0,0,1,.781,1.021,10.536,10.536,0,0,1,.541,1.241l.48,1.321a9.773,9.773,0,0,0,.561,1.261.949.949,0,0,0-.08.34.858.858,0,0,0,.06.3,2.949,2.949,0,0,1,.1.32,1.2,1.2,0,0,1,0,.44,4.433,4.433,0,0,1-1.141,2.843A8.4,8.4,0,0,1,43.683-9.91,19.686,19.686,0,0,1,40.6-8.729a27.105,27.105,0,0,0-2.963,1.041q0,.16.14.16t.1.2q.961.6,1.521.961a9.906,9.906,0,0,0,1.061.6,7.921,7.921,0,0,0,1.081.42q.581.18,1.622.42t1.622.38q.581.14,1.061.24t.981.16q.5.06,1.421.14a3.47,3.47,0,0,1,.621.861,3.3,3.3,0,0,1,.34,1,3.921,3.921,0,0,1,.04.961,1.276,1.276,0,0,1-.28.741.145.145,0,0,0,.18.1.779.779,0,0,1,.3.02,1.43,1.43,0,0,0-.4.4l-.32.48a2.214,2.214,0,0,1-.36.42.977.977,0,0,1-.561.22,5.406,5.406,0,0,1-3.123.06A34.543,34.543,0,0,1,39.919-.28q-1.441-.561-2.342-.981A13.773,13.773,0,0,1,36.015-2.1a9.4,9.4,0,0,1-1.2-.9Q34.273-3.483,33.513-4.164ZM39.238-17.9a7.521,7.521,0,0,1-.981,1.161q-.541.521-1.041,1.061a7.426,7.426,0,0,0-.9,1.2,4.5,4.5,0,0,0-.561,1.542,11.093,11.093,0,0,0,2.923-.781q1.521-.621,2.883-1.181a3.536,3.536,0,0,0-.861-2A3.428,3.428,0,0,0,39.238-17.9ZM70.429-3.363a6.417,6.417,0,0,1-.7,1.381A6.023,6.023,0,0,1,68.647-.741a6.006,6.006,0,0,1-1.381.9,4.168,4.168,0,0,1-1.6.4,1.965,1.965,0,0,1-.7-.26,3.82,3.82,0,0,0-.38-.26q-.12-.08-.22-.14t-.18-.1L63.7-.4l.16-.521a.616.616,0,0,0-.04-.5,3.049,3.049,0,0,0-.48-.5l-.24-.24a1.591,1.591,0,0,1-.2-.24l-.681-.761,1.081-.28a2.544,2.544,0,0,0,1.341-.721,2.188,2.188,0,0,0,.26-1.481,3.307,3.307,0,0,0-1.341-.04q-.541.12-1.1.28-.721.2-1.461.34a8.738,8.738,0,0,1-1.622.14q-.32,0-.6-.02t-.6-.06l-.4-.08a1.068,1.068,0,0,0-.16-.5,1.5,1.5,0,0,1-.16-.14,3.32,3.32,0,0,1-.42-.541,1.085,1.085,0,0,1-.1-.861,1.916,1.916,0,0,1-.24-.721,4.487,4.487,0,0,0-.36,1l-.16.4-.4.08a.27.27,0,0,0-.12.18.859.859,0,0,0-.04.22l-.2.681a1.5,1.5,0,0,1-.16.14,1.5,1.5,0,0,0-.16.14,7.256,7.256,0,0,1-.2.721q-.12.36-.24.681-.2.521-.34,1.021a2.764,2.764,0,0,0-.1.981l-.16.44a1.673,1.673,0,0,1-.44.38q-.24.14-.48.26a.7.7,0,0,1-.22.14q-.14.06-.22.1l-.12.44-.48.08q-.44.08-.621.12a1.955,1.955,0,0,1-.42.04l-.4-.04q-.44-.36-.681-.581a3.835,3.835,0,0,0-.561-.42,2,2,0,0,1-.4-.721q-.04-.24-.08-.44a2.17,2.17,0,0,1-.1-.4.4.4,0,0,0-.1-.24l-.521-.48.44-.36.04-.681q.8-2.042,1.7-3.924t1.862-3.844q.32-.641.621-1.281t.621-1.281a.887.887,0,0,1-.04-.28.984.984,0,0,1,.08-.36q.44-.681.721-1.221t.561-1.1q.32-.681.661-1.321a9.631,9.631,0,0,1,.861-1.321l.641-.28q.12-.04.28-.1a1.02,1.02,0,0,1,.36-.06l.6.08a5.993,5.993,0,0,0,1.962-1.461A20.314,20.314,0,0,0,61.9-23.983l.4-.561.521.32a2.327,2.327,0,0,0,.561.22q.36.1.761.22.721.16,1.361.36a2.493,2.493,0,0,1,1.041.6,4.74,4.74,0,0,1,.28.961,5.4,5.4,0,0,0,.12.641q.12.681.22,1.361t.14,1.521q.2.681.34,1.341t.26,1.341q.2.961.4,1.862a11,11,0,0,0,.521,1.7,1.171,1.171,0,0,1,.4.04,2.178,2.178,0,0,1,.42-.12q.22-.04.5-.08l.44-.04.16.4q.04.2.4.4a1.472,1.472,0,0,1,.761.22,4.1,4.1,0,0,1,.44.38,1.255,1.255,0,0,0,.32.24l.6.24-.32.6A5.365,5.365,0,0,1,71.81-8.428a7.053,7.053,0,0,1-1.662,1.1q.04.24.06.46a2.044,2.044,0,0,0,.1.46q.12.681.2,1.4a6.871,6.871,0,0,1,0,1.481ZM58.857-10.29q1.2-.08,2.182-.18t2.182-.34q-.28-1.2-.6-2.5T61.94-15.9l-.24.4a17.083,17.083,0,0,0-1.542,1.882A22.576,22.576,0,0,0,58.9-11.651l-.48.721q-.24.36-.44.721a2.8,2.8,0,0,1,.46-.04A2.14,2.14,0,0,0,58.857-10.29ZM100.778-.721q-.4.2-.741.36a1.814,1.814,0,0,1-.781.16Q97.7-1.361,97.635-4.244a25.646,25.646,0,0,1,1.221-7.327.515.515,0,0,0,.2-.48l-.36-.4a1.089,1.089,0,0,0-.3.04q-.14.04-.22.28-1.041.761-2.282,1.582a29.132,29.132,0,0,1-2.583,1.521,17.085,17.085,0,0,1-2.723,1.141,8.869,8.869,0,0,1-2.7.44,5.385,5.385,0,0,1-5.045-3.4l-.32-.6-.32.521a4.655,4.655,0,0,0-.36.661q-.24.5-.48,1.141t-.42,1.3a3.359,3.359,0,0,0-.14,1.141q-.36.36-.761.841a3.306,3.306,0,0,0-.6,1.081.784.784,0,0,0,.08.6.9.9,0,0,1-.36.561,4.612,4.612,0,0,1-.34.38,1.979,1.979,0,0,0-.3.38,1.469,1.469,0,0,0-.1.4q-.02.2-.06.4a1.637,1.637,0,0,1-.08.521A8.211,8.211,0,0,1,77.2.3a1.422,1.422,0,0,1-1.081.42A7.2,7.2,0,0,1,75.073.6a5.356,5.356,0,0,1-.941-1.542,10.418,10.418,0,0,1-.641-2.1,10.728,10.728,0,0,1-.2-2.262,5.242,5.242,0,0,1,.38-1.982q0-.04.32-.8t.821-1.962q.5-1.2,1.141-2.663t1.281-2.843q.641-1.381,1.221-2.542a17.289,17.289,0,0,1,.981-1.762q.32-.48.581-.9t.5-.821A16.655,16.655,0,0,1,81.9-23.643a4.407,4.407,0,0,1,1.942-1.3,3.234,3.234,0,0,1,1.281.841l.08.44q.16.4.48.4.44.12.741.22a6.671,6.671,0,0,0,.661.18,4.217,4.217,0,0,1,.521.761q.32.48.621.941a5.075,5.075,0,0,1,.48.921,2.9,2.9,0,0,1,.2.941,2.49,2.49,0,0,1-.18,1l.04.4a1.5,1.5,0,0,1,.08,1,4.1,4.1,0,0,0-.04.581,3.065,3.065,0,0,0,.08.661,2.2,2.2,0,0,0,1.281.561,2.392,2.392,0,0,0,1.181-.3q.541-.3,1.021-.621a5.85,5.85,0,0,1,.641-.42,1.746,1.746,0,0,1,.641-.22q.721-.681,1.3-1.2T96.174-18.9A28.184,28.184,0,0,0,98.5-20.98a8.315,8.315,0,0,0,1.8-2.8,1.61,1.61,0,0,1,.841-.24,2.392,2.392,0,0,1,.921.2q.48.2.921.4a1.227,1.227,0,0,0,.22.12q.1.04.18.08a.872.872,0,0,0,.32.681,2.423,2.423,0,0,1,.2.16.466.466,0,0,0,.12.08,1.731,1.731,0,0,1,.761.641,2.488,2.488,0,0,0,1,1.4,1.531,1.531,0,0,0,.02.741,5.665,5.665,0,0,0,.26.7l.08.24a2.2,2.2,0,0,0,.12.28l-.761-.08.12.761a3.126,3.126,0,0,1-.1,1.241,4.244,4.244,0,0,1-.42,1.081q.04,1.041.06,1.622a5.622,5.622,0,0,1-.06,1.081,6.476,6.476,0,0,1-.22.941,8.38,8.38,0,0,1-.38.961,11.722,11.722,0,0,1-.581,4.665q-.741,2.1-1.542,3.944-.08.2-.18.4t-.18.4a4.905,4.905,0,0,0-.641.26Z" transform="translate(152.692 45)"/><path class="c" d="M12.06,18.525c.08-.08.094-.133.04-.16a.768.768,0,0,0-.239-.06l-.341-.04a.488.488,0,0,1-.3-.14c-.293-.186-.514-.334-.661-.44a3.975,3.975,0,0,0-.361-.24,2.9,2.9,0,0,1-.3-.2q-.161-.12-.441-.36a2.323,2.323,0,0,0,.18-.661,1.86,1.86,0,0,0-.02-.481c-.026-.147-.059-.3-.1-.46a1.946,1.946,0,0,1-.02-.641,40.488,40.488,0,0,1,3.884-2.222q.988-.482,1.948-.888l-.545-.182A35.083,35.083,0,0,0,11,10.328a24.846,24.846,0,0,0-3.824-.5,16.645,16.645,0,0,0-3.883.261,3.109,3.109,0,0,1-1.882-.14A2.3,2.3,0,0,1,.391,8.986,3.257,3.257,0,0,1,.01,7.565,7.071,7.071,0,0,1,.09,6.043a6.227,6.227,0,0,1,1.4-.72q.841-.321,1.742-.6t1.782-.5Q5.9,4,6.576,3.842a3.835,3.835,0,0,0,1.1.26q.62.059,1.261.08l1.3.04a12.519,12.519,0,0,1,1.261.1,18.821,18.821,0,0,1,3.2.821,21.68,21.68,0,0,0,2.429.706,12.053,12.053,0,0,1-1.19-.7,3.832,3.832,0,0,1-1.6-2.082,1.319,1.319,0,0,1-.981-.641,2.008,2.008,0,0,1-.34-1.4,5.012,5.012,0,0,0,.741-.541,2.3,2.3,0,0,1,.86-.46,2.923,2.923,0,0,1,1.141.08,15.035,15.035,0,0,1,1.522.44q.821.281,1.722.6t1.7.521q.8.2,1.742.36a8.566,8.566,0,0,1,1.742.481,2.537,2.537,0,0,1,.62.381,1.42,1.42,0,0,0,.621.3,7.11,7.11,0,0,1,1.542.461q.821.34,1.661.741t1.661.821a16.548,16.548,0,0,0,1.542.7q-.04.24.52.6a2.481,2.481,0,0,0,1.2.4,1.188,1.188,0,0,0,.381.86,2.675,2.675,0,0,1,.581.861,1.923,1.923,0,0,1,.139,1.121,2.15,2.15,0,0,1-.46,1,3.186,3.186,0,0,1-.941.761,4.076,4.076,0,0,1-1.341.44,1.5,1.5,0,0,0-.741-.16,1.325,1.325,0,0,1-.7-.16,12.143,12.143,0,0,1-1.741.941,3.165,3.165,0,0,1-1.982.26.453.453,0,0,1-.461.32.4.4,0,0,0-.42.36,16.782,16.782,0,0,0-3.2.881q-1.561.6-3.043,1.3t-2.863,1.421q-1.381.721-2.662,1.241a1.628,1.628,0,0,0-1.041.02,2.284,2.284,0,0,1-.812.148Q12.155,18.532,12.06,18.525Z" transform="translate(0 20)"/></g></svg>