<svg xmlns="http://www.w3.org/2000/svg" xmlns:xlink="http://www.w3.org/1999/xlink" width="135.35" height="131.97" viewBox="0 0 135.35 131.97"><defs><style>.a{clip-path:url(#b);}.b{fill:#ffc001;}.c{opacity:0.1;}.d{fill:#fff;opacity:0.3;}.e{fill:#020202;}</style><clipPath id="b"><rect width="135.35" height="131.97"/></clipPath></defs><g id="a" class="a"><g transform="translate(-561.879 -35.746)"><g transform="translate(564.5 38.69)"><g transform="translate(0 0)"><path class="b" d="M570.317,111.453C567.474,153,602.39,175.94,642.6,171.277c19.617-2.632,26.61-6.732,41.561-15.4,5.211-2.527,12.83-14.843,13.853-20.065,5.388-22.3.532-55.708-17.269-71.657-10.416-8.11-31.122-19.035-43.768-16.792-12.944-.642-27.844,2.5-38.684,11.7-5.957,3.86-11.021,11.19-15.13,17.22C575.506,89.076,572.1,92.824,570.317,111.453Z" transform="translate(-570.155 -46.428)"/><path class="c" d="M667.1,191.153l-18.205,2.387c-6.487.546-25.94-2.814-39.651-9.855-9.29-4.77-14.406-13.005-16.982-16.027a46.539,46.539,0,0,1-10.325-23.8c-.906-6.829-2.5-15.6-1.119-22.442.995-4.92,3.283-10.81,5.027-15.5,3.244-8.723,8.719-14.029,12.752-20.973-5.763,4.009-11.188,11.219-15.13,17.22-2.967,4.638-5.738,9.516-7.921,13.746-4.739,9.1-7.116,31.112-2.332,43.6,4.583,17.681,20.527,30.242,37.535,35.226,3.9,1.066,7.717,2.609,11.943,2.425a167.573,167.573,0,0,0,18.15.159C649.907,195.813,658.691,194.189,667.1,191.153Z" transform="translate(-570.456 -72.306)"/><path class="d" d="M751.239,97.852l-1.971-7.978a44.369,44.369,0,0,0-1.989-6.038l-1.948-4.725a42.731,42.731,0,0,0-8.252-12.819l-4.856-5.173-.126-.111c-6.417-4.679-21.475-12.93-27.017-14.426-5.9-1.626-12.936-1.54-15.945-1.5-1.075.018-2.174,0-3.236-.015-3.476-.051-7.069-.1-10.637.97-.471.139-1.351.289-2.37.461a51.946,51.946,0,0,0-8.886,2.127,49.5,49.5,0,0,0-5.216,2.234l-.084.047c-.575.365-1.08.7-1.544,1.023L654.5,53.781l-7.985,8.03,6.523-4.051c5.6-3.477,14.651-5.381,14.742-5.4l.036-.008c2.536-.634,4.8-1.1,6.916-1.426a46.115,46.115,0,0,1,8.382-.784l.035,0,9.011-.108a37.16,37.16,0,0,1,12.21,2.677l8.347,3.274c4.5,1.877,9.249,4.242,13.5,8.8l6.572,5.277c3.259,3.476,4.75,6.3,6.678,10.957l2.369,5.238c.235.566.51,1.179.8,1.827a30.964,30.964,0,0,1,1.782,4.552l1.878,9.279a38.237,38.237,0,0,1,.986,6.256l.362,6.511a45.409,45.409,0,0,1-.491,11.4l-1.371,7.144c-.537,2.875-2.466,6.541-5.9,11.2a47.262,47.262,0,0,1-7.359,8.185c-6.421,4.908-12.57,8.721-13.236,9.131-2.1.867-4.274,1.735-6.191,2.5-6.945,2.775-6.96,2.822-7.148,3.394l-.13.417.588.95.666-.206c1.905-.59,13.689-4.486,15.916-5.823,1.975-1.2,4.068-2.291,6.093-3.343,1.053-.547,2.143-1.113,3.208-1.691l.064-.038a66.524,66.524,0,0,0,7.045-4.977,42.286,42.286,0,0,0,12.083-22.473l1.184-6.318a36.885,36.885,0,0,0,.605-3.652l.006-.074q.013-.39.02-.778C753.382,114.626,752.281,104.133,751.239,97.852Z" transform="translate(-622.329 -45.043)"/></g></g><path class="e" d="M561.916,106.459a59.345,59.345,0,0,1,7.428-29.2c1.276-3.989,11.112-19.932,15.684-22.679,5.44-4.589,6.768-7.251,13.737-11.61,11.231-6.427,22.921-7.847,35.443-6.995,7.924.965,16.206,1.363,23.184,5.516,3.786,1.948,7.571,3.967,11.393,5.77,8.866,4.834,15.043,13.708,19.254,22.679,4.849,14.314,9.657,29.36,9.158,44.6-1.195,11.625-2.689,23.977-11.323,32.774-4.477,4.714-9.973,7.075-15.431,10.2a80.062,80.062,0,0,1-14.314,5.805c-21,5.193-43.918,7.42-62.809-2.668-6.708-2.905-12.221-8.015-17.7-12.872C566.008,141.1,561.413,116.716,561.916,106.459ZM690.959,88.431c-4.82-26.023-20.661-37.021-43.952-46.079-5.624-1.551-12.475-1.479-15.4-1.443-9.367-.221-13.932.475-24.374,3.425-20.337,6.771-40.059,36.054-41.032,59.455-.65,20.6,4.248,34.515,18.316,45.178,5.973,5.333,13.409,8.821,21.057,11.141,11.643,3.43,14.417,2.884,31.549,2.381,19.241-2.589,26.114-6.6,40.779-15.108C696.25,134.958,695.186,107.437,690.959,88.431Z" transform="translate(0 0)"/><g transform="translate(597.264 66.355)"><path class="e" d="M696.616,297.172c-12.9-2.61-12.453-14.9-8.617-25.311,2.6-3.714,4.561,2.19,4.038,3.93-.616,2-2.345,7.807-.937,11.43,3.159,6.249,8.663,6.894,12.908,2.884a15.816,15.816,0,0,0,2.307-3.714c1.623-3.245,5.517-6.959,8.8-9.771,15.143-12.4,32.45,4.543,31.008,14.494a2.221,2.221,0,0,1-4.4-.144c-.827-4.9-4.724-8.372-8.221-11.393-3.029-2.452-6.093-2.452-9.879-2.127-5.444-.144-12.583,11.249-14.35,15.251C706.859,297.229,701.327,298.494,696.616,297.172Z" transform="translate(-681.828 -226.871)"/><path class="e" d="M676.032,165.31c-4.038-5.192-1.983-11.97-1.19-17.883.469-3.281,1.334-17.163,7.139-14.747,1.694,1.587-.5,4.651-.757,5.12-4.725,13.033-6.687,35.592,14.242,25.888,4-4.327,2.632-15.251,2.992-21.165-.067-2.869-2.406-4.936-5.192-2.307-5.12,3.957.063,21.473-6.093,20.083-1.875-.325-1.551-3.642-1.479-4.11.577-4.543.469-13.124,3.75-17.018,1.442-1.731,2.776-3.533,4.832-4.11,3.5-.974,8.329,2.957,8.617,6.238-.144,7.356,2.091,21.345-4.507,26.357C691.86,170.862,680.935,172.052,676.032,165.31Z" transform="translate(-673.611 -132.399)"/><path class="e" d="M803.307,136.585a3.145,3.145,0,0,1,3.93-1.694c1.863.392-.147,13.259-.324,15.143-1.73,8.138-2.463,18.433,9.05,15.432,4.579-2.884,2.307-10.708,2.957-15.5.108-2.272.324-7.932.757-10.168.181-.937.108-5.012,2.6-4.976,2.668.036,2.776,1.947,2.74,3.606-.036,1.262-.937,9.014-1.37,14.314-.654,5.345.845,14.664-5.192,17.091C793.818,175.84,801.189,150.75,803.307,136.585Z" transform="translate(-760.396 -133.961)"/></g></g></g></svg>