<svg xmlns="http://www.w3.org/2000/svg" xmlns:xlink="http://www.w3.org/1999/xlink" width="289.69" height="58" viewBox="0 0 289.69 58"><defs><style>.a{clip-path:url(#b);}.b,.c{fill:#020202;}.c{stroke:rgba(0,0,0,0);stroke-miterlimit:10;}</style><clipPath id="b"><rect width="289.69" height="58"/></clipPath></defs><g id="a" class="a"><path class="b" d="M-121.038-18.058q.12-.6.16-.981a1.2,1.2,0,0,0-.28-.821q.16-.641.26-1a2.671,2.671,0,0,0,.02-1,4.444,4.444,0,0,1,1.1-1.762,7.95,7.95,0,0,1,1.622-1.221,11.476,11.476,0,0,1,1.842-.841q.961-.34,1.8-.581a.142.142,0,0,0-.16-.16q-.16,0-.08-.2a29.517,29.517,0,0,0,4.344-1.161q2.182-.761,4.464-1.361a23.808,23.808,0,0,1,4.685-.741,15.028,15.028,0,0,1,5.045.621,4.162,4.162,0,0,0,.44.921q.28.44.581.861t.541.821a1.964,1.964,0,0,1,.28.841,4.242,4.242,0,0,1,.781.941,1.77,1.77,0,0,1,.1,1.341q-.44.32-.921.641t-1,.6a11.79,11.79,0,0,0-3.6-.32q-1.8.12-3.243.28a1.3,1.3,0,0,0-1.041-.46,5.494,5.494,0,0,0-1.261.2q-.661.18-1.3.36a2.9,2.9,0,0,1-1.2.1,2.353,2.353,0,0,1-1.161.541q-.721.14-1.521.22a.248.248,0,0,0,.08.28q.12.08.04.32a1.446,1.446,0,0,0,.761.5q.48.14.981.26a3.607,3.607,0,0,1,.9.34,1.049,1.049,0,0,1,.521.7,2.477,2.477,0,0,1,1.241.38,3.45,3.45,0,0,1,.881.821,3.218,3.218,0,0,1,.521,1.021,2.631,2.631,0,0,1,.12.981q.16.4.34.32t.42.2a3.237,3.237,0,0,0,.741,1.261,5.212,5.212,0,0,1,.9,1.421q.08,1.2.14,2.162a4.03,4.03,0,0,1-.34,1.882,9.979,9.979,0,0,1-1.962,3.163,15.163,15.163,0,0,1-2.9,2.462,22.787,22.787,0,0,1-3.423,1.842,31.208,31.208,0,0,1-3.563,1.3.908.908,0,0,0-.38,0q-.22.04-.1-.24a1.637,1.637,0,0,1-.821.4,4.808,4.808,0,0,1-1,.06q-.541-.02-1.081-.06a4.682,4.682,0,0,0-1.061.04,8.4,8.4,0,0,1-.581-.641,2.608,2.608,0,0,1-.42-.761.212.212,0,0,1-.18-.26q.02-.22-.18-.22a.558.558,0,0,1,.04-.24l.08-.16q.16-.12.14-.18a.255.255,0,0,0-.12-.12,1.822,1.822,0,0,1-.2-.14.168.168,0,0,1-.06-.2,1.392,1.392,0,0,0,.14-.861q-.06-.5-.1-1.021a2.963,2.963,0,0,1,.08-.981,1.309,1.309,0,0,1,.681-.781,9.924,9.924,0,0,0,3.1-.16,15.18,15.18,0,0,0,2.763-.881,26.806,26.806,0,0,0,2.482-1.221q1.181-.661,2.3-1.221a1.7,1.7,0,0,1,.38-.681q.26-.28.541-.541a5.177,5.177,0,0,0,.521-.561,2.021,2.021,0,0,0,.36-.741.361.361,0,0,0,0-.24.4.4,0,0,0-.12-.14,1.5,1.5,0,0,1-.16-.14.326.326,0,0,1-.08-.24q-.12-.04-.22-.08a.492.492,0,0,0-.18-.04,14.572,14.572,0,0,0-2.2-.881,10.647,10.647,0,0,1-1.962-.8,1.059,1.059,0,0,1-.961.16q-.48-.16-1.161-.32a28.851,28.851,0,0,1-3.183-.32,12.258,12.258,0,0,1-2.9-.841,1.754,1.754,0,0,0-.2-.42q-.12-.18-.561-.1a8.391,8.391,0,0,0-.581-.741A4.25,4.25,0,0,1-121.038-18.058Zm43.6,14.174a3.416,3.416,0,0,1-.24,1.722A3.439,3.439,0,0,1-78.557-1a4.4,4.4,0,0,1-1.281.761q-.721.28-1.4.521-.32-.2-.621-.42a2.283,2.283,0,0,0-.7-.34q-.521-.961-1-1.7a2.832,2.832,0,0,1-.44-1.7q0-.04.06-.44t.16-.881q.1-.48.16-.9t.06-.46a8.823,8.823,0,0,0-1.922.4,16.277,16.277,0,0,0-1.942.761q-.941.44-1.762.881t-1.341.761a2.579,2.579,0,0,1-.16.581,9.258,9.258,0,0,1-.4.961,6.391,6.391,0,0,1-.521.9q-.28.4-.561.4a1.011,1.011,0,0,0,.12.24.336.336,0,0,1,0,.32,4.259,4.259,0,0,0-1,.42,5.831,5.831,0,0,1-.921.44,2.941,2.941,0,0,1-1.041.18,2.937,2.937,0,0,1-1.321-.4.55.55,0,0,0-.2-.42,3.181,3.181,0,0,0-.42-.32l-.38-.24q-.16-.1-.16-.18-.2.04-.16-.28t.32-.16a2.707,2.707,0,0,1-.541-.981,4.37,4.37,0,0,0-.46-1.061.678.678,0,0,0,.14-.28q.06-.2.1-.36a.508.508,0,0,1,.12-.24q.08-.08.2.04a1.135,1.135,0,0,1,0-.6q.08-.24.16-.44a2.283,2.283,0,0,0,.12-.4.588.588,0,0,0-.12-.44,4.762,4.762,0,0,0,.841-1.9,12.958,12.958,0,0,0,.24-1.862,2.5,2.5,0,0,0,.5-.8,6.133,6.133,0,0,0,.34-1.061,4.046,4.046,0,0,0,.1-1.041,2.679,2.679,0,0,0-.14-.821q.04-.2.44-.12a25.3,25.3,0,0,0,.34-2.983q.1-1.662.34-3.163a9.307,9.307,0,0,1,.8-2.643,2.785,2.785,0,0,1,1.8-1.5,6.259,6.259,0,0,0,.621,1.481,11,11,0,0,0,.841,1.221q.46.581.921,1.181a9.52,9.52,0,0,1,.861,1.361q-.04.761-.16,1.762t-.3,2.042q-.18,1.041-.36,2t-.34,1.642a.277.277,0,0,0,.22.24q.18.04.06.36.961-.24,2-.44t2.082-.44q1.041-.24,2.022-.541a10.609,10.609,0,0,0,1.822-.741q.2-1.562.521-3.123a9.2,9.2,0,0,0,.08-3.2,1.182,1.182,0,0,0,.32-.4.612.612,0,0,1,.4-.32,5.273,5.273,0,0,1-.16-1.6,5.77,5.77,0,0,1,.3-1.6,3.6,3.6,0,0,1,.761-1.3,2.31,2.31,0,0,1,1.221-.7,8.119,8.119,0,0,1,.761,1.381q.32.741.661,1.481t.721,1.4a4.016,4.016,0,0,0,.981,1.141q.12,1.161.18,2.4t.1,2.522q-.32,1.521-.7,2.943a19,19,0,0,0-.541,3.023,2.491,2.491,0,0,0-.44.721q-.16.4-.32.821a7.289,7.289,0,0,1-.36.8,2.713,2.713,0,0,1-.48.661,1.623,1.623,0,0,1,.06.9A1.487,1.487,0,0,0-77.436-3.884Zm26.706-8.128a2.641,2.641,0,0,0,.08.921,6.573,6.573,0,0,0,.3.861q.18.42.34.861a5.4,5.4,0,0,1,.24.881,4.668,4.668,0,0,1,0,1.221,6.847,6.847,0,0,1-.28,1.281,4.806,4.806,0,0,1-.521,1.121,2.115,2.115,0,0,1-.761.741A3.938,3.938,0,0,1-52.691-3a7.831,7.831,0,0,0-1.481.961,3.039,3.039,0,0,1-.981.4q-.541.12-1.1.24-.44.24-1.041.5t-1.241.48a7.5,7.5,0,0,1-1.281.32,4.787,4.787,0,0,1-1.121.06,10.538,10.538,0,0,1-2.342.581A8.217,8.217,0,0,1-65.944.36,6.76,6.76,0,0,1-68.607.24,6.221,6.221,0,0,1-70.769-.781a7.556,7.556,0,0,1-1.642-1.682,10.089,10.089,0,0,1-1.141-2.062,10.612,10.612,0,0,1,.16-4.144,13.976,13.976,0,0,1,1.381-3.443,18.262,18.262,0,0,1,2.062-2.923q1.161-1.341,2.242-2.623a.41.41,0,0,0,.38-.02,1.063,1.063,0,0,0,.26-.28,3.274,3.274,0,0,1,.26-.34.6.6,0,0,1,.34-.2,1.931,1.931,0,0,1,.821-.9,2.223,2.223,0,0,0,.861-.861,1.767,1.767,0,0,0,.6-.24,3.9,3.9,0,0,0,.46-.36q.22-.2.46-.38a1.548,1.548,0,0,1,.561-.26v-.44a2.8,2.8,0,0,0,1.061-.741q.34-.42.821-1.021a5.509,5.509,0,0,1,.581-.04,4.062,4.062,0,0,0,.661-.08A4.688,4.688,0,0,1-59-24.664a3.786,3.786,0,0,1,.781-.6,3.391,3.391,0,0,0,1.061.32,1.755,1.755,0,0,1,1.021.521,1.053,1.053,0,0,0,.24.621,3.139,3.139,0,0,0,.44.4q.24.18.46.38a1.037,1.037,0,0,1,.3.561q.16.04.22-.04t.22-.04a1.762,1.762,0,0,0,.28.741,2.032,2.032,0,0,1,.32.7,3.8,3.8,0,0,0-.3.821.9.9,0,0,1-.5.621q-.04.28.16.3a.25.25,0,0,1,.24.22.614.614,0,0,1-.12.521,26.632,26.632,0,0,1,1.722,3.3A26.631,26.631,0,0,0-50.729-12.012Zm-5,3.8a2.1,2.1,0,0,1,.42-.721,1.345,1.345,0,0,0,.3-.841,1.794,1.794,0,0,1-.24-.5,2.974,2.974,0,0,1-.04-.581,15.817,15.817,0,0,1-1.521-2.663,20.25,20.25,0,0,0-1.441-2.663,1,1,0,0,1-.28.32q-.2.16-.44-.08a.76.76,0,0,1-.28.46.652.652,0,0,1-.44.12,1.816,1.816,0,0,1-.5-.12,1.719,1.719,0,0,1-.46-.26q-1.161.921-2.322,1.8a11.591,11.591,0,0,0-2.082,2.042q-.16.08-.2.06t-.24.06a6.614,6.614,0,0,1-.781,1.381q-.46.621-.9,1.261a8.467,8.467,0,0,0-.761,1.361,4.588,4.588,0,0,0-.36,1.682,3.094,3.094,0,0,0,1.6.681,9.006,9.006,0,0,0,1.9.04,18,18,0,0,0,1.922-.26,9.3,9.3,0,0,1,1.742-.18,11.514,11.514,0,0,0,2.883-1.061Q-57.056-7.527-55.734-8.208Zm22.542-16.616a13.444,13.444,0,0,1,3,.681,7.045,7.045,0,0,1,2.242,1.281A23.53,23.53,0,0,1-26.726-20.7a11.2,11.2,0,0,1,.881,2.422,10.424,10.424,0,0,1,.28,2.583,7.306,7.306,0,0,1-.581,2.683,9.237,9.237,0,0,1-2.823,2.342,18.162,18.162,0,0,1-3.583,1.461q-1.922.561-3.984.961t-4.024.8q.04.921.02,1.942a13.226,13.226,0,0,1-.2,2.042,11.151,11.151,0,0,1-.541,1.982A7.037,7.037,0,0,1-42.241.28a5.769,5.769,0,0,0-1.4.18q-.721.18-1.281.3-.28-.16-.5-.3a1.427,1.427,0,0,0-.621-.18,1.073,1.073,0,0,0-.2-.821q-.28-.42-.561-.861a2.892,2.892,0,0,1-.38-.841q-.1-.4.38-.761a.976.976,0,0,1-.28-.721,5.386,5.386,0,0,0,.5-1.321q.22-.841.36-1.662a5.279,5.279,0,0,0,.06-1.5,1.221,1.221,0,0,0-.8-1,.161.161,0,0,1,.16-.08.756.756,0,0,0,.24-.04.976.976,0,0,1-.38-.681,1.605,1.605,0,0,0-.3-.761,2.839,2.839,0,0,0,.12-.36q.04-.16.28-.12a3.575,3.575,0,0,1,.02-1.361,5.5,5.5,0,0,1,.42-1.221,7.8,7.8,0,0,1,.681-1.141q.4-.561.761-1.121.28-.04.34.08t.26-.04a2.3,2.3,0,0,0,.721-.841,2.394,2.394,0,0,0,.2-1,16.143,16.143,0,0,1,.681-1.7,11.872,11.872,0,0,1,.881-1.582,7.74,7.74,0,0,1,1.061-1.281A4.177,4.177,0,0,1-39.6-23.3a5.62,5.62,0,0,1,1.2-.741,7.154,7.154,0,0,1,1.562-.521,9.115,9.115,0,0,1,1.7-.2,5.421,5.421,0,0,1,1.582.18q.2.08.22-.08T-33.192-24.824Zm-1.642,9.569a11.846,11.846,0,0,1,2.142-.7,3.993,3.993,0,0,0,1.9-.981,4.255,4.255,0,0,0-1.4-.781,7.306,7.306,0,0,0-2-.42,7.143,7.143,0,0,0-2.182.18,4.254,4.254,0,0,0-1.9.981q-.24.721-.4,1.141t-.44,1.021a.577.577,0,0,0,.26.3.577.577,0,0,1,.26.3,4.639,4.639,0,0,1,1.862-.541A5.372,5.372,0,0,0-34.834-15.255ZM-1.962.16A7.908,7.908,0,0,1-5.165,0,7.853,7.853,0,0,1-7.748-1.241a8.729,8.729,0,0,1-1.962-2,11.739,11.739,0,0,1-1.341-2.482,13.111,13.111,0,0,1,.2-4.945,16.1,16.1,0,0,1,1.642-4.1A24.123,24.123,0,0,1-6.747-18.3l2.663-3.163a.467.467,0,0,0,.46,0,1.217,1.217,0,0,0,.32-.32,4.206,4.206,0,0,1,.32-.4.974.974,0,0,1,.42-.28,1.8,1.8,0,0,1,.42-.6,6.44,6.44,0,0,1,.561-.46,6.439,6.439,0,0,0,.561-.46,2.383,2.383,0,0,0,.46-.6,1.932,1.932,0,0,0,.7-.28A4.526,4.526,0,0,0,.7-25.3a5.569,5.569,0,0,1,.541-.44,2.3,2.3,0,0,1,.681-.32v-.521A3.572,3.572,0,0,0,3.2-27.467q.4-.48.961-1.241.44-.04.7-.04a6.5,6.5,0,0,0,.821-.08,4.268,4.268,0,0,1,.681-1,6.165,6.165,0,0,1,.921-.721,3.314,3.314,0,0,0,1.281.38,1.98,1.98,0,0,1,1.241.621,1.208,1.208,0,0,0,.28.741,4.441,4.441,0,0,0,.521.48q.28.22.561.46a1.127,1.127,0,0,1,.36.681.318.318,0,0,0,.26-.08q.06-.08.26-.04a4.156,4.156,0,0,0,.16.521,2.268,2.268,0,0,0,.18.36q.1.16.2.36a2.8,2.8,0,0,1,.18.48,10.153,10.153,0,0,0-.36,1.021,1.089,1.089,0,0,1-.641.741q0,.32.24.34t.28.3a.877.877,0,0,1-.12.6,37.871,37.871,0,0,1,2.042,3.944A33.568,33.568,0,0,0,16.3-14.694a2.779,2.779,0,0,0,.06,1.1,7.642,7.642,0,0,0,.36,1.061q.22.521.42,1.041a5.024,5.024,0,0,1,.28,1.041,6.68,6.68,0,0,1,0,1.461,6.988,6.988,0,0,1-.32,1.5,5.91,5.91,0,0,1-.641,1.341,2.959,2.959,0,0,1-.921.941,4.947,4.947,0,0,1-1.6,1.3,9.447,9.447,0,0,0-1.762,1.181,4.227,4.227,0,0,1-1.2.46q-.641.14-1.321.3a8.942,8.942,0,0,1-1.241.621q-.721.3-1.481.541a12.676,12.676,0,0,1-1.521.38,4.37,4.37,0,0,1-1.361.06,14.451,14.451,0,0,1-2.8.721A9.057,9.057,0,0,1-1.962.16Zm.521-14.574a8.674,8.674,0,0,1-.941,1.662q-.541.741-1.061,1.5a10.076,10.076,0,0,0-.9,1.622,5.442,5.442,0,0,0-.42,2.022,3.563,3.563,0,0,0,1.9.821A10.638,10.638,0,0,0-.6-6.747q1.161-.1,2.322-.3a12.384,12.384,0,0,1,2.082-.2q0-.36.32-.36a8.1,8.1,0,0,0,3.123-.941q1.441-.781,3-1.582a2.977,2.977,0,0,1,.521-.841,1.674,1.674,0,0,0,.36-1.041,2.618,2.618,0,0,1-.26-.6,3.2,3.2,0,0,1-.06-.721,17.658,17.658,0,0,1-1.8-3.143A22.735,22.735,0,0,0,7.247-19.7a1.057,1.057,0,0,1-.32.4q-.24.2-.521-.08a.884.884,0,0,1-.36.541,1.053,1.053,0,0,1-.541.14,1.607,1.607,0,0,1-.6-.12,2,2,0,0,1-.541-.32q-1.4,1.121-2.783,2.162a13.959,13.959,0,0,0-2.5,2.442q-.2.12-.24.08T-1.441-14.414ZM27.106-7.287a.723.723,0,0,0-.521.42q-.16.34-.3.7t-.28.661a.449.449,0,0,1-.42.3,1.155,1.155,0,0,1-.22.561q-.18.24-.34.5a2.092,2.092,0,0,0-.24.561,1.114,1.114,0,0,0,.08.7,1.048,1.048,0,0,0-.4.681q-.08.44-.18.841a1.638,1.638,0,0,1-.34.681,1.033,1.033,0,0,1-.881.24q-.12.16-.04.2t.12.28a.93.93,0,0,0-.661.06,1.294,1.294,0,0,1-.541.18A2.642,2.642,0,0,1,20.68-.561,7.281,7.281,0,0,1,19.8-1.9q-.38-.741-.681-1.5t-.581-1.321a1.89,1.89,0,0,0,.04-.861,1.756,1.756,0,0,0-.28-.7q1.962-4.164,4.284-8.889t4.4-9.329q.921.36,1.822.821a9.359,9.359,0,0,1,1.642,1.061,6.193,6.193,0,0,1,1.261,1.381,4.408,4.408,0,0,1,.681,1.742q-.08.24-.18.18t-.18.06a.983.983,0,0,1,.18.28.325.325,0,0,1,0,.16.95.95,0,0,0-.02.22.928.928,0,0,0,.12.38q-.16-.04-.22.04t-.26,0a1.353,1.353,0,0,1,.1.721,1.848,1.848,0,0,1-.18.5,2.593,2.593,0,0,0-.2.48,1.154,1.154,0,0,0,.04.661.245.245,0,0,0-.18.06.8.8,0,0,0-.1.12.8.8,0,0,1-.1.12.166.166,0,0,1-.18.02,9.739,9.739,0,0,1,.08,1.762q-.04.881-.06,1.782t.02,1.882a10.981,10.981,0,0,0,.28,2.022,6.763,6.763,0,0,0,2.3-2.162,12.64,12.64,0,0,0,1.4-2.963,21.275,21.275,0,0,0,.821-3.523q.28-1.882.6-3.844a2.492,2.492,0,0,0,.561-.881q.2-.521.36-1.1l.32-1.161a5.841,5.841,0,0,1,.4-1.061,2.234,2.234,0,0,1,1.021.38,7.394,7.394,0,0,1,.781.641,8.773,8.773,0,0,0,.761.641,2.1,2.1,0,0,0,1,.38q.48.681.881,1.321a3.693,3.693,0,0,1,.521,1.361,2.488,2.488,0,0,0-.3.721q-.1.4-.22.8a3.357,3.357,0,0,1-.32.741,1.785,1.785,0,0,1-.561.581q-.12,1.041-.3,1.9t-.36,1.7q-.18.841-.3,1.742a11.757,11.757,0,0,0-.08,1.982q-.32.921-.681,1.962T39.4-6.006a3.74,3.74,0,0,0-1,1.241q-.36.721-.761,1.441-.16.16-.2.08t-.28-.12a.361.361,0,0,1,0,.24.534.534,0,0,1-.1.14.323.323,0,0,0-.08.18.632.632,0,0,0,.06.32,3.172,3.172,0,0,0-1,.681,7.652,7.652,0,0,1-.941.8,2.847,2.847,0,0,1-1.2.48A3.761,3.761,0,0,1,32.071-.8a15.41,15.41,0,0,1-2.9-2.763A13.128,13.128,0,0,1,27.106-7.287ZM52.611-.44Q51.49-.08,50.169.28a10,10,0,0,1-2.643.36,4.683,4.683,0,0,1-3.163-1,2.17,2.17,0,0,0-.36-.6,2.971,2.971,0,0,1-.22-.34,1.406,1.406,0,0,1-.14-.5,4.339,4.339,0,0,1-.761-1.3,6.688,6.688,0,0,1-.38-1.521,7.812,7.812,0,0,1-.04-1.582,7.873,7.873,0,0,1,.26-1.521.989.989,0,0,0,.1-.32q.02-.16.06-.36.16-.641.34-1.241a3.429,3.429,0,0,1,.5-1.041,1.039,1.039,0,0,1,0-.8,5.56,5.56,0,0,1,.36-.8q.561-1.521.941-2.583t.781-2.1q.681-1.8,1.281-3.563t1.081-3.8q.32-.2.48-.28.24-.08.4-.12a14.929,14.929,0,0,0,1.682.7,5,5,0,0,0,1.6.34,1.84,1.84,0,0,1,.4.3,2.184,2.184,0,0,0,.16.18,7.809,7.809,0,0,1,.761,1.061,2.172,2.172,0,0,1,.2,1.421q-.24.36-.36.36a11.218,11.218,0,0,1-.42,1.361q-.22.561-.46,1.121-.28.6-.521,1.2a7.8,7.8,0,0,0-.4,1.481,1.376,1.376,0,0,0-.22.36q-.06.16-.14.36t-.18.42a1.028,1.028,0,0,1-.3.38,6.562,6.562,0,0,1-.38,1.682q-.26.641-.541,1.281-.48,1.161-.861,2.322a10.274,10.274,0,0,0-.46,2.643,1.025,1.025,0,0,1,.38-.08h.34a3.529,3.529,0,0,1,.841.12,6.712,6.712,0,0,1,2.623-.761q1.421-.12,2.823-.16h1.121a6.342,6.342,0,0,0,1.041-.08,2.357,2.357,0,0,0,.46.22,1.658,1.658,0,0,0,.3.02,2.487,2.487,0,0,1,.48.04,3.61,3.61,0,0,0,.921.641,9.431,9.431,0,0,0,.921.36q.44.16.861.34a3.566,3.566,0,0,1,.821.5l.28,1.722q.28.36.24.48a.653.653,0,0,1-.16.48l.08.44a2.267,2.267,0,0,0-.821.28,3.535,3.535,0,0,0-.42.36,4.23,4.23,0,0,1-.46.04h-.26a5.77,5.77,0,0,0-1.361.2,7.044,7.044,0,0,0-2.242-.36q-.44,0-.921.04l-.961.08q-.48.08-.981.12t-1.021.04ZM72.391-2.8a3.107,3.107,0,0,1-.14,1.882A2.3,2.3,0,0,1,71.29.1a3.254,3.254,0,0,1-1.421.38A7.088,7.088,0,0,1,68.347.4,6.224,6.224,0,0,1,67.626-1q-.32-.841-.6-1.742t-.5-1.782q-.22-.881-.38-1.562a3.809,3.809,0,0,0,.26-1.1q.06-.621.08-1.261t.04-1.3a12.387,12.387,0,0,1,.1-1.261,18.764,18.764,0,0,1,.821-3.2,22.047,22.047,0,0,0,.861-3.163,1.075,1.075,0,0,0-.06-.681.872.872,0,0,1-.06-.6.313.313,0,0,1,.24-.22.321.321,0,0,0,.24-.26,1.571,1.571,0,0,0,.06-.721,1.061,1.061,0,0,1,.14-.681,10.563,10.563,0,0,0,.5-.941,2.31,2.31,0,0,0,.22-1.3,4.465,4.465,0,0,0,.681-.561,6.636,6.636,0,0,1,.661-.581,4.268,4.268,0,0,1,.761-.46,2.361,2.361,0,0,1,1.021-.2,2.071,2.071,0,0,1,.42.881l.2.961a3.971,3.971,0,0,0,.3.9,1.425,1.425,0,0,0,.681.661v.8q0,.48.04.941a3.236,3.236,0,0,0,.18.841.786.786,0,0,0,.46.5q-.721,1.922-1.341,3.8a35.282,35.282,0,0,0-1.021,3.784,24.794,24.794,0,0,0-.5,3.824A16.642,16.642,0,0,0,72.391-2.8ZM85.243-7.287a.723.723,0,0,0-.521.42q-.16.34-.3.7t-.28.661a.449.449,0,0,1-.42.3,1.155,1.155,0,0,1-.22.561q-.18.24-.34.5a2.092,2.092,0,0,0-.24.561,1.114,1.114,0,0,0,.08.7,1.048,1.048,0,0,0-.4.681q-.08.44-.18.841a1.638,1.638,0,0,1-.34.681,1.033,1.033,0,0,1-.881.24q-.12.16-.04.2t.12.28a.93.93,0,0,0-.661.06,1.294,1.294,0,0,1-.541.18,2.642,2.642,0,0,1-1.261-.841A7.281,7.281,0,0,1,77.936-1.9q-.38-.741-.681-1.5t-.581-1.321a1.89,1.89,0,0,0,.04-.861,1.756,1.756,0,0,0-.28-.7q1.962-4.164,4.284-8.889t4.4-9.329q.921.36,1.822.821a9.359,9.359,0,0,1,1.642,1.061,6.193,6.193,0,0,1,1.261,1.381,4.408,4.408,0,0,1,.681,1.742q-.08.24-.18.18t-.18.06a.982.982,0,0,1,.18.28.325.325,0,0,1,0,.16.95.95,0,0,0-.02.22.928.928,0,0,0,.12.38q-.16-.04-.22.04t-.26,0a1.353,1.353,0,0,1,.1.721,1.848,1.848,0,0,1-.18.5,2.593,2.593,0,0,0-.2.48,1.154,1.154,0,0,0,.04.661.245.245,0,0,0-.18.06.8.8,0,0,0-.1.12.8.8,0,0,1-.1.12.166.166,0,0,1-.18.02,9.739,9.739,0,0,1,.08,1.762q-.04.881-.06,1.782t.02,1.882a10.982,10.982,0,0,0,.28,2.022,6.763,6.763,0,0,0,2.3-2.162,12.64,12.64,0,0,0,1.4-2.963,21.276,21.276,0,0,0,.821-3.523q.28-1.882.6-3.844a2.491,2.491,0,0,0,.561-.881q.2-.521.36-1.1l.32-1.161a5.841,5.841,0,0,1,.4-1.061,2.234,2.234,0,0,1,1.021.38,7.394,7.394,0,0,1,.781.641,8.773,8.773,0,0,0,.761.641,2.1,2.1,0,0,0,1,.38q.48.681.881,1.321a3.693,3.693,0,0,1,.521,1.361,2.488,2.488,0,0,0-.3.721q-.1.4-.22.8a3.357,3.357,0,0,1-.32.741,1.785,1.785,0,0,1-.561.581q-.12,1.041-.3,1.9t-.36,1.7q-.18.841-.3,1.742a11.757,11.757,0,0,0-.08,1.982q-.32.921-.681,1.962t-.561,1.882a3.74,3.74,0,0,0-1,1.241q-.36.721-.761,1.441-.16.16-.2.08t-.28-.12a.361.361,0,0,1,0,.24.534.534,0,0,1-.1.14.323.323,0,0,0-.08.18.632.632,0,0,0,.06.32,3.172,3.172,0,0,0-1,.681,7.652,7.652,0,0,1-.941.8,2.847,2.847,0,0,1-1.2.48A3.761,3.761,0,0,1,90.208-.8a15.41,15.41,0,0,1-2.9-2.763A13.128,13.128,0,0,1,85.243-7.287ZM122.52-22.542a1.62,1.62,0,0,1,.02.42q-.02.14-.04.26a1.586,1.586,0,0,0-.02.26,1.7,1.7,0,0,0,.08.42,4.59,4.59,0,0,1-1.942,1.862,9.7,9.7,0,0,1-2.382.721q-1.281.22-2.623.46A7.778,7.778,0,0,0,112.95-17.1a1.153,1.153,0,0,0-.941,0,2.374,2.374,0,0,1-1.221.12,1.337,1.337,0,0,1-.6.34q-.36.1-.721.22a1.594,1.594,0,0,1,.14.741,1.24,1.24,0,0,0,.1.621,17.416,17.416,0,0,0,3.1-.04q1.7-.16,3.343-.2.04.2-.04.26t-.04.22a3.783,3.783,0,0,1,.561.5q.28.3.561.581a3.03,3.03,0,0,0,.581.46,1.112,1.112,0,0,0,.7.14,2.39,2.39,0,0,1,.22.7,1.461,1.461,0,0,1-.1.781q-.641.44-1.281.9a10.607,10.607,0,0,1-1.341.821,7.946,7.946,0,0,1-1.481.581,5.55,5.55,0,0,1-1.742.18h-.3a.484.484,0,0,1-.26-.12,1.343,1.343,0,0,1-.9.12,1.343,1.343,0,0,0-.9.12,2.363,2.363,0,0,0-1.061-.18,3.152,3.152,0,0,1-1.1-.14,13.856,13.856,0,0,0-1.161,1.8,15.808,15.808,0,0,0-.921,2.042,12.306,12.306,0,0,0,2.262.16q.9-.04,1.7-.14t1.642-.2a14.636,14.636,0,0,1,2.122-.06,5.308,5.308,0,0,1,1.9-.581,9.986,9.986,0,0,0,2.022-.46,1.3,1.3,0,0,1,.561.42q.24.3.46.561a3.75,3.75,0,0,0,.46.46.766.766,0,0,0,.6.16.842.842,0,0,1,.22.38q.06.22.1.42a.872.872,0,0,0,.14.34.319.319,0,0,0,.34.1A6.031,6.031,0,0,1,119.3-1.942a5.359,5.359,0,0,1-1.782,1.061,12.564,12.564,0,0,1-2.222.561q-1.221.2-2.7.48a1,1,0,0,1-.6-.02,1.45,1.45,0,0,0-.561-.1q-.921.2-2.2.36a16.84,16.84,0,0,1-2.6.12A11.854,11.854,0,0,1,104.1.18,4.119,4.119,0,0,1,102.14-.881a1.309,1.309,0,0,1-.42-.661.89.89,0,0,0-.541-.581,10.894,10.894,0,0,0-.16-1.161q-.12-.641-.24-1.341t-.18-1.381a4.171,4.171,0,0,1,.06-1.241,2.511,2.511,0,0,1,.5-1.081,1.2,1.2,0,0,0,.26-1.041.277.277,0,0,0,.24-.22q.04-.18.32-.14.24-.721.521-1.361t.581-1.241q.3-.6.6-1.221t.581-1.381a3.3,3.3,0,0,1-.821-1.141,6.3,6.3,0,0,1-.38-1.241q-.12-.621-.2-1.281a8.285,8.285,0,0,0-.28-1.341,3.434,3.434,0,0,1,.981-.981,5.834,5.834,0,0,1,1.261-.621,10.841,10.841,0,0,1,1.481-.4q.8-.16,1.682-.36,1.6-.521,2.863-.8t2.482-.46q1.221-.18,2.542-.34t3-.48a1.011,1.011,0,0,0,.681.36q.16-.36.38-.22t.18-.22a3.809,3.809,0,0,0,1.021,1.141A6.614,6.614,0,0,0,122.52-22.542Z" transform="translate(166.692 45)"/><path class="c" d="M12.06,18.525c.08-.08.094-.133.04-.16a.768.768,0,0,0-.239-.06l-.341-.04a.488.488,0,0,1-.3-.14c-.293-.186-.514-.334-.661-.44a3.975,3.975,0,0,0-.361-.24,2.9,2.9,0,0,1-.3-.2q-.161-.12-.441-.36a2.323,2.323,0,0,0,.18-.661,1.86,1.86,0,0,0-.02-.481c-.026-.147-.059-.3-.1-.46a1.946,1.946,0,0,1-.02-.641,40.488,40.488,0,0,1,3.884-2.222q.988-.482,1.948-.888l-.545-.182A35.083,35.083,0,0,0,11,10.328a24.846,24.846,0,0,0-3.824-.5,16.645,16.645,0,0,0-3.883.261,3.109,3.109,0,0,1-1.882-.14A2.3,2.3,0,0,1,.391,8.986,3.257,3.257,0,0,1,.01,7.565,7.071,7.071,0,0,1,.09,6.043a6.227,6.227,0,0,1,1.4-.72q.841-.321,1.742-.6t1.782-.5Q5.9,4,6.576,3.842a3.835,3.835,0,0,0,1.1.26q.62.059,1.261.08l1.3.04a12.519,12.519,0,0,1,1.261.1,18.821,18.821,0,0,1,3.2.821,21.68,21.68,0,0,0,2.429.706,12.053,12.053,0,0,1-1.19-.7,3.832,3.832,0,0,1-1.6-2.082,1.319,1.319,0,0,1-.981-.641,2.008,2.008,0,0,1-.34-1.4,5.012,5.012,0,0,0,.741-.541,2.3,2.3,0,0,1,.86-.46,2.923,2.923,0,0,1,1.141.08,15.035,15.035,0,0,1,1.522.44q.821.281,1.722.6t1.7.521q.8.2,1.742.36a8.566,8.566,0,0,1,1.742.481,2.537,2.537,0,0,1,.62.381,1.42,1.42,0,0,0,.621.3,7.11,7.11,0,0,1,1.542.461q.821.34,1.661.741t1.661.821a16.548,16.548,0,0,0,1.542.7q-.04.24.52.6a2.481,2.481,0,0,0,1.2.4,1.188,1.188,0,0,0,.381.86,2.675,2.675,0,0,1,.581.861,1.923,1.923,0,0,1,.139,1.121,2.15,2.15,0,0,1-.46,1,3.186,3.186,0,0,1-.941.761,4.076,4.076,0,0,1-1.341.44,1.5,1.5,0,0,0-.741-.16,1.325,1.325,0,0,1-.7-.16,12.143,12.143,0,0,1-1.741.941,3.165,3.165,0,0,1-1.982.26.453.453,0,0,1-.461.32.4.4,0,0,0-.42.36,16.782,16.782,0,0,0-3.2.881q-1.561.6-3.043,1.3t-2.863,1.421q-1.381.721-2.662,1.241a1.628,1.628,0,0,0-1.041.02,2.284,2.284,0,0,1-.812.148Q12.155,18.532,12.06,18.525Z" transform="translate(0 20)"/></g></svg>