<?xml version="1.0" encoding="utf-8"?>
<!-- Generator: Adobe Illustrator 21.0.2, SVG Export Plug-In . SVG Version: 6.00 Build 0)  -->
<svg version="1.1" id="Camada_1" xmlns="http://www.w3.org/2000/svg" xmlns:xlink="http://www.w3.org/1999/xlink" x="0px" y="0px"
	 viewBox="0 0 302.7 238.1" style="enable-background:new 0 0 302.7 238.1;" xml:space="preserve">
<style type="text/css">
	.st0{fill:#0081ff;}
</style>
<g>
	<path class="st0" d="M69.1,106.3c0.7,0.2,1.3,0.6,1.6,1.2c0.3,0.6,0.5,1.2,0.3,1.8c-0.1,0.2-0.4,1.1-0.9,2.8
		c-0.5,1.7-1.4,3.6-2.5,5.9c-1.1,2.2-2.5,4.5-4.3,6.9c-1.7,2.3-3.9,4.3-6.4,5.7c-2.3,1.4-4.7,2.2-7,2.4c-2.4,0.2-4.3,0.2-5.8,0.1
		h-0.5c-0.3-0.1-0.6-0.1-0.9-0.1l-0.1-0.2H42c-0.1,0-0.1,0-0.1-0.1h-0.1c-4.3-0.9-7.2-3.5-8.7-7.7c-0.8-2.2-1.3-4.3-1.4-6.4
		c-0.1-2.1-0.1-4.3,0.2-6.4c0-0.2,0-0.4,0.1-0.6c0.1-0.2,0.1-0.4,0.1-0.7c0.4-1.9,0.9-3.8,1.5-5.7c0.6-1.9,1.4-3.7,2.5-5.4
		c0.6-1,1.3-1.9,2-2.8c0.7-0.9,1.6-1.7,2.6-2.3c2.4-1.8,5-2.6,7.6-2.5c2.6,0.1,5.2,1.1,7.7,3.1c1.5,1.3,2.5,3,3,5
		c0.1,0.7,0.2,1.4,0.2,2.1c0,0.7,0,1.5,0,2.2c0,0.6-0.1,1.2-0.3,1.8c-0.2,0.6-0.6,1.2-1.1,1.6c-0.7,0.7-1.5,1-2.3,0.9
		c-0.9-0.2-1.6-0.7-2-1.6c-0.3-0.6-0.5-1.1-0.6-1.7c-0.1-0.6-0.3-1.2-0.5-1.8c-0.4-1.1-1.1-1.8-2-2.1c-0.9-0.3-1.9-0.2-2.9,0.5
		c-0.6,0.5-1.2,1.2-1.7,2c-1.5,2.7-2.5,5.6-3.1,8.6c-0.6,3-0.8,6.1-0.5,9.2c0.1,1.3,0.6,2.3,1.4,3.1c0.8,0.7,1.8,1.3,3.2,1.5
		c2.6,0.5,5.1-0.1,7.4-1.5c2.4-1.4,4.5-3.1,6.4-5.1c0.9-1.3,1.7-2.7,2.4-4.1c0.6-1.2,1.2-2.5,1.7-3.8c0.5-1.3,0.9-2.6,1.3-3.9
		c0.2-0.7,0.6-1.3,1.2-1.7C67.7,106.3,68.4,106.2,69.1,106.3z"/>
	<path class="st0" d="M101.5,106.3c0.6,0.3,1.1,0.8,1.4,1.5c0.3,0.6,0.3,1.3-0.1,2c-0.5,1.1-0.9,2.2-1.5,3.3c-0.5,1-1,2.1-1.7,3.4
		c-0.7,1.3-1.4,2.7-2.1,4c-0.3,0.6-0.7,1.1-1,1.7c-0.3,0.6-0.6,1.1-1,1.7c-0.7,1.4-1.5,2.7-2.4,4c-0.9,1.3-1.8,2.5-2.8,3.7
		c-0.6,0.8-1.3,1.5-2,2.1c-0.7,0.6-1.5,1.2-2.3,1.7c-1.4,1-2.9,1.6-4.5,1.6c-1.6,0-3.1-0.4-4.7-1.2c-2.3-1.2-4.1-2.8-5.5-4.9
		c-0.8-1.1-1.5-2.3-2.1-3.5c-0.6-1.2-1-2.5-1.5-3.8c-1.7-4.7-2.6-9.4-2.9-14.2c-0.3-4.8,0-9.6,0.8-14.5c0.4-2.4,0.9-4.8,1.5-7.2
		c0.6-2.4,1.4-4.7,2.3-6.9c0.6-1.4,1.2-2.8,2-4.1c0.8-1.3,1.8-2.6,2.9-3.7c0.5-0.5,1-1,1.5-1.5c0.5-0.5,1.1-0.9,1.7-1.3
		c1.1-0.7,2.3-1.1,3.5-1.2c1.2-0.1,2.4,0,3.5,0.4c1.1,0.4,2,1,2.9,1.9c0.9,0.9,1.5,1.9,2,3.2c0.5,1.2,0.8,2.5,0.9,3.8
		c0.1,1.3,0.2,2.6,0.2,4c-0.3,4.5-1.1,8.8-2.4,13c-2.5,7.6-6,14.7-10.4,21.5c-0.1,0.3-0.2,0.6-0.4,0.9c-0.1,0.3-0.2,0.6-0.1,0.9
		c0.1,1.3,0.3,2.6,0.6,4c0.3,1.3,0.9,2.6,1.7,3.8c0.5,0.8,1,1.4,1.3,1.8c0.4,0.4,0.8,0.6,1.2,0.6c0.4,0.1,0.8-0.1,1.2-0.3
		c0.4-0.3,1-0.7,1.6-1.1c1.1-0.9,2-1.8,2.9-2.9c0.9-1.1,1.6-2.1,2.3-3.3c1.2-2,2.4-4,3.6-6c1.2-2,2.3-4,3.5-6
		c0.1-0.1,0.1-0.2,0.2-0.3c0.1-0.1,0.1-0.1,0.1-0.3c0.1-0.2,0.2-0.4,0.3-0.6c0.1-0.2,0.1-0.4,0.3-0.6c0.3-0.6,0.8-1.1,1.4-1.4
		C100.1,106.1,100.8,106.1,101.5,106.3L101.5,106.3z M77.9,87.1c-0.3,2.9-0.5,5.9-0.7,8.8c-0.2,2.9-0.4,5.8-0.6,8.8l0.3,0.8
		c0.4-0.9,0.8-1.6,1.1-2.3c0.3-0.7,0.7-1.4,1.1-2.2c1.1-2.3,2.1-4.6,3-7c0.9-2.4,1.6-4.9,2-7.4c0.3-1.9,0.5-3.8,0.5-5.6
		c0-0.6-0.1-1.3-0.3-1.9c-0.2-0.7-0.3-1.3-0.5-1.9c-0.3-0.8-0.6-1.2-1.1-1.3c-0.4-0.1-0.9,0.3-1.4,1c-0.3,0.3-0.5,0.6-0.7,1
		c-0.2,0.4-0.4,0.8-0.6,1.2c-0.6,1.3-1,2.7-1.4,4.1C78.2,84.3,78,85.7,77.9,87.1z"/>
	<path class="st0" d="M126.6,106.5c0.6,0.3,1.1,0.8,1.3,1.5s0.2,1.4,0,2c-0.1,0.1-0.3,0.5-0.6,1.2c-0.5,1-1,2-1.5,3
		c-0.7,1.4-1.5,2.8-2.3,4.1c-0.9,1.6-1.8,3.1-2.7,4.7c-0.5,0.9-0.9,1.6-1.5,2.1c-1.4,2.2-2.8,4.3-4.4,6.3c-0.6,0.8-1.3,1.6-2.1,2.3
		c-0.8,0.7-1.6,1.3-2.5,1.8c-3.4,1.8-6.3,1.3-8.7-1.5c-0.8-0.9-1.5-2-2-3.1c-0.5-1.1-0.9-2.2-1.2-3.3c-0.8-3.2-1.2-6.5-1.4-9.8
		c-0.1-3.3,0.1-6.6,0.8-10c0.1-0.5,0.2-1.1,0.3-1.6c0.2-0.6,0.4-1.1,0.7-1.6c1.1-2.3,2.7-3.3,4.9-3.2c1,0.1,1.8,0.5,2.6,1.2
		c0.7,0.7,1.3,1.6,1.5,2.9c0.3,1.3,0.5,2.6,0.5,3.8c-0.1,1.8-0.3,3.6-0.5,5.4c-0.2,1.8-0.4,3.6-0.5,5.4c-0.1,2-0.3,4-0.5,6v0.9
		c0,0.3,0.1,0.6,0.2,0.9c0.1,0.3,0.2,0.7,0.6,1.2c0.3,0.4,0.9,0.4,1.8-0.1h0.1l0.1-0.1l0.2-0.2c0.1,0,0.2,0,0.2,0c0,0,0,0,0.1,0
		l0.4-0.4l0.6-0.6c0.7-0.7,1.6-1.7,2.5-2.9c0.9-1.2,1.9-2.7,3.1-4.5c0.9-1.5,1.8-3,2.6-4.5c0.7-1.3,1.4-2.7,2.1-4
		c0.7-1.4,1.3-2.8,2-4c0.3-0.6,0.9-1.1,1.5-1.3C125.3,106.2,126,106.2,126.6,106.5L126.6,106.5z M106.1,95.2c-1.7,0-3-0.4-4.1-1.3
		c-1.1-0.9-1.6-2.1-1.8-3.5c-0.1-1.2,0.3-2.3,1-3.2c0.7-1,1.6-1.5,2.8-1.7c1.2-0.2,2.2,0,3.2,0.6c0.9,0.7,1.5,1.6,1.8,2.8
		c0.1,0.3,0.2,0.7,0.3,0.9c0.1,0.3,0.1,0.6,0.3,0.9c0.5,1.3,0.4,2.4-0.3,3.4C108.6,94.9,107.5,95.4,106.1,95.2z"/>
	<path class="st0" d="M173.5,106.5c0.6,0.3,1.1,0.8,1.3,1.4c0.3,0.7,0.2,1.4,0,2.1c-0.1,0.1-0.3,0.5-0.6,1.3
		c-0.4,0.8-0.9,1.8-1.5,3.1s-1.3,2.7-2.1,4.4c-0.9,1.7-1.8,3.4-2.7,5.1c-2.4,4.4-4.4,7.7-6.1,9.9c-1.7,2.2-3,3.6-4.2,4.4
		c-0.9,1-1.9,1.6-3,1.9c-1.1,0.3-2.2,0.3-3.3,0c-1.1-0.3-2-0.8-2.9-1.5c-0.9-0.8-1.5-1.7-1.9-2.9c-0.4-0.8-0.6-1.7-0.8-2.6
		c-0.2-0.9-0.3-1.8-0.3-2.8c-0.2-3.7-0.1-7.5,0.3-11.2c0.4-3.8,1.2-7.5,2.3-11.1c0.1-0.2,0.1-0.5,0.1-0.7c0-0.3,0.1-0.7,0.2-1.1
		c-0.4,0.4-0.7,0.7-0.9,0.9c-0.2,0.2-0.4,0.4-0.6,0.6c-1.6,1.8-3.1,3.7-4.4,5.7c-1.4,2-2.7,4-3.8,6.1c-0.6,1.2-1.3,2.4-1.9,3.5
		c-0.6,1.2-1.3,2.4-2.1,3.5c-0.6,1.1-1.4,2.2-2.4,3.1c-1.1,1.1-2.4,1.6-3.7,1.4c-1.3-0.1-2.5-0.9-3.4-2.2c-0.4-0.5-0.7-1.1-1-1.7
		c-0.3-0.6-0.5-1.2-0.6-1.8c-1-3.5-1.5-7-1.5-10.5c-0.1-3.5,0.3-7.1,1-10.5c0.1-0.8,0.4-1.5,0.8-2.2c0.4-0.8,0.9-1.4,1.5-1.9
		c0.6-0.5,1.3-0.6,2.1-0.5c0.8,0.1,1.5,0.4,2,1c0.5,0.5,0.9,1.3,1.1,2.2c0.2,1,0.3,2,0.3,3.1v14.1c0.1,0.1,0.2,0,0.3-0.2
		c0.1-0.2,0.3-0.5,0.5-0.8c0.2-0.3,0.4-0.7,0.6-1.2c0.2-0.4,0.5-0.8,0.8-1.2c0.1-0.2,0.2-0.4,0.4-0.6c0.2-0.2,0.3-0.4,0.4-0.6h0.1
		c1.1-1.5,2.2-3.1,3.3-4.7c1.1-1.5,2.2-3.1,3.3-4.6c0.9-1.2,1.9-2.3,2.9-3.3c1-1,2.2-1.9,3.4-2.7c1.2-0.9,2.4-1.5,3.6-2
		c1.5-0.6,2.8-0.6,4.1-0.2c1.2,0.4,2.2,1.4,2.9,2.8c0.7,1.5,1.3,3.1,1.5,4.9c0.3,1.7,0.3,3.2,0.2,4.8c-0.2,1.5-0.4,3.1-0.7,4.6
		c-0.5,2.6-1,5.2-1.4,7.9c-0.4,2.6-0.9,5.2-1.4,7.9c-0.1,0.5-0.2,0.9-0.2,1.3c0,0.4,0,0.8-0.1,1.3h0.1c0.9-0.9,1.9-2.1,3-3.8
		c1.1-1.7,2.3-3.6,3.6-5.9c1.4-2.5,2.7-5,4-7.5c1.4-2.8,2.7-5.6,4-8.4c0.3-0.6,0.8-1.1,1.4-1.3C172.1,106.2,172.8,106.2,173.5,106.5
		z"/>
	<path class="st0" d="M198.3,106.5c0.6,0.3,1.1,0.8,1.3,1.5c0.3,0.7,0.2,1.4,0,2c-0.1,0.1-0.3,0.5-0.6,1.2c-0.5,1-1,2-1.5,3
		c-0.7,1.4-1.5,2.8-2.3,4.1c-0.9,1.6-1.8,3.1-2.7,4.7c-0.5,0.9-0.9,1.6-1.5,2.1c-1.4,2.2-2.8,4.3-4.4,6.3c-0.6,0.8-1.3,1.6-2.1,2.3
		c-0.8,0.7-1.6,1.3-2.5,1.8c-3.4,1.8-6.3,1.3-8.7-1.5c-0.8-0.9-1.5-2-2-3.1c-0.5-1.1-0.9-2.2-1.2-3.3c-0.8-3.2-1.3-6.5-1.4-9.8
		c-0.1-3.3,0.1-6.7,0.8-10c0.1-0.5,0.2-1.1,0.3-1.6c0.2-0.6,0.4-1.1,0.7-1.6c1.1-2.3,2.7-3.3,4.9-3.2c1,0.1,1.8,0.5,2.6,1.2
		c0.7,0.7,1.3,1.6,1.5,2.9c0.3,1.3,0.5,2.6,0.5,3.8c-0.1,1.8-0.3,3.6-0.5,5.4c-0.2,1.8-0.4,3.6-0.5,5.4c-0.1,1-0.1,2-0.2,3
		c-0.1,1-0.2,2-0.3,2.9v0.9c0,0.3,0.1,0.6,0.2,0.9c0.1,0.3,0.2,0.7,0.6,1.2c0.3,0.4,0.9,0.4,1.7-0.1h0.1l0.1-0.1l0.2-0.2
		c0.1,0,0.2,0,0.2,0c0,0,0,0,0.1,0l0.4-0.4l0.6-0.6c0.7-0.7,1.6-1.7,2.5-2.9c0.9-1.2,1.9-2.7,3.1-4.5c0.9-1.5,1.8-3,2.6-4.5
		c0.7-1.3,1.4-2.7,2.1-4c0.7-1.4,1.3-2.8,2-4c0.3-0.6,0.9-1.1,1.5-1.3C197,106.2,197.7,106.2,198.3,106.5L198.3,106.5z M177.8,95.2
		c-1.6,0-3-0.4-4.1-1.3c-1.1-0.9-1.6-2.1-1.7-3.5c-0.1-1.2,0.3-2.3,1-3.2c0.7-1,1.6-1.5,2.8-1.7c1.2-0.2,2.2,0,3.2,0.6
		c0.9,0.7,1.5,1.6,1.8,2.8c0.1,0.3,0.2,0.7,0.3,0.9c0.1,0.3,0.1,0.6,0.3,0.9c0.5,1.3,0.4,2.4-0.3,3.4
		C180.3,94.9,179.2,95.4,177.8,95.2L177.8,95.2z"/>
	<path class="st0" d="M227.7,106.3c0.7,0.1,1.3,0.4,1.8,1c0.5,0.5,0.6,1.2,0.5,1.8c0,0.1-0.1,0.9-0.3,2.3c-0.2,1.4-0.7,3.1-1.3,5.1
		s-1.6,4-2.9,6.2c-1.3,2.2-2.9,4-4.9,5.6c-0.1,0.2-0.2,0.3-0.3,0.3c-0.9,0.8-1.9,1.5-2.9,2.1c-1,0.6-2.1,1.1-3.2,1.5
		c-0.2,0.1-0.5,0.3-1,0.4c0.3,0.6,0.6,1.1,0.9,1.4c1.3,1.8,2.1,3.6,2.5,5.4c0.4,1.8,0.4,3.8,0.1,5.8c-0.4,2.1-0.9,4.1-1.7,6.1
		c-0.7,1.9-1.8,3.7-3.2,5.3c-0.6,0.8-1.3,1.5-2.1,2.1c-0.8,0.6-1.7,1.1-2.6,1.3c-3.2,1-6.1,0.3-8.4-2c-0.8-0.8-1.5-1.7-2.1-2.6
		c-0.6-1-1-2-1.4-3.1c-1.1-3.5-1.8-7.3-2.3-11.3c-0.5-6.6-0.4-13.2,0.1-19.7c0.5-6.5,1.7-12.9,3.4-19.4c0.8-2.6,1.6-5.2,2.6-7.8
		c1-2.5,2.2-5,3.5-7.4c0.7-1.4,1.5-2.7,2.4-3.9c0.9-1.2,1.9-2.4,3.1-3.4c1.3-1.4,2.9-2.4,4.8-3.1c3-1.1,5.7-0.6,8.2,1.5
		c2.7,2.5,3.8,5.7,3.3,9.5c-0.8,5.1-2.6,9.7-5.4,13.8c-4.1,6.3-8.7,12.1-13.8,17.4c-0.8,0.8-1.3,1.6-1.5,2.5
		c-0.2,0.9-0.2,1.8-0.1,2.6c0,0.3,0.1,0.7,0.4,1.1c0.3,0.4,0.6,0.6,0.9,0.7c0.7,0.5,1.4,0.8,2.2,1.1c0.8,0.3,1.6,0.5,2.4,0.6
		c1.2,0,2.5-0.2,3.9-0.6c1.4-0.4,2.8-1.2,4.3-2.3c1.3-1,2.4-2.1,3.3-3.5c0.9-1.3,1.6-2.7,2.2-4.2c0.1-0.2,0.2-0.4,0.2-0.6
		c0-0.2,0-0.4,0.1-0.6c0.2-0.9,0.4-1.7,0.6-2.5c0.2-0.8,0.4-1.6,0.6-2.4c0.1-0.3,0.1-0.6,0.3-0.9c0.1-0.3,0.2-0.6,0.3-0.9
		c0.1-0.7,0.4-1.4,0.9-1.8C226.3,106.4,226.9,106.2,227.7,106.3L227.7,106.3z M207.5,151.7c0.8-1.2,1.4-2.5,1.8-3.9
		c0.4-1.4,0.7-2.8,0.7-4.3c0-0.6,0-1.2-0.1-1.8c-0.1-0.6-0.2-1.1-0.4-1.7c-0.7-1.6-1.7-3.1-2.9-4.4c-1.3-1.3-2.7-2.5-4.4-3.8
		c-0.1,2.4-0.3,4.7-0.4,7.1c-0.2,2.2-0.1,4.5,0.2,6.7c0.3,2.1,0.8,4.1,1.3,6.1c0.1,0.4,0.3,0.8,0.5,1.2c0.2,0.4,0.6,0.7,1.1,0.8
		c0.5,0.1,0.9-0.1,1.2-0.4c0.3-0.3,0.6-0.7,1-1C207.3,152.2,207.4,152,207.5,151.7L207.5,151.7z M205.2,109.8
		c-0.1,0.3-0.1,0.5-0.1,0.8c0,0.3-0.1,0.5-0.2,0.8c0.5-0.1,0.7-0.2,0.7-0.3c1.9-2.2,3.8-4.4,5.6-6.6c1.8-2.3,3.5-4.7,4.9-7.2
		c0.8-1.5,1.4-3,1.9-4.4s0.8-3,0.9-4.6c0.1-1.3,0-2.4-0.4-3.3c-0.4-1.3-1-2-1.7-2.1c-0.7-0.1-1.5,0.3-2.4,1.4c-0.8,0.9-1.5,1.9-2,3
		c-0.6,1.1-1.1,2.2-1.5,3.4c-1.2,3.1-2.3,6.3-3.2,9.5C206.6,103.2,205.8,106.5,205.2,109.8L205.2,109.8z"/>
	<path class="st0" d="M270.1,107c0.6,0.5,0.9,1.1,0.9,1.8c0,0.7-0.2,1.3-0.6,2l-13.5,14.9c0,4.3-0.3,8.5-0.8,12.7
		c-0.5,4.2-1.2,8.5-2,12.7c-0.2,1.2-0.4,2.4-0.6,3.5c-0.3,1.2-0.6,2.4-0.9,3.6c-0.6,2.6-1.9,4.9-3.8,7c-1,1.1-2.2,2-3.5,2.7
		c-1.3,0.7-2.7,1-4.3,1c-3.2,0-5.5-1.4-6.9-4.1c-0.4-0.8-0.8-1.6-1-2.5c-0.2-0.9-0.3-1.7-0.3-2.6c0.1-3.5,0.4-7,1-10.5
		c0.6-3.4,1.8-6.7,3.6-10c0.8-1.5,1.7-3.1,2.6-4.5c0.9-1.5,1.9-3,2.9-4.4c0.3-0.5,0.5-0.9,0.7-1.4c0.2-0.5,0.2-1,0-1.7
		c-0.5,0.3-0.7,0.5-0.8,0.8c-0.5,0.7-1,1.4-1.5,2.1c-0.5,0.7-1,1.4-1.5,2.1c-0.2,0.3-0.5,0.5-0.7,0.8c-0.2,0.2-0.5,0.5-0.8,0.8
		c-2.3,2.3-4.7,3.3-7.1,3c-2.4-0.3-4.5-1.8-6.2-4.5c-1.4-2.2-2.1-4.6-2.1-7.2c-0.1-2.9,0-5.8,0.2-8.7c0.3-2.9,0.8-5.8,1.6-8.7
		c0.3-1.1,0.7-2.1,1.1-3.2c0.1-0.3,0.2-0.6,0.4-0.9c0.1-0.3,0.4-0.5,0.6-0.7c0.5-0.6,1.1-1.1,1.8-1.3c0.7-0.3,1.3-0.2,2,0
		c1.4,0.5,2.1,1.5,2.3,3.1c0,0.5,0,0.9-0.1,1.3c-0.1,0.4-0.1,0.9-0.1,1.3c-0.3,2.4-0.6,4.8-0.8,7.2c-0.3,2.4-0.5,4.9-0.8,7.3
		c-0.2,1.1-0.2,2.4,0,3.7c0.1,0.6,0.3,1.2,0.5,1.8c0.2,0.6,0.6,1.1,1.2,1.5c0.3-0.3,0.7-0.5,1-0.8c0.3-0.2,0.7-0.5,0.9-0.8
		c2-2,3.8-4.2,5.3-6.6c1.5-2.3,2.7-4.9,3.7-7.6c0.3-0.9,0.5-1.8,0.6-3c0.1-1.1,0.2-2.3,0.3-3.5c0.1-1.2,0.2-2.4,0.3-3.5
		c0.1-1.1,0.4-2,0.8-2.7c0.8-1.5,2-2.3,3.5-2.4c1.5-0.1,2.8,0.6,3.8,2c0.3,0.4,0.5,0.8,0.7,1.3c0.2,0.5,0.4,0.9,0.5,1.4
		c0.3,1.4,0.6,2.8,0.9,4.3c0.3,1.4,0.6,2.9,0.9,4.4c0.1,0.2,0.1,0.4,0.2,0.6c0.1,0.2,0.1,0.5,0.2,0.8l0.4,5.6l10-11.1
		c0.5-0.5,1-0.8,1.8-0.8C269,106.4,269.6,106.6,270.1,107L270.1,107z M244.1,160.5c0.1-0.8,0.3-1.5,0.4-2.3c0.2-0.7,0.3-1.5,0.3-2.3
		c-0.1-2.6-0.2-5.2-0.3-7.8c-0.1-2.6-0.2-5.2-0.2-7.8c0-0.5,0-0.9-0.1-1.4c-0.1-0.5-0.1-1-0.2-1.5c-0.2,0.1-0.4,0.2-0.4,0.3
		l-0.3,0.3c-2.1,3.4-3.6,7-4.6,10.6c-1,3.7-1.3,7.5-1,11.5c0.1,0.4,0.2,0.8,0.3,1.2c0.1,0.4,0.3,0.8,0.4,1.1
		c0.4,0.8,0.9,1.3,1.5,1.4c0.6,0.1,1.3,0,2-0.4C243.1,162.7,243.8,161.8,244.1,160.5L244.1,160.5z"/>
</g>
</svg>
