<?xml version="1.0" encoding="utf-8"?>
<!-- Generator: Adobe Illustrator 21.0.2, SVG Export Plug-In . SVG Version: 6.00 Build 0)  -->
<svg version="1.1" id="Camada_1" xmlns="http://www.w3.org/2000/svg" xmlns:xlink="http://www.w3.org/1999/xlink" x="0px" y="0px"
	 viewBox="0 0 428.4 224.7" style="enable-background:new 0 0 428.4 224.7;" xml:space="preserve">
<style type="text/css">
	.st0{display:none;}
	.st1{display:inline;fill:#FFDD67;}
	.st2{display:inline;fill:#EBA352;}
	.st3{fill:#EBA352;stroke:#EBA352;stroke-miterlimit:10;}
	.st4{fill:#FFDD67;}
</style>
<g class="st0">
	<path class="st1" d="M166.2-17.6L152-7.6c0,0-7-19.9-12.5-32.4c-2.3-5-9.1-6.8-12.3-14c-5.5-12.5,1-23.3,7.6-15.5
		c7.6,9,18.7,15.6,21,20.8C159.5-40.1,166.2-17.6,166.2-17.6z"/>
	<path class="st1" d="M177.5-9.4c1,6.8,0.1,17.5-5.8,30c0,0-12.3-14.7-13.7-21.4c0,0-3.5-25.6-7-42c-1.4-6.7-9.2-10.6-11.2-20
		c-3.5-16.3,7-27.7,12.9-16.7c6.9,12.7,18.6,23.4,20,30.1C175.1-38.2,176-19.4,177.5-9.4z"/>
	<path class="st2" d="M159.3-22.3c0,0-1.1-9.7-4.6-26c-1.4-6.7-9.2-10.6-11.2-20c-1.2-5.6-0.8-10.7,0.6-14.4
		c-3.7,2.8-6.7,10.5-4.6,19.9c2,9.4,9.8,13.3,11.3,20c1,4.8,1.9,9.6,2.7,14.4l-10.8-4C142.6-32.4,159.3-22.3,159.3-22.3z"/>
	<path class="st1" d="M172.3-11.9c-14.3-13-30.1-20.8-40.4-25.9c-15.3-7.5-11.2,2.8-37.3,9.6c-3.4,0.9-7.5,3.4-4.4,9.9
		c3,6.3,27.6,1.5,31.4-2.2c0,0,10.3,12.6,20.6,12.3c0,0-1.8,8.3,0.7,12.4c0,0-14.6,7.6-20.8,14.2L104.8,6.8
		c-1.3-17.9-4.5-23.2-13.3-22.4c-8.2,0.8-7.3,8.5-7.1,14.8c0.3,11.4-2.7,13.3,0.1,17.8c10.7,17.3,24.1,28.1,49,28.1
		c9.3,0,15.3-0.2,21-3.1C164.1,37.3,188,2.3,172.3-11.9z"/>
	<path class="st2" d="M175.1-8.6c5.3,16.4-13.7,43.2-22.1,47.3c-5.7,2.8-11.7,3.1-21,3.1c-24.7,0.1-38.1-10.5-48.7-27.5
		c0.3,0.9,0.6,1.8,1.1,2.7c10.7,17.3,24.1,28.1,49,28.1c9.3,0,15.3-0.2,21-3.1C163.4,37.6,184.6,7.2,175.1-8.6z"/>
	<path class="st2" d="M101.8,7.3c0,0,16.1,10.3,20,10.9l-17-11.5c0.7-18.1-4.6-23.9-13.3-22.4c-0.6,0.1-1.3,0.3-1.9,0.4
		C98.3-16.1,102.5-10.3,101.8,7.3z"/>
	<path class="st2" d="M121.7-20.5c0,0,10.3,12.6,20.6,12.3v-2.3c-10.3,0.3-20.6-12.3-20.6-12.3c-3.8,3.8-28.4,8.5-31.4,2.2
		c-0.5-0.9-0.8-1.9-1-3c-0.3,1.4-0.1,3.1,1,5.3C93.3-12,117.9-16.8,121.7-20.5z"/>
</g>
<g>
	<g>
		<path class="st3" d="M70.6,75.8v0.4c0,1.1-0.9,2.1-2.7,3.1c-3.9,3.2-5.8,7.3-5.8,12.5c0,3.7,3.4,9.5,10.3,17.2
			c2.2,2.9,4.1,8.6,5.6,17l0.7,4.5v0.4l-1.1,5.8c0,2.1-0.4,3.7-1.1,5.1c0,3.2-0.8,5.6-2.5,7.2c-1.3,1.7-2.1,3.2-2.5,4.5
			c-1.9,0.6-3.3,1.5-4.2,2.5c-0.8,0.6-1.5,0.9-2,0.9h-1.6c-1.7,2-4.1,2.9-7.2,2.9h-1.1c-2.5,0-5.5-1.6-8.9-4.9
			c-3.6-4.4-5.4-9-5.4-13.8v-0.9c1.2-3.3,3.2-4.9,6-4.9h1.6c2,0,3.3,2,3.8,6c1.3,4.8,2.5,7.2,3.6,7.2c2.4-3.4,3.6-5.6,3.6-6.9v-8.7
			c-0.4-6.8-1.2-11.1-2.2-13c-0.7-1.2-1.2-3-1.6-5.1c-1.8-1.8-4.1-6-6.9-12.5c-1.1-2.6-1.8-7-2.2-13c0-3.9,1.5-7.2,4.5-10.1
			c1-1.7,1.7-2.9,2.2-3.6c0.8-1,3.9-1.8,9.2-2.7C67.9,72.9,70.6,73.8,70.6,75.8z"/>
		<path class="st3" d="M97.6,76c0.6-0.3,1.6-0.4,2.8-0.4c3.9,0.4,7.4,0.7,10.8,0.8c2.2,1.2,3.2,2.6,3.2,4.4c-2,4-5.9,5.9-11.7,5.9
			h-2.6L99,86.9v-0.2l-0.4,0.2c-0.3-0.2-0.6-0.2-0.8-0.2c-0.4,1.1-0.7,2.2-0.7,3.1v0.4c0,1.1,0.1,2.6,0.2,4.4l-1.1,3
			c0.2,2.1,0.5,3.1,0.8,3.1c0.3,0,1.4-0.1,3.2-0.2c5.6,1.3,8.4,2.2,8.4,2.7c0.9,0.8,1.3,1.6,1.3,2.6c-1,2.2-2.7,3.4-5.4,3.4
			c-0.4,0-2.6,0.7-6.5,2.1h-0.8l0.2,0.4c0,0.4-0.1,0.6-0.2,0.6c0.2,1.7,0.2,2.9,0.2,3.6v3.2c0,1-0.2,3.1-0.4,6.5
			c0.2,1.1,0.4,2.1,0.9,3l-0.2,2.5v2.1c0,5.3,0.3,8.9,0.8,11c-0.2,1.5-0.2,2.6-0.2,3.4v0.4c0,0.8,0.5,1.3,1.5,1.3
			c2.6,0,5.3-0.2,8.1-0.4c3.5,0,5.2,0.8,5.2,2.5c-1.5,4.2-6.4,6.2-14.8,6c-6.6,0.5-11.2-0.1-14-1.9c-1.6-7.4-2.5-14.8-2.5-22
			c0-2.2,0.2-5,0.4-8.2c-0.3-1-0.6-3.3-0.9-6.9l0.4-4.9c-0.2-0.3-0.3-2.7-0.4-7.2l1.1-13.7c-0.3-0.9-0.4-1.5-0.4-1.9v-0.8
			c0-0.7,0.1-1.3,0.2-2.1c-0.2-1-0.3-1.6-0.4-1.9c0.2-1.2,0.2-2.2,0.2-3v-4.4c0-1.2,1.6-2.4,4.8-3.6c1.6,0,2.4-0.1,2.4-0.2
			C93.6,75.1,96.3,75.6,97.6,76z"/>
		<path class="st3" d="M150.9,88.1c2.1,5,3.1,10.4,3.1,16.1c0.2,0,0.2,0.4,0.2,1.1c0,0.3-0.3,1.8-0.9,4.7c0.7,3.6,1.1,7.8,1.1,12.5
			v0.4c0,3.2-0.4,7.3-1.3,12.5c0,3.1-1.3,6.6-3.8,10.5c-0.7,3.3-1.8,4.9-3.6,4.9c-0.7,2-2.3,2.9-4.7,2.9c-1,0-2.8-0.3-5.6-0.9
			c-2.8,0.6-4.6,0.9-5.6,0.9h-0.9c-3.9,0-6.6-2.7-8.3-8.1c-1.6-3-3-7.6-4.2-13.6c0-1.1-0.1-1.6-0.2-1.8l0.4-4.2
			c-0.2-2.4-0.2-4.6-0.2-6.5v-0.9c0-6.8,0.4-10.3,1.1-10.5c-0.2-0.3-0.2-0.5-0.2-0.7c0-1.3,0.7-4.5,2-9.6c0-2,1.5-7.2,4.5-15.7
			c1.4-1.7,2.7-2.6,4-2.9c3.5-1.3,7.2-2,11-2C144.9,77.4,148.9,81,150.9,88.1z M136.4,88.8c-0.6,2.2-1.3,6.3-2,12.3v3.8
			c0,0.5-0.2,1-0.7,1.6v0.9c0,3.9-0.2,6.4-0.4,7.4c0.2,1,0.2,1.8,0.2,2.5v2.2c0,5.3,0.8,12.2,2.5,20.8h0.2c1.3-1.8,2.4-5.5,3.4-11.2
			c0.6-4.4,0.9-8.9,0.9-13.4c0-2.3-0.3-6.1-0.9-11.4v-1.1c0-0.6,0.1-1.5,0.2-2.5c-1.2-4.8-2.2-8.8-3.1-11.9
			C136.7,88.9,136.4,88.9,136.4,88.8z"/>
		<path class="st3" d="M183.1,70.2c4.8,0.7,8.7,1.3,11.6,1.6c1.5,1.7,2.2,3,2.2,3.8c0,3-1.7,5-5.1,6.3c-2,0.6-3.8,0.9-5.6,0.9h-6.3
			c-0.2,0.8-0.2,1.4-0.2,1.8c1.1,4.5,1.6,7.2,1.6,8.1c-0.2,1.2-0.4,2.1-0.7,2.7c0.6,1.1,1.1,2.2,1.3,3.4l-0.4,3.4l0.9,10.1
			c-0.3,1.5-0.4,2.5-0.4,2.9c0.4,2.5,0.7,4.1,0.7,4.7c-0.3,2.2-0.4,3.9-0.4,4.9v0.9c0.3,5.9,0.4,9,0.4,9.4l-0.2,2
			c0.7,2.3,1.1,4.5,1.1,6.5v0.4c-0.4,3.3-0.7,5.3-0.7,6c0.9,3.9,1.3,6.3,1.3,7.2c0,2-3.5,3.3-10.5,4c-2.7,0-4.4-0.6-5.1-1.8
			c-2-3-2.9-10.7-2.9-23c-0.2,0-0.2-0.6-0.2-1.8c0.1-1.8,0.3-2.7,0.4-2.7l-0.2-2.2v-4.2c0-2.9-0.2-5.3-0.7-7.4l0.4-3.8
			c-0.7-5.4-1.3-16.2-1.8-32.2c-1.3-0.3-4.4-0.7-9.2-1.3c-0.9-0.7-1.3-1.4-1.3-2.2c0.3-3.6,2.1-5.5,5.4-5.6c6-1.1,11.4-1.7,16.3-2
			c0-0.2,0.2-0.2,0.7-0.2c0.3,0,0.6,0.1,0.9,0.2c1.3-0.2,2.3-0.2,3.1-0.2h2.2L183.1,70.2z"/>
		<path class="st3" d="M229.5,88.1c2.1,5,3.1,10.4,3.1,16.1c0.2,0,0.2,0.4,0.2,1.1c0,0.3-0.3,1.8-0.9,4.7c0.7,3.6,1.1,7.8,1.1,12.5
			v0.4c0,3.2-0.4,7.3-1.3,12.5c0,3.1-1.3,6.6-3.8,10.5c-0.7,3.3-1.8,4.9-3.6,4.9c-0.7,2-2.3,2.9-4.7,2.9c-1,0-2.8-0.3-5.6-0.9
			c-2.8,0.6-4.6,0.9-5.6,0.9h-0.9c-3.9,0-6.6-2.7-8.3-8.1c-1.6-3-3-7.6-4.3-13.6c0-1.1-0.1-1.6-0.2-1.8l0.4-4.2
			c-0.2-2.4-0.2-4.6-0.2-6.5v-0.9c0-6.8,0.4-10.3,1.1-10.5c-0.2-0.3-0.2-0.5-0.2-0.7c0-1.3,0.7-4.5,2-9.6c0-2,1.5-7.2,4.5-15.7
			c1.4-1.7,2.7-2.6,4-2.9c3.5-1.3,7.2-2,11-2C223.5,77.4,227.5,81,229.5,88.1z M215,88.8c-0.6,2.2-1.3,6.3-2,12.3v3.8
			c0,0.5-0.2,1-0.7,1.6v0.9c0,3.9-0.2,6.4-0.4,7.4c0.2,1,0.2,1.8,0.2,2.5v2.2c0,5.3,0.8,12.2,2.5,20.8h0.2c1.3-1.8,2.4-5.5,3.4-11.2
			c0.6-4.4,0.9-8.9,0.9-13.4c0-2.3-0.3-6.1-0.9-11.4v-1.1c0-0.6,0.1-1.5,0.2-2.5c-1.2-4.8-2.2-8.8-3.1-11.9
			C215.3,88.9,215,88.9,215,88.8z"/>
		<path class="st3" d="M265.1,82.3c0,0.2,1.4,2,4.3,5.1c0.4,2,1.6,5.8,3.4,11.4c-0.2,1-0.4,1.8-0.9,2.7c0.7,4,1.1,6.4,1.1,7.2v2
			c0,1-0.1,2.5-0.2,4.5h0.2c-1.1,7.7-2.7,13-4.9,16.1c-0.4,1.6-2.1,3.6-4.9,6c-0.6,2.2-2.9,3.4-6.7,3.4c-0.4,2.1-1,6.7-1.6,13.6
			c-0.2,0-0.3,0.4-0.4,1.3l0.2,1.6c0,1.7-3.1,3-9.4,4H244c-3.1,0-4.7-0.7-4.7-2c-0.9-1.7-1.6-5.3-2-10.7c0-0.5,0.4-3.1,1.3-7.8
			c0-0.8-0.1-2.1-0.2-3.8c0.2-2.9,0.2-5.2,0.2-7.2c-0.6-4-0.9-8.2-0.9-12.7c0-0.3,0.1-0.6,0.2-0.9c-0.2-0.8-0.2-1.5-0.2-2V111
			c0-0.6,0.1-0.9,0.2-0.9l-0.2-1.6v-7.6c0-2,0.2-7.8,0.4-17.7c0.2,0,0.2-0.1,0.2-0.2h-0.2l0.2-0.4v-2.5c0-1.6,2.7-3.1,8.1-4.5
			c3-0.2,4.6-0.2,4.9-0.2C255.5,75.4,260.1,77.7,265.1,82.3z M254.8,87v0.2c0.7,2.6,1.2,4.5,1.3,5.6l-0.2,2c0.2,1.8,0.2,3.1,0.2,4
			l-0.2,0.9c0.3,1.4,0.8,4.8,1.6,10.1l-1.3,5.8c0,1.3,0.4,4.4,1.1,9.4v0.2c0,1.3-0.2,3.4-0.7,6.3c0.7,0,2.3-4.3,4.7-13
			c0.4,0,0.6-1.7,0.7-5.1c-0.4-7.8-1.2-13-2.2-15.4c-1.5-4.1-3.1-7.7-4.7-11C255.1,87,254.8,87,254.8,87z"/>
		<path class="st3" d="M305.9,82.3c0,0.2,1.4,2,4.2,5.1c0.4,2,1.6,5.8,3.4,11.4c-0.2,1-0.4,1.8-0.9,2.7c0.7,4,1.1,6.4,1.1,7.2v2
			c0,1-0.1,2.5-0.2,4.5h0.2c-1.1,7.7-2.7,13-4.9,16.1c-0.4,1.6-2.1,3.6-4.9,6c-0.6,2.2-2.9,3.4-6.7,3.4c-0.4,2.1-1,6.7-1.6,13.6
			c-0.2,0-0.3,0.4-0.4,1.3l0.2,1.6c0,1.7-3.1,3-9.4,4h-1.3c-3.1,0-4.7-0.7-4.7-2c-0.9-1.7-1.6-5.3-2-10.7c0-0.5,0.4-3.1,1.3-7.8
			c0-0.8-0.1-2.1-0.2-3.8c0.2-2.9,0.2-5.2,0.2-7.2c-0.6-4-0.9-8.2-0.9-12.7c0-0.3,0.1-0.6,0.2-0.9c-0.2-0.8-0.2-1.5-0.2-2V111
			c0-0.6,0.1-0.9,0.2-0.9l-0.2-1.6v-7.6c0-2,0.2-7.8,0.4-17.7c0.2,0,0.2-0.1,0.2-0.2h-0.2l0.2-0.4v-2.5c0-1.6,2.7-3.1,8.1-4.5
			c3-0.2,4.6-0.2,4.9-0.2C296.3,75.4,300.9,77.7,305.9,82.3z M295.6,87v0.2c0.7,2.6,1.2,4.5,1.3,5.6l-0.2,2c0.2,1.8,0.2,3.1,0.2,4
			l-0.2,0.9c0.3,1.4,0.8,4.8,1.6,10.1l-1.4,5.9c0,1.3,0.4,4.4,1.1,9.4v0.2c0,1.3-0.2,3.4-0.7,6.3c0.7,0,2.3-4.3,4.7-13
			c0.4,0,0.6-1.7,0.7-5.1c-0.4-7.8-1.2-13-2.2-15.4c-1.5-4.1-3.1-7.7-4.7-11L295.6,87L295.6,87z"/>
		<path class="st3" d="M334.1,76c0.6-0.3,1.6-0.4,2.8-0.4c3.9,0.4,7.4,0.7,10.8,0.8c2.2,1.2,3.2,2.6,3.2,4.4c-2,4-5.9,5.9-11.7,5.9
			h-2.6l-1.1,0.2v-0.2l-0.4,0.2c-0.3-0.2-0.6-0.2-0.8-0.2c-0.4,1.1-0.7,2.2-0.7,3.1v0.4c0,1.1,0.1,2.6,0.2,4.4l-1.1,3
			c0.2,2.1,0.5,3.1,0.8,3.1s1.4-0.1,3.2-0.2c5.6,1.3,8.4,2.2,8.4,2.7c0.9,0.8,1.3,1.6,1.3,2.6c-1,2.2-2.7,3.4-5.4,3.4
			c-0.4,0-2.6,0.7-6.5,2.1h-0.6l0.2,0.4c0,0.4-0.1,0.6-0.2,0.6c0.2,1.7,0.2,2.9,0.2,3.6v3.2c0,1-0.2,3.1-0.4,6.5
			c0.2,1.1,0.4,2.1,0.9,3l-0.2,2.5v2.1c0,5.3,0.3,8.9,0.8,11c-0.2,1.5-0.2,2.6-0.2,3.4v0.4c0,0.8,0.5,1.3,1.5,1.3
			c2.6,0,5.3-0.2,8.1-0.4c3.5,0,5.2,0.8,5.2,2.5c-1.5,4.2-6.4,6.2-14.8,6c-6.6,0.5-11.2-0.1-14-1.9c-1.6-7.4-2.5-14.8-2.5-22
			c0-2.2,0.2-5,0.4-8.2c-0.3-1-0.6-3.3-0.9-6.9l0.4-4.9c-0.2-0.3-0.3-2.7-0.4-7.2l1.1-13.7c-0.3-0.9-0.4-1.5-0.4-1.9v-0.8
			c0-0.7,0.1-1.3,0.2-2.1c-0.2-1-0.3-1.6-0.4-1.9c0.2-1.2,0.2-2.2,0.2-3v-4.4c0-1.2,1.6-2.4,4.8-3.6c1.6,0,2.4-0.1,2.4-0.2
			C330.1,75.1,332.9,75.6,334.1,76z"/>
		<path class="st3" d="M381.8,71.3c2.6,2.6,4.5,7.9,5.8,16.1c0.2,2.6,0.2,4.2,0.2,4.7c-1.2,11.6-2.2,17.4-3.1,17.4
			c0,0.6-1.1,2.3-3.4,5.4c-2.5,2.1-4.2,3.6-4.9,4.5l-0.2,0.4c3.9,4.4,6.3,8.4,7.2,11.9c0,1,1.1,3.5,3.4,7.6c0,0.6,1.4,5,4.3,13.2
			c0.3,1.2,0.4,2.5,0.4,3.8v0.7c0,2.1-0.7,3.3-2.2,3.8c-2.1,0.6-3.7,1-4.9,1.1c-3.3,0-5.6-2-6.9-6c-0.9-2.5-2.4-5.5-4.5-9.2
			c-0.8-3.6-1.8-6.4-2.9-8.3c-0.4-1.1-0.7-1.8-0.7-2.2h-0.2c0,0.6-0.2,2.2-0.4,4.7c0.1,1.8,0.2,2.7,0.4,2.7
			c-0.3,0.6-0.4,1.8-0.4,3.6v4.2c0,0.5-0.1,1.2-0.2,2c0.6,1.6,0.9,3.1,0.9,4.5c0,1.7-1.8,2.7-5.6,3.1c-3.4,0-5.3-0.7-5.8-2
			c-2.1-7-3.1-16.5-3.1-28.6l-1.1-13l0.4-4c-0.3-2-0.4-3.9-0.4-5.8v-2c0-1.9,0.1-4,0.2-6.3c-0.2-0.6-0.2-1.2-0.2-1.8l0.4-2.7
			c-0.3-2.1-0.4-4.4-0.4-6.9c0.8-6.5,1.8-10.8,3.1-13c0.4,0,1.1-1.1,1.8-3.4c3.3-3,6.7-4.5,10.1-4.5c0.1,0,1.1-0.1,2.9-0.2
			C376.7,66.8,380.1,68.3,381.8,71.3z M366.6,83.8c0,3,0.4,6.9,1.1,11.9v1.1c0,0.5-0.1,1.2-0.2,2c0.6,2,0.9,4.6,0.9,8.1l0.2,0.9
			c3.4-3,5.1-8.9,5.1-17.9c0-7.7-1.6-12.9-4.7-15.7h-0.2c-1.3,0-2,2.9-2.2,8.5L366.6,83.8L366.6,83.8z M368.8,135.5v0.4h0.2v-0.4
			H368.8z"/>
	</g>
	<g>
		<path class="st4" d="M66.6,71.7v0.4c0,1.1-0.9,2.1-2.7,3.1c-3.9,3.2-5.8,7.3-5.8,12.5c0,3.7,3.4,9.5,10.3,17.2
			c2.2,2.9,4.1,8.6,5.6,17l0.7,4.5v0.4l-1.1,5.8c0,2.1-0.4,3.7-1.1,5.1c0,3.2-0.8,5.6-2.5,7.2c-1.3,1.7-2.1,3.2-2.5,4.5
			c-1.9,0.6-3.3,1.5-4.2,2.5c-0.8,0.6-1.5,0.9-2,0.9h-1.6c-1.7,2-4.1,2.9-7.2,2.9h-1.1c-2.5,0-5.5-1.6-8.9-4.9
			c-3.6-4.4-5.4-9-5.4-13.8v-0.9c1.2-3.3,3.2-4.9,6-4.9h1.6c2,0,3.3,2,3.8,6c1.3,4.8,2.5,7.2,3.6,7.2c2.4-3.4,3.6-5.6,3.6-6.9v-8.7
			c-0.4-6.8-1.2-11.1-2.2-13c-0.7-1.2-1.2-3-1.6-5.1c-1.8-1.8-4.1-6-6.9-12.5c-1.1-2.6-1.8-7-2.2-13c0-3.9,1.5-7.2,4.5-10.1
			c1-1.7,1.7-2.9,2.2-3.6c0.8-1,3.9-1.8,9.2-2.7C63.9,68.8,66.6,69.7,66.6,71.7z"/>
		<path class="st4" d="M93.6,71.9c0.6-0.3,1.6-0.4,2.8-0.4c3.9,0.4,7.4,0.7,10.8,0.8c2.2,1.2,3.2,2.6,3.2,4.4c-2,4-5.9,5.9-11.7,5.9
			h-2.6L95,82.8v-0.2l-0.4,0.2c-0.3-0.2-0.6-0.2-0.8-0.2c-0.4,1.1-0.7,2.2-0.7,3.1v0.4c0,1.1,0.1,2.6,0.2,4.4l-1.1,3
			c0.2,2.1,0.5,3.1,0.8,3.1c0.3,0,1.4-0.1,3.2-0.2c5.6,1.3,8.4,2.2,8.4,2.7c0.9,0.8,1.3,1.6,1.3,2.6c-1,2.2-2.7,3.4-5.4,3.4
			c-0.4,0-2.6,0.7-6.5,2.1h-0.8l0.2,0.4c0,0.4-0.1,0.6-0.2,0.6c0.2,1.7,0.2,2.9,0.2,3.6v3.2c0,1-0.2,3.1-0.4,6.5
			c0.2,1.1,0.4,2.1,0.9,3l-0.2,2.5v2.1c0,5.3,0.3,8.9,0.8,11c-0.2,1.5-0.2,2.6-0.2,3.4v0.4c0,0.8,0.5,1.3,1.5,1.3
			c2.6,0,5.3-0.2,8.1-0.4c3.5,0,5.2,0.8,5.2,2.5c-1.5,4.2-6.4,6.2-14.8,6c-6.6,0.5-11.2-0.1-14-1.9c-1.6-7.4-2.5-14.8-2.5-22
			c0-2.2,0.2-5,0.4-8.2c-0.3-1-0.6-3.3-0.9-6.9l0.4-4.9c-0.2-0.3-0.3-2.7-0.4-7.2l1.1-13.7C78.1,87.6,78,87,78,86.6v-0.8
			c0-0.7,0.1-1.3,0.2-2.1c-0.2-1-0.3-1.6-0.4-1.9c0.2-1.2,0.2-2.2,0.2-3v-4.4c0-1.2,1.6-2.4,4.8-3.6c1.6,0,2.4-0.1,2.4-0.2
			C89.6,71,92.3,71.5,93.6,71.9z"/>
		<path class="st4" d="M146.9,84c2.1,5,3.1,10.4,3.1,16.1c0.2,0,0.2,0.4,0.2,1.1c0,0.3-0.3,1.8-0.9,4.7c0.7,3.6,1.1,7.8,1.1,12.5
			v0.4c0,3.2-0.4,7.3-1.3,12.5c0,3.1-1.3,6.6-3.8,10.5c-0.7,3.3-1.8,4.9-3.6,4.9c-0.7,2-2.3,2.9-4.7,2.9c-1,0-2.8-0.3-5.6-0.9
			c-2.8,0.6-4.6,0.9-5.6,0.9h-0.9c-3.9,0-6.6-2.7-8.3-8.1c-1.6-3-3-7.6-4.2-13.6c0-1.1-0.1-1.6-0.2-1.8l0.4-4.2
			c-0.2-2.4-0.2-4.6-0.2-6.5v-0.9c0-6.8,0.4-10.3,1.1-10.5c-0.2-0.3-0.2-0.5-0.2-0.7c0-1.3,0.7-4.5,2-9.6c0-2,1.5-7.2,4.5-15.7
			c1.4-1.7,2.7-2.6,4-2.9c3.5-1.3,7.2-2,11-2C140.9,73.3,144.9,76.9,146.9,84z M132.4,84.8c-0.6,2.2-1.3,6.3-2,12.3v3.8
			c0,0.5-0.2,1-0.7,1.6v0.9c0,3.9-0.2,6.4-0.4,7.4c0.2,1,0.2,1.8,0.2,2.5v2.2c0,5.3,0.8,12.2,2.5,20.8h0.2c1.3-1.8,2.4-5.5,3.4-11.2
			c0.6-4.4,0.9-8.9,0.9-13.4c0-2.3-0.3-6.1-0.9-11.4v-1.1c0-0.6,0.1-1.5,0.2-2.5c-1.2-4.8-2.2-8.8-3.1-11.9
			C132.7,84.8,132.4,84.8,132.4,84.8z"/>
		<path class="st4" d="M179.1,66.1c4.8,0.7,8.7,1.3,11.6,1.6c1.5,1.7,2.2,3,2.2,3.8c0,3-1.7,5-5.1,6.3c-2,0.6-3.8,0.9-5.6,0.9h-6.3
			c-0.2,0.8-0.2,1.4-0.2,1.8c1.1,4.5,1.6,7.2,1.6,8.1c-0.2,1.2-0.4,2.1-0.7,2.7c0.6,1.1,1.1,2.2,1.3,3.4l-0.4,3.4l0.9,10.1
			c-0.3,1.5-0.4,2.5-0.4,2.9c0.4,2.5,0.7,4.1,0.7,4.7c-0.3,2.2-0.4,3.9-0.4,4.9v0.9c0.3,5.9,0.4,9,0.4,9.4l-0.2,2
			c0.7,2.3,1.1,4.5,1.1,6.5v0.4c-0.4,3.3-0.7,5.3-0.7,6c0.9,3.9,1.3,6.3,1.3,7.2c0,2-3.5,3.3-10.5,4c-2.7,0-4.4-0.6-5.1-1.8
			c-2-3-2.9-10.7-2.9-23c-0.2,0-0.2-0.6-0.2-1.8c0.1-1.8,0.3-2.7,0.4-2.7l-0.2-2.2v-4.2c0-2.9-0.2-5.3-0.7-7.4l0.4-3.8
			c-0.7-5.4-1.3-16.2-1.8-32.2c-1.3-0.3-4.4-0.7-9.2-1.3c-0.9-0.7-1.3-1.4-1.3-2.2c0.3-3.6,2.1-5.5,5.4-5.6c6-1.1,11.4-1.7,16.3-2
			c0-0.2,0.2-0.2,0.7-0.2c0.3,0,0.6,0.1,0.9,0.2c1.3-0.2,2.3-0.2,3.1-0.2h2.2L179.1,66.1z"/>
		<path class="st4" d="M225.5,84c2.1,5,3.1,10.4,3.1,16.1c0.2,0,0.2,0.4,0.2,1.1c0,0.3-0.3,1.8-0.9,4.7c0.7,3.6,1.1,7.8,1.1,12.5
			v0.4c0,3.2-0.4,7.3-1.3,12.5c0,3.1-1.3,6.6-3.8,10.5c-0.7,3.3-1.8,4.9-3.6,4.9c-0.7,2-2.3,2.9-4.7,2.9c-1,0-2.8-0.3-5.6-0.9
			c-2.8,0.6-4.6,0.9-5.6,0.9h-0.9c-3.9,0-6.6-2.7-8.3-8.1c-1.6-3-3-7.6-4.3-13.6c0-1.1-0.1-1.6-0.2-1.8l0.4-4.2
			c-0.2-2.4-0.2-4.6-0.2-6.5v-0.9c0-6.8,0.4-10.3,1.1-10.5c-0.2-0.3-0.2-0.5-0.2-0.7c0-1.3,0.7-4.5,2-9.6c0-2,1.5-7.2,4.5-15.7
			c1.4-1.7,2.7-2.6,4-2.9c3.5-1.3,7.2-2,11-2C219.5,73.3,223.5,76.9,225.5,84z M211,84.8c-0.6,2.2-1.3,6.3-2,12.3v3.8
			c0,0.5-0.2,1-0.7,1.6v0.9c0,3.9-0.2,6.4-0.4,7.4c0.2,1,0.2,1.8,0.2,2.5v2.2c0,5.3,0.8,12.2,2.5,20.8h0.2c1.3-1.8,2.4-5.5,3.4-11.2
			c0.6-4.4,0.9-8.9,0.9-13.4c0-2.3-0.3-6.1-0.9-11.4v-1.1c0-0.6,0.1-1.5,0.2-2.5c-1.2-4.8-2.2-8.8-3.1-11.9H211z"/>
		<path class="st4" d="M261.1,78.2c0,0.2,1.4,2,4.3,5.1c0.4,2,1.6,5.8,3.4,11.4c-0.2,1-0.4,1.8-0.9,2.7c0.7,4,1.1,6.4,1.1,7.2v2
			c0,1-0.1,2.5-0.2,4.5h0.2c-1.1,7.7-2.7,13-4.9,16.1c-0.4,1.6-2.1,3.6-4.9,6c-0.6,2.2-2.9,3.4-6.7,3.4c-0.4,2.1-1,6.7-1.6,13.6
			c-0.2,0-0.3,0.4-0.4,1.3l0.2,1.6c0,1.7-3.1,3-9.4,4H240c-3.1,0-4.7-0.7-4.7-2c-0.9-1.7-1.6-5.3-2-10.7c0-0.5,0.4-3.1,1.3-7.8
			c0-0.8-0.1-2.1-0.2-3.8c0.2-2.9,0.2-5.2,0.2-7.2c-0.6-4-0.9-8.2-0.9-12.7c0-0.3,0.1-0.6,0.2-0.9c-0.2-0.8-0.2-1.5-0.2-2v-3.1
			c0-0.6,0.1-0.9,0.2-0.9l-0.2-1.6v-7.6c0-2,0.2-7.8,0.4-17.7c0.2,0,0.2-0.1,0.2-0.2h-0.2l0.2-0.4V76c0-1.6,2.7-3.1,8.1-4.5
			c3-0.2,4.6-0.2,4.9-0.2C251.5,71.3,256.1,73.6,261.1,78.2z M250.8,82.9v0.2c0.7,2.6,1.2,4.5,1.3,5.6l-0.2,2c0.2,1.8,0.2,3.1,0.2,4
			l-0.2,0.9c0.3,1.4,0.8,4.8,1.6,10.1l-1.3,5.8c0,1.3,0.4,4.4,1.1,9.4v0.2c0,1.3-0.2,3.4-0.7,6.3c0.7,0,2.3-4.3,4.7-13
			c0.4,0,0.6-1.7,0.7-5.1c-0.4-7.8-1.2-13-2.2-15.4c-1.5-4.1-3.1-7.7-4.7-11C251.1,82.9,250.8,82.9,250.8,82.9z"/>
		<path class="st4" d="M301.9,78.2c0,0.2,1.4,2,4.2,5.1c0.4,2,1.6,5.8,3.4,11.4c-0.2,1-0.4,1.8-0.9,2.7c0.7,4,1.1,6.4,1.1,7.2v2
			c0,1-0.1,2.5-0.2,4.5h0.2c-1.1,7.7-2.7,13-4.9,16.1c-0.4,1.6-2.1,3.6-4.9,6c-0.6,2.2-2.9,3.4-6.7,3.4c-0.4,2.1-1,6.7-1.6,13.6
			c-0.2,0-0.3,0.4-0.4,1.3l0.2,1.6c0,1.7-3.1,3-9.4,4h-1.3c-3.1,0-4.7-0.7-4.7-2c-0.9-1.7-1.6-5.3-2-10.7c0-0.5,0.4-3.1,1.3-7.8
			c0-0.8-0.1-2.1-0.2-3.8c0.2-2.9,0.2-5.2,0.2-7.2c-0.6-4-0.9-8.2-0.9-12.7c0-0.3,0.1-0.6,0.2-0.9c-0.2-0.8-0.2-1.5-0.2-2v-3.1
			c0-0.6,0.1-0.9,0.2-0.9l-0.2-1.6v-7.6c0-2,0.2-7.8,0.4-17.7c0.2,0,0.2-0.1,0.2-0.2h-0.2l0.2-0.4V76c0-1.6,2.7-3.1,8.1-4.5
			c3-0.2,4.6-0.2,4.9-0.2C292.3,71.3,296.9,73.6,301.9,78.2z M291.6,82.9v0.2c0.7,2.6,1.2,4.5,1.3,5.6l-0.2,2c0.2,1.8,0.2,3.1,0.2,4
			l-0.2,0.9c0.3,1.4,0.8,4.8,1.6,10.1l-1.4,5.9c0,1.3,0.4,4.4,1.1,9.4v0.2c0,1.3-0.2,3.4-0.7,6.3c0.7,0,2.3-4.3,4.7-13
			c0.4,0,0.6-1.7,0.7-5.1c-0.4-7.8-1.2-13-2.2-15.4c-1.5-4.1-3.1-7.7-4.7-11L291.6,82.9L291.6,82.9z"/>
		<path class="st4" d="M330.1,71.9c0.6-0.3,1.6-0.4,2.8-0.4c3.9,0.4,7.4,0.7,10.8,0.8c2.2,1.2,3.2,2.6,3.2,4.4
			c-2,4-5.9,5.9-11.7,5.9h-2.6l-1.1,0.2v-0.2l-0.4,0.2c-0.3-0.2-0.6-0.2-0.8-0.2c-0.4,1.1-0.7,2.2-0.7,3.1v0.4
			c0,1.1,0.1,2.6,0.2,4.4l-1.1,3c0.2,2.1,0.5,3.1,0.8,3.1s1.4-0.1,3.2-0.2c5.6,1.3,8.4,2.2,8.4,2.7c0.9,0.8,1.3,1.6,1.3,2.6
			c-1,2.2-2.7,3.4-5.4,3.4c-0.4,0-2.6,0.7-6.5,2.1h-0.6l0.2,0.4c0,0.4-0.1,0.6-0.2,0.6c0.2,1.7,0.2,2.9,0.2,3.6v3.2
			c0,1-0.2,3.1-0.4,6.5c0.2,1.1,0.4,2.1,0.9,3l-0.2,2.5v2.1c0,5.3,0.3,8.9,0.8,11c-0.2,1.5-0.2,2.6-0.2,3.4v0.4
			c0,0.8,0.5,1.3,1.5,1.3c2.6,0,5.3-0.2,8.1-0.4c3.5,0,5.2,0.8,5.2,2.5c-1.5,4.2-6.4,6.2-14.8,6c-6.6,0.5-11.2-0.1-14-1.9
			c-1.6-7.4-2.5-14.8-2.5-22c0-2.2,0.2-5,0.4-8.2c-0.3-1-0.6-3.3-0.9-6.9l0.4-4.9c-0.2-0.3-0.3-2.7-0.4-7.2l1.1-13.7
			c-0.3-0.9-0.4-1.5-0.4-1.9v-0.8c0-0.7,0.1-1.3,0.2-2.1c-0.2-1-0.3-1.6-0.4-1.9c0.2-1.2,0.2-2.2,0.2-3v-4.4c0-1.2,1.6-2.4,4.8-3.6
			c1.6,0,2.4-0.1,2.4-0.2C326.1,71,328.9,71.5,330.1,71.9z"/>
		<path class="st4" d="M377.8,67.2c2.6,2.6,4.5,7.9,5.8,16.1c0.2,2.6,0.2,4.2,0.2,4.7c-1.2,11.6-2.2,17.4-3.1,17.4
			c0,0.6-1.1,2.3-3.4,5.4c-2.5,2.1-4.2,3.6-4.9,4.5l-0.2,0.4c3.9,4.4,6.3,8.4,7.2,11.9c0,1,1.1,3.5,3.4,7.6c0,0.6,1.4,5,4.3,13.2
			c0.3,1.2,0.4,2.5,0.4,3.8v0.7c0,2.1-0.7,3.3-2.2,3.8c-2.1,0.6-3.7,1-4.9,1.1c-3.3,0-5.6-2-6.9-6c-0.9-2.5-2.4-5.5-4.5-9.2
			c-0.8-3.6-1.8-6.4-2.9-8.3c-0.4-1.1-0.7-1.8-0.7-2.2h-0.2c0,0.6-0.2,2.2-0.4,4.7c0.1,1.8,0.2,2.7,0.4,2.7
			c-0.3,0.6-0.4,1.8-0.4,3.6v4.2c0,0.5-0.1,1.2-0.2,2c0.6,1.6,0.9,3.1,0.9,4.5c0,1.7-1.8,2.7-5.6,3.1c-3.4,0-5.3-0.7-5.8-2
			c-2.1-7-3.1-16.5-3.1-28.6l-1.1-13l0.4-4c-0.3-2-0.4-3.9-0.4-5.8v-2c0-1.9,0.1-4,0.2-6.3c-0.2-0.6-0.2-1.2-0.2-1.8l0.4-2.7
			c-0.3-2.1-0.4-4.4-0.4-6.9c0.8-6.5,1.8-10.8,3.1-13c0.4,0,1.1-1.1,1.8-3.4c3.3-3,6.7-4.5,10.1-4.5c0.1,0,1.1-0.1,2.9-0.2
			C372.7,62.7,376.1,64.2,377.8,67.2z M362.6,79.8c0,3,0.4,6.9,1.1,11.9v1.1c0,0.5-0.1,1.2-0.2,2c0.6,2,0.9,4.6,0.9,8.1l0.2,0.9
			c3.4-3,5.1-8.9,5.1-17.9c0-7.7-1.6-12.9-4.7-15.7h-0.2c-1.3,0-2,2.9-2.2,8.5L362.6,79.8L362.6,79.8z M364.8,131.4v0.4h0.2v-0.4
			H364.8z"/>
	</g>
</g>
</svg>
