<?xml version="1.0" encoding="utf-8"?>
<!-- Generator: Adobe Illustrator 21.0.2, SVG Export Plug-In . SVG Version: 6.00 Build 0)  -->
<svg version="1.1" id="Layer_1" xmlns="http://www.w3.org/2000/svg" xmlns:xlink="http://www.w3.org/1999/xlink" x="0px" y="0px"
	 viewBox="0 0 339.3 175.1" style="enable-background:new 0 0 339.3 175.1;" xml:space="preserve">
<style type="text/css">
	.st0{fill:#00D46A;}
	.st1{fill:#302A3E;}
</style>
<circle class="st0" cx="83.1" cy="87.5" r="10.4"/>
<g>
	<path class="st1" d="M106.5,90.3c-1.3-0.4-2.5-0.9-3.5-1.3c-1.1-0.5-2-1-2.7-1.7c-0.8-0.6-1.4-1.4-1.8-2.3c-0.4-0.9-0.6-2-0.6-3.3
		c0-2.5,1-4.5,2.9-6s4.6-2.3,8.1-2.3c1.3,0,2.4,0.1,3.5,0.3c1.1,0.2,2,0.5,2.8,0.8c0.8,0.4,1.4,0.8,1.8,1.4c0.4,0.6,0.7,1.2,0.7,2
		c0,0.8-0.2,1.4-0.5,2c-0.4,0.5-0.8,1-1.3,1.4c-0.6-0.4-1.5-0.8-2.6-1.1c-1.1-0.3-2.3-0.5-3.6-0.5c-1.3,0-2.3,0.2-2.9,0.6
		c-0.6,0.4-0.9,0.8-0.9,1.4c0,0.4,0.2,0.8,0.6,1.1c0.4,0.3,1,0.5,1.7,0.8l2.3,0.8c2.8,0.9,4.9,2,6.4,3.4c1.5,1.4,2.2,3.2,2.2,5.6
		c0,2.5-1,4.5-3,6.1c-2,1.5-4.9,2.3-8.7,2.3c-1.4,0-2.6-0.1-3.8-0.3c-1.2-0.2-2.2-0.5-3.1-1c-0.9-0.4-1.5-1-2-1.6s-0.7-1.4-0.7-2.2
		c0-0.9,0.3-1.6,0.8-2.2c0.5-0.6,1-1.1,1.6-1.4c0.8,0.6,1.8,1.2,3,1.7c1.2,0.5,2.5,0.7,3.9,0.7s2.5-0.2,3.1-0.7
		c0.6-0.4,0.9-1,0.9-1.5c0-0.6-0.2-1-0.7-1.3s-1.1-0.6-2-0.9L106.5,90.3z"/>
	<path class="st1" d="M123.2,78.3c0-1.3,0.4-2.3,1.1-3c0.7-0.7,1.7-1.1,3-1.1h14.6c0.2,0.3,0.4,0.8,0.6,1.3s0.3,1,0.3,1.6
		c0,1.1-0.2,1.9-0.7,2.4s-1.1,0.7-1.9,0.7h-9.3v4.1h10c0.2,0.3,0.4,0.7,0.6,1.3c0.2,0.5,0.2,1.1,0.2,1.7c0,1.1-0.2,1.9-0.7,2.4
		s-1.1,0.7-1.9,0.7H131V95h11.4c0.2,0.3,0.4,0.8,0.6,1.3s0.2,1.1,0.2,1.7c0,1.1-0.2,1.9-0.7,2.4s-1.1,0.7-1.9,0.7h-13.2
		c-1.3,0-2.3-0.4-3-1.1c-0.7-0.7-1.1-1.7-1.1-3L123.2,78.3L123.2,78.3z"/>
	<path class="st1" d="M171.8,100c-0.4,0.4-1,0.7-1.8,1c-0.8,0.2-1.7,0.3-2.8,0.3s-2.1-0.2-3.1-0.5c-1-0.3-1.8-1.1-2.4-2.3l-4.4-8.9
		c-0.4-0.9-0.8-1.8-1.2-2.6s-0.7-1.7-1.2-2.8h-0.3c0.1,1.6,0.2,3.2,0.2,4.9c0,1.7,0,3.3,0,4.9v6.9c-0.3,0.1-0.8,0.2-1.5,0.3
		c-0.7,0.1-1.3,0.1-2,0.1c-0.6,0-1.2,0-1.7-0.1c-0.5-0.1-0.9-0.3-1.2-0.5c-0.3-0.3-0.6-0.6-0.8-1.1c-0.2-0.5-0.3-1.1-0.3-1.8V75.5
		c0.4-0.6,1-1,1.9-1.3c0.9-0.3,1.8-0.4,2.7-0.4c1.1,0,2.1,0.2,3.1,0.5c1,0.3,1.8,1.1,2.4,2.3l4.4,8.9c0.4,0.9,0.8,1.8,1.2,2.6
		c0.4,0.8,0.7,1.7,1.2,2.8h0.2c-0.1-1.6-0.2-3.2-0.2-4.8s0-3.2,0-4.8v-7.1c0.5-0.1,1-0.2,1.6-0.3c0.7-0.1,1.3-0.1,2-0.1
		c1.3,0,2.3,0.2,3,0.7s1,1.4,1,2.9V100z"/>
	<path class="st1" d="M187.7,101.7c-0.5,0-1.1,0-1.7,0c-0.6,0-1.3-0.1-2-0.2s-1.4-0.2-2.1-0.3c-0.7-0.1-1.3-0.3-1.9-0.6
		c-1.6-0.6-2.4-1.7-2.4-3.2V76.7c0-0.6,0.2-1.1,0.5-1.4c0.3-0.3,0.8-0.6,1.4-0.8c1.3-0.4,2.6-0.7,4-0.8c1.4-0.1,2.7-0.2,3.8-0.2
		c2.3,0,4.4,0.3,6.3,0.8c1.9,0.6,3.5,1.4,4.8,2.6c1.3,1.2,2.4,2.6,3.1,4.4c0.7,1.8,1.1,3.9,1.1,6.3s-0.4,4.4-1.1,6.2
		c-0.7,1.8-1.7,3.2-3,4.4c-1.3,1.2-2.9,2.1-4.7,2.7C191.9,101.4,189.9,101.7,187.7,101.7z M185.2,95.2c0.3,0.1,0.7,0.1,1.2,0.2
		c0.5,0,0.9,0.1,1.3,0.1c1,0,1.9-0.1,2.8-0.4c0.8-0.3,1.6-0.8,2.2-1.4c0.6-0.6,1.1-1.4,1.4-2.4s0.5-2.2,0.5-3.6c0-2.7-0.6-4.7-1.9-6
		c-1.2-1.3-2.9-2-5-2c-0.4,0-0.8,0-1.3,0c-0.4,0-0.9,0.1-1.3,0.1v15.4H185.2z"/>
	<path class="st1" d="M214.7,100.8c-0.3,0.1-0.8,0.2-1.5,0.3s-1.4,0.1-2.1,0.1c-0.7,0-1.3-0.1-1.8-0.2c-0.5-0.1-1-0.3-1.3-0.6
		c-0.4-0.3-0.6-0.6-0.8-1.1s-0.3-1.1-0.3-1.9V74.2c0.3-0.1,0.8-0.1,1.5-0.2s1.4-0.2,2-0.2c0.7,0,1.3,0.1,1.8,0.2s1,0.3,1.3,0.6
		c0.4,0.3,0.6,0.6,0.8,1.1s0.3,1.1,0.3,1.9v23.2H214.7z"/>
	<path class="st1" d="M239.3,74.2c0.2,0.3,0.4,0.8,0.6,1.3c0.2,0.5,0.2,1.1,0.2,1.7c0,1.2-0.2,2-0.7,2.5s-1.1,0.7-2,0.7h-9.3v5h9.7
		c0.2,0.3,0.4,0.8,0.6,1.3c0.2,0.5,0.2,1.1,0.2,1.7c0,1.1-0.2,1.9-0.7,2.4s-1.1,0.7-2,0.7h-7.7v9.3c-0.3,0.1-0.8,0.2-1.5,0.3
		s-1.4,0.1-2.1,0.1c-0.7,0-1.3-0.1-1.8-0.2c-0.5-0.1-1-0.3-1.3-0.6c-0.4-0.3-0.6-0.6-0.8-1.1s-0.3-1.1-0.3-1.9V78.3
		c0-1.3,0.4-2.3,1.1-3c0.7-0.7,1.7-1.1,3-1.1C224.5,74.2,239.3,74.2,239.3,74.2z"/>
	<path class="st1" d="M258.6,100.8c-0.3,0.1-0.8,0.2-1.5,0.3c-0.7,0.1-1.3,0.1-2,0.1c-1.4,0-2.4-0.2-3.1-0.7c-0.7-0.5-1-1.4-1-2.9
		v-6c-0.7-1.1-1.5-2.3-2.4-3.6s-1.7-2.7-2.5-4.1c-0.8-1.4-1.6-2.8-2.3-4.1c-0.7-1.3-1.3-2.6-1.7-3.7c0.4-0.5,0.9-1,1.6-1.5
		c0.7-0.4,1.5-0.7,2.5-0.7c1.1,0,2.1,0.2,2.8,0.7s1.4,1.4,2.1,2.7l3.7,7.4h0.3c0.4-0.9,0.8-1.7,1.1-2.5c0.3-0.8,0.6-1.5,0.9-2.3
		c0.3-0.8,0.6-1.5,0.9-2.3c0.3-0.8,0.7-1.7,1.1-2.8c0.5-0.3,1.1-0.5,1.8-0.6c0.6-0.1,1.3-0.2,1.9-0.2c1,0,1.9,0.3,2.6,0.8
		s1.1,1.4,1.1,2.5c0,0.4-0.1,0.8-0.2,1.3c-0.1,0.5-0.5,1.3-1,2.3S264,83.3,263,85c-1,1.7-2.4,4-4.1,6.8v9H258.6z"/>
</g>
</svg>
