<?xml version="1.0" encoding="utf-8"?>
<!-- Generator: Adobe Illustrator 21.0.2, SVG Export Plug-In . SVG Version: 6.00 Build 0)  -->
<svg version="1.1" id="Camada_1" xmlns="http://www.w3.org/2000/svg" xmlns:xlink="http://www.w3.org/1999/xlink" x="0px" y="0px"
	 viewBox="0 0 196 326.2" style="enable-background:new 0 0 196 326.2;" xml:space="preserve">
<style type="text/css">
	.st0{fill:url(#SVGID_1_);}
</style>
<linearGradient id="SVGID_1_" gradientUnits="userSpaceOnUse" x1="98" y1="37.6157" x2="98" y2="290.6211" gradientTransform="matrix(1 0 0 -1 0 327.2368)">
	<stop  offset="0" style="stop-color:#584B88"/>
	<stop  offset="1" style="stop-color:#AF4BCF"/>
</linearGradient>
<path class="st0" d="M174,198.7c-0.3,1.5-6.7,23.8-12.2,25.7c-0.2,0.1-0.6,0.2-1,0.2c-6.1,0-7.6-12.6-8-12.6c-0.5,0-3,9.9-8.1,9.9
	c-5.1,0-9.3-3.4-9.3-12.5c0-8.5,4.7-22.4,14.3-22.4c6.7,0,11.4,0,11.4,9.5c0,0.9-2.3,1.7-2.3,0.3c0-1.5-0.5-6.7-2.9-6.7
	c-6.4,0-12,11.5-12,23.5c0,2.4,0.3,6.3,2.2,6.3c1.9,0,6-13.6,6-16.9c0-1.3,0-3.6,3.9-3.6c4,0,5.6,1.8,5.6,3.2c0,0.4,0,0.7,0,1
	c0.2,4.4-0.2,16.9,1.9,16.9c1.4,0,8.5-20.5,8.9-21.9C172.8,197.1,174.3,197.1,174,198.7z M162.2,137.8c5.1,0,9.3,5,9.3,18.4
	c0,13.6-4.5,29-16.1,29c-10.4,0-12.9-11.9-12.9-20.8c0-8.3,1.6-18.6,8-20C152.6,138.5,158,137.8,162.2,137.8z M159.8,180.6
	c5.6,0,11.2-37.3,1.8-37.3c-2.8,0-1.7,9.3-4.9,12.1C156.8,166.1,154.3,180.6,159.8,180.6z M149,136.4c-14.3,0-22.9-12.8-22.9-23.1
	c0-13.4,6.8-25.7,10.9-29.4c4.2-3.7,14.1-3.1,17.3-1.5c3.1,1.4,5.4,6.2,5.4,11.9c0,10.8-5.2,16.4-11.9,16.4c-2.5,0-5.4-0.7-7.5-1.3
	c-0.8,10.2,5.5,20.6,11.1,20.6c13.1,0,17.7-19.9,18.3-21.7c0.7-2,2.8-1.2,2.1,0.9C171.1,111.2,165.2,136.4,149,136.4z M150.4,90
	c-5.4,0-8.9,8.2-9.9,17.2C153.6,112.8,155.7,90,150.4,90z M106.1,135.8c-0.6,1.2-2.1,1-3.6-0.1c-0.3,0.3-0.7,0.4-1.4,0.3
	c-5.3-0.9-11.7-9.9-14-24.7c-2,6.5-8.3,25.1-22.3,25.1c-14.3,0-22.9-12.8-22.9-23.1c0-13.4,6.8-25.7,10.9-29.4
	c4.2-3.7,14.1-3.1,17.3-1.5c3.1,1.4,5.4,6.2,5.4,11.9c0,10.8-5.2,16.4-11.9,16.4c-2.5,0-5.4-0.7-7.5-1.3
	c-0.8,10.2,5.5,20.6,11.1,20.6c13.1,0,17.7-19.9,18.3-21.7c0.2-0.6,0.6-1,0.9-1.1c-0.6-6.9-0.4-14.8,1.1-23.6c0.3-1.9-0.3-6,3.6-5.3
	c7,1.2,10,6,9.1,11.2c-2.4,14.1-1.2,25.2,0.3,33.1c4.2-6.8,12.4-18.2,15-24.1c6.7-14.4,4.9-14.3,6.1-17.1c1.3-2.8,11.1,5.3,3.8,21.4
	C118.1,118.9,106.1,135.8,106.1,135.8z M66.3,90c-5.4,0-8.9,8.2-9.9,17.2C69.5,112.8,71.6,90,66.3,90z M38.3,110.9
	c1.1,22.8,9.7,25.5,3.8,25.7c-5.8,0.3-16-10.4-16.8-29.1c-0.9-18.8,5.6-61.5,5.3-66.5c-0.3-8.3,12.8-3.5,13.1,2.9
	C43.9,50.4,37.6,96,38.3,110.9z M32.7,140.9c2.7-2.7,9.9-3.4,11.8-1.4c1.9,1.9,5.7,12,3,12c-2.7,0-3.7-7.8-5.3-7.8
	c-5.9,0-8.5,35.5-0.4,35.5c8.9,0,12.2-13.8,13.5-17.5c0.2-7.9,2-16.9,8-18.2c2.1-5.9,7.5-6.6,11.7-6.6c5.1,0,9.3,5,9.3,18.4
	c0,13.6-4.5,29-16.1,29c-8.4,0-11.7-7.8-12.6-15.5c-2.8,7.3-7.8,17-16,17c-8.8,0-14.5-11.9-14.5-23.9
	C25.1,152.1,29.9,143.5,32.7,140.9z M72.6,179.6c5.6,0,11.2-37.3,1.8-37.3c-2.8,0-1.7,9.3-4.9,12.1
	C69.6,165.1,67.2,179.6,72.6,179.6z M29.1,187c2.5-0.1,5.8,0,5.8,2.7c0,1.4-0.5,6.7-0.9,13.9c1.5-6.3,3.6-13,5.2-14.7
	c2.1-2.1,8.6-0.9,9.4-0.3c8.2,5.5,7.9,45.1-6.4,45.1c-3.8,0-7.5-13.2-3.8-13.2c8,0,7-24.8,4.8-24.8c-4.1,0-8.4,12.4-9.7,18.6
	c-0.1,3.2-0.2,6.7-0.2,10.1c0,16.7,7.2,65.4,3.9,65.3C19.4,289.3,18,187.3,29.1,187z M66.1,248.1c-3.6,0.2-10-5.9-10.6-17.7
	c-0.6-11.9,3.5-38.8,3.3-42c-0.2-5.3,8-2.2,8.2,1.8c0.2,4.1-3.8,32.9-3.4,42.3C64.4,246.9,69.8,248,66.1,248.1z M62.3,272.3
	c7.4,0,10.4,6.4,10.4,11.1c0,3.6-7.2,6.3-12.1,6.3c-4.8,0-6.4-4.6-6.5-8.3C53.9,277.6,56.9,272.3,62.3,272.3z M133.3,221.1
	c-8.5,0-8.4-17.6-8.4-17.6s-5.2,16.5-7.3,16.5c-2.1,0-7.5-1-7.5-6.7c0-5.8,3.4-25.3,1.3-25.3c-3.8,0-6.5,23.7-8.6,31.3
	c0.5,1.8,0.5,2.3-1.1,2.3c-8.9,0-7.6-18-7.6-24.7c0-1-0.8-1-0.8-1.9c0-1.9,9.1-0.8,9.1,2.9c0,3.8-0.7,8.2-0.7,12.8
	c0,1,0,1.8,0.1,2.5c1.4-8.1,5.3-28.8,11-28.8c11.2,0,5.3,26.2,6,26.2c0.7,0,5.1-15.8,8.4-15.8c3.3,0,7.1,0.8,7.1,4.3
	c0,2.1-0.8,5.4-0.8,9.7C133.4,218.2,136,221.1,133.3,221.1z M82.3,201.9c0.1-2.4,0.3-4.5,0.3-5.2c0-1.2,0.3-2.9,1.8-2.9
	s7.6,0.6,7.6,3.8c0,2.1-1,3.6-1,13.1c0,7.5,2.5,9.6-0.1,9.6c-4.2,0-8.9-2.9-8.9-10.2c0-1,0-2,0.1-3.2l-4.9,12.4
	c0.3,0.7,0.5,1.2,0.5,1.8c0,1.8-9.7,0.3-9.7-11.2c0-7.1,1.6-18.3,1.6-20.6c0-1.6-1.8-3.5,1-3.5c3.4,0,7.6,1.9,7.6,4.3
	c0,2.3-2.5,10.1-2.5,19.3c0,3.8,0.3,6.2,0.7,7.7C77.7,214.3,80.7,207.1,82.3,201.9z M139.4,185c-11.5,0-11.3-24.2-11.3-24.2
	s-7,22.6-9.9,22.6S108,182,108,174.1c0-8,4.7-34.7,1.8-34.7c-5.1,0-8.9,32.6-11.7,43c0.6,2.4,0.7,3.2-1.5,3.2
	c-12.1,0-10.4-24.7-10.4-33.9c0-1.3-1.1-1.3-1.1-2.7c0-2.7,12.4-1.2,12.4,4s-1,11.2-1,17.6c0,1.3,0,2.5,0.1,3.5
	c1.8-11.1,7.2-39.5,14.9-39.5c15.1,0,7.1,36,8.2,36c1,0,6.9-21.7,11.4-21.7c4.5,0,9.6,1.2,9.6,6c0,2.9-1.1,7.4-1.1,13.3
	C139.5,181,143,185,139.4,185z M78.4,231.5c3.4-3.5,12.6-4.3,15-1.8c2.4,2.4,7.3,15.1,3.8,15.1c-3.5,0-4.7-9.9-6.7-9.9
	c-7.5,0-10.8,44.9-0.4,44.9c10,0,14.5-13.8,16.5-20.2c-2-2-3.3-4.9-3.3-8.9c0-8.9,9-25.1,16.3-25.1c7.5,0,17.8-0.9,17.8,6.9
	c0,7.7-9.8,17.5-11.5,17.5c-1.8,0,2.5-14.5,0.8-14.5c-7.9,0-15,20-9,20c2.7,0,18.3-0.2,18.3,8.8c0,9.1-16.4,23.8-22.5,23.8
	c-6,0-9.9-5.3-7.3-5.3c4.9,0,19-15.2,19-18.9c0,0-9.4,1.5-15.9-2.2c-2.9,9-9.6,26.5-22.1,26.5c-11.2,0-18.4-15-18.4-30.3
	C68.8,245.7,74.9,234.9,78.4,231.5z M153.2,225.7c7.5,0,17.8-0.9,17.8,6.9c0,7.7-9.8,17.5-11.5,17.5c-1.8,0,2.5-14.5,0.8-14.5
	c-7.9,0-15,20-9,20c2.7,0,18.3-0.2,18.3,8.8c0,9.1-16.4,23.8-22.5,23.8c-6,0-9.9-5.3-7.3-5.3c4.9,0,19-15.2,19-18.9
	c0,0-22,3.4-22-13.3C136.9,241.8,145.9,225.7,153.2,225.7z"/>
</svg>
