<?xml version="1.0" encoding="utf-8"?>
<!-- Generator: Adobe Illustrator 21.0.2, SVG Export Plug-In . SVG Version: 6.00 Build 0)  -->
<svg version="1.1" id="Layer_1" xmlns="http://www.w3.org/2000/svg" xmlns:xlink="http://www.w3.org/1999/xlink" x="0px" y="0px"
	 viewBox="0 0 537.5 235.2" style="enable-background:new 0 0 537.5 235.2;" xml:space="preserve">
<style type="text/css">
	.st0{fill:#222222;}
</style>
<g>
	<g>
		<g>
			<g>
				<path class="st0" d="M271.5,59.2c-22.1,0-40,17.9-40,40c0,22.1,17.9,40,40,40c22.1,0,40-17.9,40-40
					C311.4,77,293.6,59.2,271.5,59.2z M271.5,118.1c-10.5,0-19-8.5-19-19s8.5-19,19-19s19,8.5,19,19S282,118.1,271.5,118.1z"/>
				<path class="st0" d="M239.3,68.9v-7.8h-7.6l-29.2,32.5l-1.3,0.1l-28.6-32.6h-7.6l0,76.3h19.4v-33.3l16.7,16.6l2.1,0l15.9-16.6
					v33.3h20.1v-8c-7.4-7.9-12-18.5-12-30.2S231.9,76.8,239.3,68.9z"/>
				<path class="st0" d="M407.9,124.3l-14.4-23.3c18.6-10.5,14-39.9,14-39.9h-19.3c2.7,34.7-19.8,29.1-19.8,29.1V61.1h-20.1v37.4
					l-38.2-37.4l-6.9,0v7.3c7.7,7.9,12.5,18.8,12.5,30.7c0,12-4.8,22.8-12.5,30.7v7.4h20.2v-37.1l38,37.1h6.8v-28.9h7.8l16.9,28.9
					h15.1"/>
			</g>
			<g>
				<path class="st0" d="M182.4,170.9c0,1.6-1.1,3-3.2,4.1c-1.8,0.9-3.7,1.4-5.5,1.4c-1.9,0-3.8-0.5-5.5-1.4
					c-2.1-1.1-3.1-2.6-3.1-4.3v-27.6h17.3L182.4,170.9L182.4,170.9z M179,170.7v-24.8h-10.4v24.6c0,1,0.6,1.8,1.9,2.4
					c1.1,0.5,2.2,0.8,3.3,0.8c1,0,2.1-0.3,3.2-0.8C178.3,172.3,179,171.6,179,170.7z"/>
				<path class="st0" d="M206.4,159.9c0,1.2-0.9,2.4-2.7,3.7c-1.7,1.2-3.1,1.8-4.4,1.8h-6.7v11.1h-3.5v-33.3h17.3L206.4,159.9
					L206.4,159.9z M202.9,159.6v-13.7h-10.4v16.7h6.1c0.7,0,1.6-0.3,2.6-1C202.4,160.9,202.9,160.3,202.9,159.6z"/>
				<path class="st0" d="M229.5,170.9c0,1.6-1.1,3-3.2,4.1c-1.8,0.9-3.7,1.4-5.5,1.4c-1.9,0-3.8-0.5-5.5-1.4
					c-2.1-1.1-3.1-2.6-3.1-4.3v-27.6h17.3v16.7h-3.5v-13.9h-10.4v16.7h13.8v2.8h-13.8v5.4c0,1,0.7,1.8,2.2,2.3
					c1.1,0.5,2.1,0.7,3,0.7c1,0,2-0.3,3.2-0.8c1.3-0.6,2-1.4,2-2.2v-2.5h3.5L229.5,170.9L229.5,170.9z"/>
				<path class="st0" d="M253,176.5h-9.2l-2.7-30.6h-1.9v30.6h-3.5v-33.3h8.6l2.6,30.6h2.7v-30.6h3.5L253,176.5L253,176.5z"/>
				<path class="st0" d="M289.2,170.9c0,1.6-1.1,3-3.2,4.1c-1.8,0.9-3.7,1.4-5.5,1.4c-1.8,0-3.6-0.5-5.5-1.5
					c-2.1-1.1-3.2-2.5-3.2-4.1v-2.8h3.5v2.5c0,1,0.7,1.8,2.2,2.3c1.1,0.4,2.1,0.7,3,0.7c1,0,2-0.3,3.2-0.8c1.3-0.6,2-1.4,2-2.2v-5.3
					h-13.8v-22.2h17.3v16.7h-3.5v-13.9h-10.4v16.6h13.8V170.9L289.2,170.9z"/>
				<path class="st0" d="M313,170.9c0,1.6-1.1,3-3.2,4.1c-1.8,0.9-3.7,1.4-5.5,1.4c-1.9,0-3.8-0.5-5.5-1.4c-2.1-1.1-3.1-2.6-3.1-4.3
					v-27.6H313L313,170.9L313,170.9z M309.5,170.7v-24.8h-10.4v24.6c0,1,0.6,1.8,1.9,2.4c1.1,0.5,2.2,0.8,3.3,0.8
					c1,0,2.1-0.3,3.2-0.8C308.9,172.3,309.5,171.6,309.5,170.7z"/>
				<path class="st0" d="M337,170.9c0,1.6-1.1,3-3.2,4.1c-1.8,0.9-3.7,1.4-5.5,1.4c-1.9,0-3.8-0.5-5.5-1.4c-2.1-1.1-3.1-2.6-3.1-4.3
					v-27.6h3.5v27.5c0,0.9,0.7,1.7,2,2.3c1.1,0.5,2.1,0.7,3.2,0.7c1,0,2.1-0.3,3.2-0.8c1.3-0.6,2-1.4,2-2.3v-27.5h3.5L337,170.9
					L337,170.9z"/>
				<path class="st0" d="M361,156.2c0,1.7-0.8,3.5-2.5,5.4c-1.6,1.7-3.3,2.8-5,3.3L361,175l-3.4,1.5l-7.9-11.1h-2.5v11.1h-3.5v-33.3
					H361V156.2z M357.5,156.1v-10.1h-10.4v16.7h3.6c1.5,0,2.9-0.7,4.5-2.2C356.8,159,357.5,157.5,357.5,156.1z"/>
				<path class="st0" d="M384.7,170.9c0,1.6-1.1,3-3.2,4.1c-1.8,0.9-3.7,1.4-5.5,1.4c-1.9,0-3.8-0.5-5.5-1.4
					c-2.1-1.1-3.1-2.6-3.1-4.3v-27.6h17.3v19.4h-3.5v-16.7h-10.4v24.8c0,0.9,0.7,1.7,2,2.3c1.1,0.5,2.1,0.7,3.2,0.7
					c1,0,2-0.3,3.2-0.8c1.3-0.6,2-1.4,2-2.2v-2.5h3.5V170.9z"/>
				<path class="st0" d="M408.2,170.9c0,1.6-1.1,3-3.2,4.1c-1.8,0.9-3.7,1.4-5.5,1.4c-1.9,0-3.8-0.5-5.5-1.4
					c-2.1-1.1-3.1-2.6-3.1-4.3v-27.6h17.3v16.7h-3.5v-13.9h-10.4v16.7h13.8v2.8h-13.8v5.4c0,1,0.7,1.8,2.2,2.3
					c1.1,0.5,2.1,0.7,3,0.7c1,0,2-0.3,3.2-0.8c1.3-0.6,2-1.4,2-2.2v-2.5h3.5V170.9z"/>
			</g>
		</g>
		<polygon class="st0" points="129.3,176 141.2,61.1 160.9,61.1 148.6,176 		"/>
	</g>
	<g>
		<g>
			<polygon class="st0" points="101.3,61.4 126.4,61.4 74.8,118.4 126.4,176.2 100.9,176.2 49.4,118.5 			"/>
		</g>
		<g>
			<polygon class="st0" points="436.1,60.8 411,60.8 462.6,118.4 411,176.2 436.6,176.2 488.1,118.5 			"/>
		</g>
	</g>
</g>
</svg>
