<?xml version="1.0" encoding="utf-8"?>
<!-- Generator: Adobe Illustrator 21.0.2, SVG Export Plug-In . SVG Version: 6.00 Build 0)  -->
<svg version="1.1" id="Camada_1" xmlns="http://www.w3.org/2000/svg" xmlns:xlink="http://www.w3.org/1999/xlink" x="0px" y="0px"
	 viewBox="0 0 232.6 39" style="enable-background:new 0 0 232.6 39;" xml:space="preserve">
<g>
	<path d="M48.4,29.8V29c0.7,0,1.2-0.1,1.4-0.3c0.3-0.2,0.4-0.5,0.4-0.9V11.4c0-0.6-0.1-0.9-0.4-1.1c-0.2-0.2-0.7-0.3-1.4-0.3V9.2
		h6.7V10c-0.7,0-1.2,0.1-1.5,0.3c-0.2,0.1-0.4,0.5-0.4,1.1V18h8.1v-6.6c0-0.6-0.1-0.9-0.4-1.1c-0.2-0.2-0.7-0.3-1.4-0.3V9.2h6.7V10
		c-0.7,0-1.2,0.1-1.5,0.2c-0.2,0.1-0.4,0.4-0.4,0.9c0,0.1,0,0.1,0,0.2v16.4c0,0.4,0.1,0.8,0.4,0.9c0.3,0.2,0.7,0.3,1.4,0.3v0.8h-6.7
		V29c0.7,0,1.2-0.1,1.4-0.3c0.3-0.2,0.4-0.5,0.4-0.9v-8.2h-8v8.2c0,0.4,0.1,0.8,0.4,0.9c0.3,0.2,0.8,0.3,1.5,0.3v0.8H48.4z"/>
	<path d="M68.1,29.8V29l9.4-9.5L68.1,10V9.2h16v3.6h-0.8c0-0.7-0.2-1.2-0.5-1.5s-0.8-0.5-1.6-0.5H73l7.8,7.8l-8.2,8.2h8.3
		c0.9,0,1.5-0.2,1.9-0.6s0.6-0.9,0.6-1.5h0.8v5.1L68.1,29.8L68.1,29.8z"/>
	<path d="M85.6,29.8V29c0.7,0,1.2-0.1,1.4-0.3c0.3-0.2,0.4-0.5,0.4-0.9V11.4c0-0.6-0.1-0.9-0.4-1.1c-0.2-0.2-0.7-0.3-1.4-0.3V9.2h16
		v3.6h-0.9c0-0.7-0.2-1.3-0.5-1.6c-0.4-0.3-0.8-0.5-1.5-0.5h-8.3v17c0,0.4,0.1,0.8,0.4,0.9c0.3,0.2,0.7,0.3,1.4,0.3v0.8L85.6,29.8
		L85.6,29.8z"/>
	<path d="M103.7,29.8V29l9.4-9.5l-9.4-9.5V9.2h16v3.6h-0.8c0-0.7-0.2-1.2-0.5-1.5s-0.8-0.5-1.6-0.5h-8.2l7.8,7.8l-8.2,8.2h8.3
		c0.9,0,1.5-0.2,1.9-0.6s0.6-0.9,0.6-1.5h0.7v5.1L103.7,29.8L103.7,29.8z"/>
	<path d="M122.2,29.8l-0.8-3.9h0.8c0.7,1,1.4,1.6,2.1,1.9s1.7,0.5,2.9,0.5c0.9,0,1.6-0.3,2.1-0.9s0.8-1.6,0.8-2.8
		c0-1.1-0.3-1.9-0.8-2.4s-1.4-1-2.6-1.5c-1.3-0.4-2.4-1.2-3.3-2.2s-1.3-2.4-1.3-4c0-1.5,0.5-2.8,1.5-3.7c1-0.9,2.2-1.4,3.7-1.4
		c0.7,0,1.2,0.1,1.5,0.2s0.8,0.3,1.3,0.7c0.2,0.1,0.4,0.2,0.6,0.2c0.1,0,0.2,0,0.2-0.1c0.1-0.1,0.1-0.2,0.1-0.3c0-0.2,0-0.4-0.1-0.7
		h0.9l0.7,3.1h-0.8c-1-0.8-1.6-1.3-2-1.4s-1.2-0.2-2.3-0.2c-0.7,0-1.3,0.3-1.7,0.9c-0.4,0.6-0.7,1.3-0.7,2.1c0,0.9,0.3,1.7,0.8,2.4
		c0.5,0.7,1.5,1.3,2.8,1.8c0.9,0.4,1.9,1,3,1.9s1.6,2.2,1.6,3.9c0,1.9-0.6,3.4-1.8,4.4s-2.6,1.5-4.1,1.5c-0.7,0-1.3,0-1.8-0.1
		c-0.4-0.1-0.9-0.2-1.3-0.5c-0.3-0.2-0.5-0.3-0.7-0.3c-0.1,0-0.2,0-0.2,0.1c-0.1,0.1-0.2,0.3-0.2,0.6c0,0.1,0,0.1,0,0.2
		C123.1,29.8,122.2,29.8,122.2,29.8z"/>
	<path d="M140.2,29.8V29c0.7,0,1.2-0.1,1.4-0.3c0.3-0.2,0.4-0.5,0.4-0.9v-17h-4.2c-0.7,0-1.3,0.2-1.7,0.5c-0.4,0.3-0.7,0.8-1,1.6
		h-0.9l1.3-3.6h16.2l1.3,3.6h-0.9c-0.3-0.8-0.6-1.3-1-1.6c-0.4-0.3-1-0.5-1.8-0.5h-4.2v17c0,0.4,0.1,0.8,0.4,0.9
		c0.3,0.2,0.7,0.3,1.4,0.3v0.8H140.2z"/>
	<path d="M162.2,9.2c2.8,0,5.2,1,7.3,3c2.1,2,3,4.4,3,7.2c0,2.8-1,5.2-3,7.3c-2,2.1-4.4,3.1-7.3,3.1s-5.3-1-7.3-3.1s-3-4.5-3-7.3
		c0-2.9,1-5.3,3-7.2C156.9,10.2,159.3,9.2,162.2,9.2z M161.6,10.7c-1.8,0.2-3.4,1.1-4.8,2.8c-1.2,1.5-1.8,3.4-1.8,5.8
		c0,0.3,0,0.6,0,0.9c0.2,2.2,1,4.1,2.4,5.7s3.2,2.4,5.4,2.4c2.2-0.2,3.9-1,5-2.6c1.1-1.5,1.6-3.5,1.6-6.2c0-0.2,0-0.4,0-0.6
		c-0.2-2.3-1-4.2-2.5-5.8c-1.4-1.6-3.1-2.3-5.1-2.3C161.8,10.7,161.7,10.7,161.6,10.7z"/>
	<path d="M173.3,29.8l-0.8-3.9h0.8c0.7,1,1.4,1.6,2.2,1.9c0.7,0.3,1.7,0.5,2.9,0.5c0.9,0,1.6-0.3,2.1-0.9s0.8-1.6,0.8-2.8
		c0-1.1-0.3-1.9-0.8-2.4s-1.4-1-2.6-1.5c-1.3-0.4-2.4-1.2-3.3-2.2s-1.3-2.4-1.3-4c0-1.5,0.5-2.8,1.5-3.7c1-0.9,2.2-1.4,3.7-1.4
		c0.7,0,1.2,0.1,1.5,0.2s0.8,0.3,1.3,0.7c0.2,0.1,0.4,0.2,0.6,0.2c0.1,0,0.2,0,0.2-0.1c0.1-0.1,0.1-0.2,0.1-0.3c0-0.2,0-0.4-0.1-0.7
		h0.9l0.7,3.1h-1c-1-0.8-1.6-1.3-2-1.4s-1.2-0.2-2.3-0.2c-0.7,0-1.3,0.3-1.7,0.9c-0.4,0.6-0.7,1.3-0.7,2.1c0,0.9,0.3,1.7,0.8,2.4
		c0.5,0.7,1.5,1.3,2.8,1.8c0.9,0.4,1.9,1,3,1.9s1.6,2.2,1.6,3.9c0,1.9-0.6,3.4-1.8,4.4s-2.6,1.5-4.1,1.5c-0.7,0-1.3,0-1.8-0.1
		s-0.9-0.2-1.3-0.5c-0.3-0.2-0.5-0.3-0.7-0.3c-0.1,0-0.2,0-0.2,0.1c-0.1,0.1-0.2,0.3-0.2,0.6c0,0.1,0,0.1,0,0.2
		C174.1,29.8,173.3,29.8,173.3,29.8z"/>
</g>
</svg>
