<svg id="Home_Main_Right" data-name="Home Main Right" xmlns="http://www.w3.org/2000/svg" viewBox="0 0 474 217.5"><defs><style>.cls-1{fill:#864e87;}.cls-1,.cls-10,.cls-11,.cls-12,.cls-13,.cls-14,.cls-16,.cls-17,.cls-18,.cls-19,.cls-2,.cls-20,.cls-21,.cls-25,.cls-26,.cls-6,.cls-7,.cls-8,.cls-9{fill-rule:evenodd;}.cls-2{fill:#2c022d;}.cls-20,.cls-3{fill:#e62338;}.cls-19,.cls-4{fill:#f7a51f;}.cls-13,.cls-5{fill:#78b948;}.cls-16,.cls-6{fill:none;stroke-miterlimit:10;stroke-width:6px;}.cls-6{stroke:#a86da9;stroke-dasharray:12 8;}.cls-7{fill:#4a234b;}.cls-8{fill:#ffd3cc;}.cls-9{fill:#a86da9;}.cls-10,.cls-15{fill:#d199d2;}.cls-11{fill:#f1f1f1;}.cls-12{fill:#f5a99d;}.cls-14{fill:#fff;}.cls-16{stroke:#cdcdcd;}.cls-17,.cls-22{fill:#1a2d37;}.cls-18,.cls-23{fill:#19041a;}.cls-21{fill:#0083ca;}.cls-24{fill:#76caf7;}.cls-25{fill:#e0d5c8;}.cls-26{fill:#ffebc1;}</style></defs><title>Home Main Right</title><path class="cls-1" d="M796,98h323V260H796Z" transform="translate(-735 -56.5)"/><path class="cls-2" d="M801,79h313a5,5,0,0,1,5,5V98H796V84A5,5,0,0,1,801,79Z" transform="translate(-735 -56.5)"/><circle class="cls-3" cx="80" cy="32.5" r="5"/><circle class="cls-4" cx="93" cy="32.5" r="5"/><circle class="cls-5" cx="106" cy="32.5" r="5"/><path class="cls-6" d="M739.64,241.46a232.54,232.54,0,0,1,407.26-9.2" transform="translate(-735 -56.5)"/><path class="cls-7" d="M925,123.5A28.5,28.5,0,1,1,896.5,152,28.5,28.5,0,0,1,925,123.5Z" transform="translate(-735 -56.5)"/><path class="cls-8" d="M792.2,151.81c12.81-35.63,104.3.69,104.3.69l-6,15-58-2S777.31,193.24,792.2,151.81Z" transform="translate(-735 -56.5)"/><path class="cls-7" d="M889,106.5A49.5,49.5,0,1,1,839.5,156,49.5,49.5,0,0,1,889,106.5Z" transform="translate(-735 -56.5)"/><path class="cls-9" d="M924.43,260c-3.66-26.62-11-62.44-23.93-63.5-31.54-2.58-66.19,26.17-36.75,63.5Z" transform="translate(-735 -56.5)"/><path class="cls-8" d="M976.3,168.63s74.18-82.1,42.19-107.39c-29.71-23.48-95.27,69.9-95.27,69.9l6.32,16.27L994.91,91S966,116.64,957.36,140.59C948.35,165.44,976.3,168.63,976.3,168.63Z" transform="translate(-735 -56.5)"/><path class="cls-8" d="M885.5,231.5c-9.23-.47-104.09-35-91.3-73.69-1.44,4.35,71.13,13.27,97.3,28.69C911,198,894.73,232,885.5,231.5Z" transform="translate(-735 -56.5)"/><path class="cls-10" d="M899.41,249.21c3.71,3.93,7.39,7.51,11,10.79H1043.5s-44.36-31.57-40-43c7.22-18.91,7.5-28-17.5-46-9.91-7.13-28-34-28-34l-12.18,12.73C913,159,897,178,890.3,180.27c-3.94,1.83-11-.52-11-.52l-10.18,50.62s17.6,7.86,19.42,9.13A57.24,57.24,0,0,1,899.41,249.21Z" transform="translate(-735 -56.5)"/><path class="cls-7" d="M917,56.5A28.5,28.5,0,1,1,888.5,85,28.5,28.5,0,0,1,917,56.5Z" transform="translate(-735 -56.5)"/><path class="cls-11" d="M925,151.81c17.91-1.83,33.32,5.28,34.4,15.88s-12.55,20.67-30.47,22.5-33.32-5.28-34.4-15.89S907.12,153.63,925,151.81Z" transform="translate(-735 -56.5)"/><path class="cls-10" d="M941,192V171h28Z" transform="translate(-735 -56.5)"/><path class="cls-12" d="M907.5,174.5,903,155.61s-36.36-31.11-30.5-45.11c15.3-36.6,56.27-39.63,64.33-23.79,10.38,20.4,26.55,38.85,22.24,42.83-6.07,5.62-16.78,9-22,15.66-2.4,3.12,7.38,18.3,7.38,18.3s2.53,6.84-11,11C911,181.42,907.5,174.5,907.5,174.5Z" transform="translate(-735 -56.5)"/><path class="cls-12" d="M947.44,112.84s11.34-4.72,11.25-7.69-10.07.2-14.26-2.6a26.75,26.75,0,0,0-7.64-3.64Z" transform="translate(-735 -56.5)"/><path class="cls-7" d="M942.5,82.5l-29,14-11,57-26-31,5-36,21-17,30-2Z" transform="translate(-735 -56.5)"/><path class="cls-7" d="M896.8,67.5c21.7,0,21.39,6.65,21.39,30.13s6.33,62.44-25.69,76.87c-5.22,2.35-35-41-35-64.5S875.09,67.5,896.8,67.5Z" transform="translate(-735 -56.5)"/><path class="cls-12" d="M907.15,107c3.18-1.86,8.36,1,11.57,6.38s3.23,11.25,0,13.11-8.36-1-11.57-6.38S904,108.86,907.15,107Z" transform="translate(-735 -56.5)"/><path class="cls-13" d="M1054.13,117a28,28,0,1,1-28,28A28,28,0,0,1,1054.13,117Z" transform="translate(-735 -56.5)"/><path class="cls-14" d="M1049.37,150.39l17.87-17.82,4.9,4.91-22.67,22.63-12.89-12.93,4.77-4.81Z" transform="translate(-735 -56.5)"/><path class="cls-14" d="M745,241h79.65a8.92,8.92,0,0,0,8.67-11L808,126H745Z" transform="translate(-735 -56.5)"/><path class="cls-14" d="M857,249.5c10.22,0,18.5,4,18.5,9s-8.28,9-18.5,9-18.5-4-18.5-9S846.78,249.5,857,249.5Z" transform="translate(-735 -56.5)"/><path class="cls-15" d="M0,162.5H38a0,0,0,0,1,0,0v31.83a9.17,9.17,0,0,1-9.17,9.17H9.17A9.17,9.17,0,0,1,0,194.33V162.5A0,0,0,0,1,0,162.5Z"/><path class="cls-15" d="M776,232c1.39,0,3,2.18,3,5s-1.61,5-3,5-3-2.18-3-5,1.61-5,3-5m0-6c-5,0-9,4.92-9,11s4,11,9,11,9-4.92,9-11-4-11-9-11Z" transform="translate(-735 -56.5)"/><path class="cls-16" d="M752.93,207.7C772,185,739,187,758.48,166.34" transform="translate(-735 -56.5)"/><polygon class="cls-17" points="360 149.5 460 149.5 474 85.5 374 85.5 360 149.5"/><polygon class="cls-18" points="446 149.5 460 149.5 474 85.5 460 85.5 446 149.5"/><path class="cls-19" d="M1093.59,182.5a27,27,0,1,1-27.09,27A27,27,0,0,1,1093.59,182.5Z" transform="translate(-735 -56.5)"/><path class="cls-20" d="M1110.59,182.5a27,27,0,1,1-27.09,27A27,27,0,0,1,1110.59,182.5Z" transform="translate(-735 -56.5)"/><path class="cls-13" d="M1127.59,182.5a27,27,0,1,1-27.09,27A27,27,0,0,1,1127.59,182.5Z" transform="translate(-735 -56.5)"/><path class="cls-21" d="M1144.59,182.5a27,27,0,1,1-27.09,27A27,27,0,0,1,1144.59,182.5Z" transform="translate(-735 -56.5)"/><rect class="cls-22" x="300" y="149.5" width="100" height="54"/><rect class="cls-23" x="400" y="149.5" width="52" height="54"/><rect class="cls-24" x="314" y="149.5" width="11" height="18"/><rect class="cls-24" x="374" y="149.5" width="11" height="18"/><polygon class="cls-14" points="333.13 217.5 313 194.5 183 194.5 203.13 217.5 333.13 217.5"/><polygon class="cls-25" points="346 217.5 216 217.5 188 185.5 318 185.5 346 217.5"/><polygon class="cls-26" points="257 202.5 219 202.5 209 163.5 247 163.5 257 202.5"/></svg>