<svg id="Home_Lower_Left" data-name="Home Lower Left" xmlns="http://www.w3.org/2000/svg" viewBox="0 0 364.34 245.05"><defs><style>.cls-1{fill:#b7b7b7;}.cls-1,.cls-10,.cls-4,.cls-5,.cls-6,.cls-7,.cls-8{fill-rule:evenodd;}.cls-2{fill:#c3e1ac;}.cls-3,.cls-5{fill:#f5a99d;}.cls-4{fill:#ffeac1;}.cls-6{fill:#f1f1f1;}.cls-7{fill:#4a234b;}.cls-8{fill:#f4a89c;}.cls-9{fill:#cdcdcd;}.cls-10{fill:#e1e1e1;}.cls-11{fill:#fff;}</style></defs><title>Home Lower Left</title><path class="cls-1" d="M348.77,710.58s5.57-120.33-21.53-129.19c-34.36-11.23-130.59-11.66-145.09,0s-24.34,98.16-24.34,98.16l35.92-5.65,4-37.69,9.52,74.36Z" transform="translate(-93.08 -465.95)"/><ellipse class="cls-2" cx="410.78" cy="632.29" rx="14.44" ry="44.72" transform="translate(-316.79 -241.02) rotate(-24.29)"/><ellipse class="cls-2" cx="440.19" cy="646.81" rx="34.05" ry="10.99" transform="translate(-423.5 316.07) rotate(-65.71)"/><rect class="cls-3" x="307.92" y="204.05" width="56" height="10"/><path class="cls-3" d="M310.92,212.05h50a0,0,0,0,1,0,0v26.76a6.24,6.24,0,0,1-6.24,6.24H317.17a6.24,6.24,0,0,1-6.24-6.24V212.05A0,0,0,0,1,310.92,212.05Z"/><path class="cls-1" d="M193.69,672.85s-1,29.35-31.32,27.67c-54.18-3-34.61-111-34.61-111l24.67-5.41s6.9,83,11,83.5C173.57,668.69,193.69,672.85,193.69,672.85Z" transform="translate(-93.08 -465.95)"/><polygon class="cls-4" points="0 73.06 39.85 0 119.55 67.52 89.66 137.26 0 73.06"/><path class="cls-5" d="M116.6,533.5s-8.27,20.1-1.45,29.58c2,2.74,12.83,20.67,12.83,20.67l19.53-7.55s-16.75-12.84-16.25-23.92a39.63,39.63,0,0,1,.83-5.84Z" transform="translate(-93.08 -465.95)"/><path class="cls-6" d="M148.87,570l-26.06,15.89,2.8,6L152,583.61Z" transform="translate(-93.08 -465.95)"/><path class="cls-5" d="M239.2,574l2.11-19.61s-13.48-29.58-12.51-43.81,63.35-28.11,64.08-7c.84,24.34,11.81,37.88,7.26,41-6.41,4.34-7.71,6.05-13.44,11.53-2.66,2.55-.66,13.51-.66,13.51Z" transform="translate(-93.08 -465.95)"/><path class="cls-7" d="M238.64,553.4c.69,8,12.25-5.12,15.5-11.07,20-36.53-1.5-35.58-1.11-36.53,6-14.38,34,6.27,42.06-4.43,4.92-6.55-13.37-24.84-25.46-15.5-7.35,5.68-30.85-3.39-44.28,13.28C207.89,520.84,237.94,545.4,238.64,553.4Z" transform="translate(-93.08 -465.95)"/><path class="cls-8" d="M251.41,524.07c3.21-1.26,7.6,2.14,9.8,7.6s1.4,10.91-1.81,12.17-7.6-2.14-9.81-7.6S248.2,525.33,251.41,524.07Z" transform="translate(-93.08 -465.95)"/><path class="cls-7" d="M255.11,512.21a129.77,129.77,0,0,0,17.36,21.91c11.21,11.5,20.12-12.46,27.77-5.77,16.7,14.6,0,24.16-13.88,27.77-6.88,1.78-18.3,2.26-22-5.86S255.11,512.21,255.11,512.21Z" transform="translate(-93.08 -465.95)"/><path class="cls-5" d="M287.73,532.23s19.26-6.19,19.6-9-8.89-4.32-12.38-7.52a6.46,6.46,0,0,0-7.05-1.44Z" transform="translate(-93.08 -465.95)"/><path class="cls-6" d="M292,577.15l-62.6,6.59L228.36,563l63.09,7.06Z" transform="translate(-93.08 -465.95)"/><rect class="cls-9" x="92.92" y="235.05" width="67" height="10"/><polygon class="cls-10" points="291.16 245.05 153.48 245.05 197.54 169.05 335.22 169.05 291.16 245.05"/><circle class="cls-11" cx="244.35" cy="207.47" r="9.96"/></svg>